STARTFONT 2.1
FONT -FontForge-Gontserrat-Bold-R-Normal--32-310-75-75-P-182-ISO10646-1
SIZE 31 75 75
FONTBOUNDINGBOX 66 52 -17 -14
COMMENT "Generated by fontforge, http://fontforge.sourceforge.net"
COMMENT "Gontserrat is a derivative work of Montserrat under the Open Font License. Copyright 2020 Ospiro Enterprises (ospiro.com)"
COMMENT ""
COMMENT "Copyright notice for Montserrat: Copyright 2011 The Montserrat Project Authors (julieta.ulanovsky@gmail.com)"
STARTPROPERTIES 40
FOUNDRY "FontForge"
FAMILY_NAME "Gontserrat"
WEIGHT_NAME "Bold"
SLANT "R"
SETWIDTH_NAME "Normal"
ADD_STYLE_NAME ""
PIXEL_SIZE 32
POINT_SIZE 310
RESOLUTION_X 75
RESOLUTION_Y 75
SPACING "P"
AVERAGE_WIDTH 182
CHARSET_REGISTRY "ISO10646"
CHARSET_ENCODING "1"
FONTNAME_REGISTRY ""
CHARSET_COLLECTIONS "ISO8859-2 ISO8859-9 ISO8859-4 ISO10646-1"
FONT_NAME "Gontserrat-Bold"
FACE_NAME "Gontserrat Bold"
COPYRIGHT "Gontserrat is a derivative work of Montserrat under the Open Font License. Copyright 2020 Ospiro Enterprises (ospiro.com)"
FONT_VERSION "6.001"
FONT_ASCENT 25
FONT_DESCENT 7
UNDERLINE_POSITION -3
UNDERLINE_THICKNESS 2
X_HEIGHT 17
CAP_HEIGHT 22
DEFAULT_CHAR 3
RAW_ASCENT 800
RAW_DESCENT 200
NORM_SPACE 7
RELATIVE_WEIGHT 70
RELATIVE_SETWIDTH 50
SUPERSCRIPT_X 0
SUPERSCRIPT_Y 11
SUPERSCRIPT_SIZE 19
SUBSCRIPT_X 0
SUBSCRIPT_Y 2
SUBSCRIPT_SIZE 19
AVG_LOWERCASE_WIDTH 190
AVG_UPPERCASE_WIDTH 233
ENDPROPERTIES
CHARS 1597
STARTCHAR NULL
ENCODING 0
SWIDTH 0 0
DWIDTH 0 0
BBX 1 1 0 0
BITMAP
00
ENDCHAR
STARTCHAR nonmarkingreturn
ENCODING 13
SWIDTH 222 0
DWIDTH 7 0
BBX 1 1 0 0
BITMAP
00
ENDCHAR
STARTCHAR space
ENCODING 32
SWIDTH 222 0
DWIDTH 7 0
BBX 1 1 0 0
BITMAP
00
ENDCHAR
STARTCHAR exclam
ENCODING 33
SWIDTH 258 0
DWIDTH 8 0
BBX 6 23 1 0
BITMAP
7C
7C
7C
7C
7C
7C
7C
7C
7C
7C
7C
78
78
78
38
00
00
38
7C
FC
7C
7C
38
ENDCHAR
STARTCHAR quotedbl
ENCODING 34
SWIDTH 446 0
DWIDTH 14 0
BBX 10 9 2 14
BITMAP
F3C0
F3C0
F3C0
F3C0
F3C0
F3C0
F3C0
F3C0
F3C0
ENDCHAR
STARTCHAR numbersign
ENCODING 35
SWIDTH 736 0
DWIDTH 24 0
BBX 23 23 0 0
BITMAP
01E1E0
01E1E0
01E1E0
03E1E0
03C1E0
3FFFFE
3FFFFE
3FFFFE
3FFFFE
7FFFFE
03C3C0
07C3C0
0783C0
7FFFFC
7FFFFC
7FFFFC
7FFFFC
FFFFFC
078780
078780
0F8780
0F0780
0F0780
ENDCHAR
STARTCHAR dollar
ENCODING 36
SWIDTH 646 0
DWIDTH 21 0
BBX 19 33 1 -5
BITMAP
00F000
00F000
00F000
00F000
01F000
0FFF00
1FFFC0
3FFFE0
7FFFC0
7F0FC0
7E0180
7E0080
7F0000
7FE000
3FFC00
3FFF00
0FFF80
03FFC0
007FE0
000FE0
6007E0
7807E0
FE0FE0
FFFFC0
FFFFC0
7FFF80
1FFF00
07FC00
00F000
00F000
00F000
00F000
00F000
ENDCHAR
STARTCHAR percent
ENCODING 37
SWIDTH 994 0
DWIDTH 32 0
BBX 30 23 1 0
BITMAP
1F800F80
3FC00F00
7FE01E00
F9F03C00
F0F03C00
F0F07800
E070F000
E070F000
E0F1E000
F0F3C7C0
F9F3CFF0
7FE79FF8
3FCF3C78
1F9E3C3C
001E383C
003C383C
0078383C
0078383C
00F03C3C
01E03C78
01E01FF8
03C00FF0
078007E0
ENDCHAR
STARTCHAR ampersand
ENCODING 38
SWIDTH 688 0
DWIDTH 22 0
BBX 20 23 2 0
BITMAP
03F000
0FFC00
1FFC00
1E3E00
3E1E00
3E1E00
3E3E00
1E7E00
1FFC00
0FF000
0FE000
3FE100
7FF380
F9FBC0
F8FFC0
F07FC0
F83F80
F83F80
FFFFC0
7FFFE0
7FFFF0
3FF1E0
0FC0C0
ENDCHAR
STARTCHAR quotesingle
ENCODING 39
SWIDTH 254 0
DWIDTH 8 0
BBX 4 9 2 14
BITMAP
F0
F0
F0
F0
F0
F0
F0
F0
F0
ENDCHAR
STARTCHAR parenleft
ENCODING 40
SWIDTH 345 0
DWIDTH 11 0
BBX 9 28 2 -4
BITMAP
0F80
1F00
3F00
3E00
3E00
7E00
7C00
7C00
FC00
FC00
F800
F800
F800
F800
F800
F800
F800
F800
FC00
FC00
7C00
7C00
7E00
3E00
3E00
3F00
1F00
0F80
ENDCHAR
STARTCHAR parenright
ENCODING 41
SWIDTH 345 0
DWIDTH 11 0
BBX 9 28 0 -4
BITMAP
F800
7C00
7E00
3E00
3E00
1F00
1F00
1F00
1F80
1F80
0F80
0F80
0F80
0F80
0F80
0F80
0F80
0F80
1F80
1F80
1F00
1F00
3F00
3F00
3E00
7E00
7C00
F800
ENDCHAR
STARTCHAR asterisk
ENCODING 42
SWIDTH 381 0
DWIDTH 12 0
BBX 10 11 1 13
BITMAP
0E00
4C00
6DC0
FFC0
7FC0
3F00
7FC0
FFC0
6DC0
4C40
0E00
ENDCHAR
STARTCHAR plus
ENCODING 43
SWIDTH 511 0
DWIDTH 16 0
BBX 14 15 1 3
BITMAP
0780
0780
0780
0780
0780
0780
FFFC
FFFC
FFFC
FFFC
0780
0780
0780
0780
0780
ENDCHAR
STARTCHAR comma
ENCODING 44
SWIDTH 243 0
DWIDTH 8 0
BBX 6 9 1 -4
BITMAP
78
F8
FC
FC
78
78
70
E0
E0
ENDCHAR
STARTCHAR hyphen
ENCODING 45
SWIDTH 375 0
DWIDTH 12 0
BBX 8 4 2 8
BITMAP
FF
FF
FF
FF
ENDCHAR
STARTCHAR period
ENCODING 46
SWIDTH 245 0
DWIDTH 8 0
BBX 6 6 1 0
BITMAP
78
F8
FC
FC
F8
78
ENDCHAR
STARTCHAR slash
ENCODING 47
SWIDTH 355 0
DWIDTH 11 0
BBX 15 31 -1 -4
BITMAP
003E
003E
007C
007C
007C
00F8
00F8
00F8
01F0
01F0
01F0
03E0
03E0
03E0
07C0
07C0
07C0
0F80
0F80
0F80
1F00
1F00
1E00
3E00
3E00
3C00
7C00
7C00
7800
F800
F800
ENDCHAR
STARTCHAR zero
ENCODING 48
SWIDTH 703 0
DWIDTH 23 0
BBX 20 23 1 0
BITMAP
01FC00
07FF00
1FFF80
3FFFC0
3FFFE0
7F07E0
7E07F0
7E03F0
FE03F0
FC03F0
FC03F0
FC03F0
FC03F0
FC03F0
7E03F0
7E03F0
7E07F0
7F07E0
3FFFE0
3FFFC0
1FFF80
07FF00
01FC00
ENDCHAR
STARTCHAR one
ENCODING 49
SWIDTH 404 0
DWIDTH 13 0
BBX 10 23 0 0
BITMAP
FFC0
FFC0
FFC0
FFC0
FFC0
0FC0
0FC0
0FC0
0FC0
0FC0
0FC0
0FC0
0FC0
0FC0
0FC0
0FC0
0FC0
0FC0
0FC0
0FC0
0FC0
0FC0
0FC0
ENDCHAR
STARTCHAR two
ENCODING 50
SWIDTH 605 0
DWIDTH 19 0
BBX 17 23 1 0
BITMAP
07F000
1FFC00
7FFE00
FFFF00
FFFF00
783F80
603F80
403F00
003F00
007F00
00FE00
01FC00
03F800
03F000
07E000
0FC000
1FC000
3F8000
7FFF80
FFFF80
FFFF80
FFFF80
FFFF80
ENDCHAR
STARTCHAR three
ENCODING 51
SWIDTH 603 0
DWIDTH 19 0
BBX 18 23 0 0
BITMAP
7FFF80
7FFF80
7FFF80
7FFF80
7FFF00
007E00
00FC00
01F800
03F000
07F800
07FE00
07FF80
07FF80
001FC0
000FC0
0007C0
200FC0
380FC0
7FFFC0
7FFF80
FFFF00
3FFE00
07F800
ENDCHAR
STARTCHAR four
ENCODING 52
SWIDTH 607 0
DWIDTH 19 0
BBX 18 23 0 0
BITMAP
03F000
03E000
07E000
07C000
0FC000
0F8000
1F8000
1F8000
3F0000
3F3E00
7E3E00
7E3E00
7C3E00
FFFFC0
FFFFC0
FFFFC0
FFFFC0
FFFFC0
003E00
003E00
003E00
003E00
003E00
ENDCHAR
STARTCHAR five
ENCODING 53
SWIDTH 625 0
DWIDTH 20 0
BBX 18 23 1 0
BITMAP
3FFF80
3FFF80
3FFF80
3FFF80
3FFF80
3E0000
3E0000
3E0000
3FF800
3FFE00
3FFF00
3FFF80
3FFF80
001FC0
001FC0
000FC0
201FC0
781FC0
7FFF80
FFFF80
FFFF00
3FFE00
07F000
ENDCHAR
STARTCHAR six
ENCODING 54
SWIDTH 630 0
DWIDTH 20 0
BBX 18 23 1 0
BITMAP
01FC00
07FF00
1FFF80
3FFF00
3FFF00
7E0200
7C0000
FC7000
F9FE00
FBFF00
FFFF00
FFFF80
FE1F80
FC0F80
FC0FC0
FC0FC0
FC0F80
7E1F80
7FFF80
3FFF00
1FFF00
0FFC00
03F000
ENDCHAR
STARTCHAR seven
ENCODING 55
SWIDTH 589 0
DWIDTH 19 0
BBX 18 23 0 0
BITMAP
FFFFC0
FFFFC0
FFFFC0
FFFFC0
FFFFC0
FC1FC0
FC1F80
FC1F80
003F00
003F00
007E00
007E00
00FE00
00FC00
01FC00
01F800
01F800
03F000
03F000
07E000
07E000
0FE000
0FC000
ENDCHAR
STARTCHAR eight
ENCODING 56
SWIDTH 631 0
DWIDTH 20 0
BBX 18 23 1 0
BITMAP
07F000
1FFC00
3FFE00
7FFF00
7E1F00
7C0F80
7C0F80
7C1F00
3FFF00
1FFE00
0FFC00
3FFF00
7FFF00
FC1F80
F80F80
F80FC0
F80FC0
FC1FC0
FFFF80
7FFF80
7FFF00
1FFE00
07F800
ENDCHAR
STARTCHAR nine
ENCODING 57
SWIDTH 629 0
DWIDTH 20 0
BBX 18 23 1 0
BITMAP
07E000
1FF800
3FFE00
7FFE00
FFFF00
FC1F80
F81F80
F81F80
F81F80
FC1F80
FFFFC0
7FFFC0
7FFF80
3FEF80
0FCF80
000F80
001F80
203F00
3FFF00
7FFE00
FFFC00
7FF800
0FE000
ENDCHAR
STARTCHAR colon
ENCODING 58
SWIDTH 245 0
DWIDTH 8 0
BBX 6 16 1 0
BITMAP
78
F8
FC
FC
F8
78
00
00
00
00
78
F8
FC
FC
F8
78
ENDCHAR
STARTCHAR semicolon
ENCODING 59
SWIDTH 244 0
DWIDTH 8 0
BBX 6 20 1 -4
BITMAP
78
F8
FC
FC
F8
78
00
00
00
00
00
78
F8
FC
FC
78
78
70
E0
E0
ENDCHAR
STARTCHAR less
ENCODING 60
SWIDTH 511 0
DWIDTH 16 0
BBX 14 17 1 2
BITMAP
0004
003C
00FC
03FC
1FF8
7FE0
FF00
FC00
F000
FE00
FF80
3FE0
0FFC
03FC
007C
001C
0004
ENDCHAR
STARTCHAR equal
ENCODING 61
SWIDTH 511 0
DWIDTH 16 0
BBX 14 11 1 5
BITMAP
FFFC
FFFC
FFFC
FFFC
0000
0000
0000
FFFC
FFFC
FFFC
FFFC
ENDCHAR
STARTCHAR greater
ENCODING 62
SWIDTH 511 0
DWIDTH 16 0
BBX 14 17 1 2
BITMAP
C000
F800
FE00
FF80
3FF0
0FFC
01FC
007C
003C
01FC
07FC
3FF0
FFC0
FE00
F800
E000
8000
ENDCHAR
STARTCHAR question
ENCODING 63
SWIDTH 474 0
DWIDTH 15 0
BBX 14 23 1 0
BITMAP
0FC0
3FF0
7FF8
7FFC
FFFC
F8FC
F07C
007C
00F8
01F0
03E0
07C0
0780
0F80
0F80
0000
0000
0700
0F80
0F80
0F80
0F80
0700
ENDCHAR
STARTCHAR at
ENCODING 64
SWIDTH 912 0
DWIDTH 29 0
BBX 27 28 1 -5
BITMAP
003FC000
01FFF000
03FFFC00
0FE07E00
1F001F00
1E000780
3C3C7B80
78FF7BC0
71FFF9C0
F1FFF9E0
F3F1F8E0
E3E0F8E0
E3C0F8E0
E3C0F8E0
E3C0F8E0
E3C0F8E0
E3E0F8E0
E3F1F8E0
F1FFF9E0
70FFBFC0
787F3F80
383E1F00
3E000000
1F001000
0FC0F000
07FFF800
01FFF000
007F8000
ENDCHAR
STARTCHAR A
ENCODING 65
SWIDTH 773 0
DWIDTH 25 0
BBX 25 23 0 0
BITMAP
007F0000
007F0000
00FF8000
00FF8000
00FF8000
01FFC000
01FFC000
03F7E000
03E7E000
07E3E000
07E3F000
07C3F000
0FC1F800
0FC1F800
1FFFF800
1FFFFC00
1FFFFC00
3FFFFE00
3FFFFE00
7E007E00
7E003F00
FC003F00
FC003F80
ENDCHAR
STARTCHAR B
ENCODING 66
SWIDTH 716 0
DWIDTH 23 0
BBX 20 23 2 0
BITMAP
FFFE00
FFFF80
FFFFC0
FFFFE0
FFFFE0
FC07E0
FC07E0
FC07E0
FC0FC0
FFFFC0
FFFF00
FFFF80
FFFFC0
FFFFE0
FC07F0
FC03F0
FC03F0
FC07F0
FFFFF0
FFFFE0
FFFFC0
FFFF80
FFFE00
ENDCHAR
STARTCHAR C
ENCODING 67
SWIDTH 692 0
DWIDTH 22 0
BBX 21 23 1 0
BITMAP
00FE00
03FFC0
0FFFE0
1FFFF8
3FFFF0
7F81E0
7F00E0
FE0040
FC0000
FC0000
FC0000
FC0000
FC0000
FC0000
FC0000
FE0040
7F00C0
7F83E0
3FFFF0
1FFFF8
0FFFE0
03FF80
00FE00
ENDCHAR
STARTCHAR D
ENCODING 68
SWIDTH 766 0
DWIDTH 25 0
BBX 22 23 2 0
BITMAP
FFFC00
FFFF00
FFFFC0
FFFFE0
FFFFF0
FC07F0
FC03F8
FC01F8
FC01F8
FC00FC
FC00FC
FC00FC
FC00FC
FC00FC
FC01F8
FC01F8
FC03F8
FC07F0
FFFFF0
FFFFE0
FFFFC0
FFFF00
FFF800
ENDCHAR
STARTCHAR E
ENCODING 69
SWIDTH 675 0
DWIDTH 22 0
BBX 18 23 2 0
BITMAP
FFFFC0
FFFFC0
FFFFC0
FFFFC0
FFFFC0
FC0000
FC0000
FC0000
FC0000
FFFF80
FFFF80
FFFF80
FFFF80
FFFF80
FC0000
FC0000
FC0000
FC0000
FFFFC0
FFFFC0
FFFFC0
FFFFC0
FFFFC0
ENDCHAR
STARTCHAR F
ENCODING 70
SWIDTH 607 0
DWIDTH 19 0
BBX 17 23 2 0
BITMAP
FFFF80
FFFF80
FFFF80
FFFF80
FFFF80
FC0000
FC0000
FC0000
FC0000
FC0000
FFFF00
FFFF00
FFFF00
FFFF00
FFFF00
FC0000
FC0000
FC0000
FC0000
FC0000
FC0000
FC0000
FC0000
ENDCHAR
STARTCHAR G
ENCODING 71
SWIDTH 743 0
DWIDTH 24 0
BBX 21 23 1 0
BITMAP
003E00
03FFC0
07FFF0
1FFFF8
3FFFF0
3FC3F0
7F00E0
FE0040
FE0000
FC0000
FC0FF8
FC0FF8
FC0FF8
FC0FF8
FC0FF8
FE00F8
7F00F8
7F80F8
3FFFF8
1FFFF8
0FFFF8
07FFF0
01FF80
ENDCHAR
STARTCHAR H
ENCODING 72
SWIDTH 785 0
DWIDTH 25 0
BBX 21 23 2 0
BITMAP
FC01F8
FC01F8
FC01F8
FC01F8
FC01F8
FC01F8
FC01F8
FC01F8
FC01F8
FFFFF8
FFFFF8
FFFFF8
FFFFF8
FFFFF8
FC01F8
FC01F8
FC01F8
FC01F8
FC01F8
FC01F8
FC01F8
FC01F8
FC01F8
ENDCHAR
STARTCHAR I
ENCODING 73
SWIDTH 319 0
DWIDTH 10 0
BBX 6 23 2 0
BITMAP
FC
FC
FC
FC
FC
FC
FC
FC
FC
FC
FC
FC
FC
FC
FC
FC
FC
FC
FC
FC
FC
FC
FC
ENDCHAR
STARTCHAR J
ENCODING 74
SWIDTH 539 0
DWIDTH 17 0
BBX 15 23 0 0
BITMAP
3FFE
3FFE
3FFE
3FFE
3FFE
003E
003E
003E
003E
003E
003E
003E
003E
003E
003E
003E
207E
787E
7FFE
FFFC
7FFC
3FF8
0FE0
ENDCHAR
STARTCHAR K
ENCODING 75
SWIDTH 749 0
DWIDTH 24 0
BBX 22 23 2 0
BITMAP
FC03F8
FC07F0
FC0FE0
FC0FC0
FC1F80
FC3F80
FC7F00
FCFE00
FDFC00
FDF800
FFF800
FFFC00
FFFE00
FFFE00
FFFF00
FF3F80
FE3F80
FC1FC0
FC0FE0
FC0FE0
FC07F0
FC03F8
FC03FC
ENDCHAR
STARTCHAR L
ENCODING 76
SWIDTH 563 0
DWIDTH 18 0
BBX 16 23 2 0
BITMAP
FC00
FC00
FC00
FC00
FC00
FC00
FC00
FC00
FC00
FC00
FC00
FC00
FC00
FC00
FC00
FC00
FC00
FC00
FFFF
FFFF
FFFF
FFFF
FFFF
ENDCHAR
STARTCHAR M
ENCODING 77
SWIDTH 939 0
DWIDTH 30 0
BBX 26 23 2 0
BITMAP
FE001FC0
FE001FC0
FF003FC0
FF003FC0
FF807FC0
FF807FC0
FFC0FFC0
FFC0FFC0
FFE1FFC0
FBE1F7C0
FBF3F7C0
F9F3E7C0
F9FBE7C0
F8FFC7C0
F8FFC7C0
F87F87C0
F87F87C0
F83F07C0
F83F07C0
F81F07C0
F81E07C0
F80007C0
F80007C0
ENDCHAR
STARTCHAR N
ENCODING 78
SWIDTH 786 0
DWIDTH 25 0
BBX 21 23 2 0
BITMAP
FC01F8
FC00F8
FE00F8
FF00F8
FF80F8
FF80F8
FFC0F8
FFE0F8
FFF0F8
FFF0F8
FFF8F8
FDFCF8
FCFCF8
FC7EF8
FC7FF8
FC3FF8
FC1FF8
FC0FF8
FC0FF8
FC07F8
FC03F8
FC01F8
FC01F8
ENDCHAR
STARTCHAR O
ENCODING 79
SWIDTH 804 0
DWIDTH 26 0
BBX 24 23 1 0
BITMAP
00FF00
03FFC0
0FFFF0
1FFFF8
3FFFFC
7F81FC
7F00FE
FE007E
FC007F
FC003F
FC003F
FC003F
FC003F
FC003F
FC007F
FE007E
7F00FE
7F81FC
3FFFFC
1FFFF8
0FFFF0
03FFC0
00FE00
ENDCHAR
STARTCHAR P
ENCODING 80
SWIDTH 680 0
DWIDTH 22 0
BBX 19 23 2 0
BITMAP
FFFC00
FFFF00
FFFF80
FFFFC0
FFFFC0
FC0FE0
FC07E0
FC07E0
FC07E0
FC07E0
FC07E0
FC0FE0
FFFFC0
FFFFC0
FFFF80
FFFE00
FFF000
FC0000
FC0000
FC0000
FC0000
FC0000
FC0000
ENDCHAR
STARTCHAR Q
ENCODING 81
SWIDTH 808 0
DWIDTH 26 0
BBX 25 28 1 -5
BITMAP
00FF0000
03FFC000
0FFFF000
1FFFF800
3FFFFC00
7F81FC00
7F00FE00
FE007E00
FC007F00
FC003F00
FC003F00
FC003F00
FC003F00
FC003F00
FC007F00
FE007E00
7F00FE00
7F81FC00
3FFFFC00
1FFFF800
0FFFF000
07FFC000
00FF8200
000FFF00
000FFF80
0007FF80
0003FF00
0000F800
ENDCHAR
STARTCHAR R
ENCODING 82
SWIDTH 724 0
DWIDTH 23 0
BBX 20 23 2 0
BITMAP
FFFC00
FFFF00
FFFFC0
FFFFC0
FFFFE0
FC07E0
FC03E0
FC03F0
FC03F0
FC03F0
FC07E0
FC0FE0
FFFFE0
FFFFC0
FFFF80
FFFF00
FFFF00
FC1F80
FC1F80
FC0FC0
FC0FE0
FC07E0
FC07F0
ENDCHAR
STARTCHAR S
ENCODING 83
SWIDTH 646 0
DWIDTH 21 0
BBX 19 23 1 0
BITMAP
03FC00
0FFF80
1FFFE0
3FFFC0
7FFFC0
7E0780
7E0180
7F0000
7FC000
7FF800
3FFE00
1FFF80
07FFC0
00FFC0
001FE0
400FE0
7007E0
FC0FE0
FFFFC0
FFFFC0
7FFF80
1FFF00
03FC00
ENDCHAR
STARTCHAR T
ENCODING 84
SWIDTH 614 0
DWIDTH 20 0
BBX 19 23 0 0
BITMAP
FFFFE0
FFFFE0
FFFFE0
FFFFE0
FFFFE0
01F800
01F800
01F800
01F800
01F800
01F800
01F800
01F800
01F800
01F800
01F800
01F800
01F800
01F800
01F800
01F800
01F800
01F800
ENDCHAR
STARTCHAR U
ENCODING 85
SWIDTH 749 0
DWIDTH 24 0
BBX 20 23 2 0
BITMAP
FC03F0
FC03F0
FC03F0
FC03F0
FC03F0
FC03F0
FC03F0
FC03F0
FC03F0
FC03F0
FC03F0
FC03F0
FC03F0
FC03F0
FC03F0
FC03F0
FC07F0
7E07E0
7FFFE0
3FFFC0
1FFF80
0FFF00
03FC00
ENDCHAR
STARTCHAR V
ENCODING 86
SWIDTH 732 0
DWIDTH 23 0
BBX 23 23 0 0
BITMAP
FC007E
7E007E
7E007E
7E00FC
3F00FC
3F00F8
3F01F8
1F81F8
1F81F0
0F83F0
0FC3F0
0FC3E0
07C7E0
07E7C0
07E7C0
03EFC0
03FF80
01FF80
01FF00
01FF00
00FF00
00FE00
00FE00
ENDCHAR
STARTCHAR W
ENCODING 87
SWIDTH 1113 0
DWIDTH 36 0
BBX 36 23 0 0
BITMAP
FC01F803F0
FE01F807E0
7E03F807E0
7E03FC07E0
7E03FC0FC0
3F03FC0FC0
3F07FE0FC0
3F07FE0F80
1F07FE1F80
1F87BE1F80
1F8F9F1F00
0F8F9F1F00
0FCF1F3F00
0FCF1F3E00
07DF0FBE00
07DF0FBE00
07FE0FFC00
03FE07FC00
03FE07FC00
03FC07F800
01FC07F800
01FC03F800
01FC03F000
ENDCHAR
STARTCHAR X
ENCODING 88
SWIDTH 738 0
DWIDTH 24 0
BBX 23 23 0 0
BITMAP
7F00FE
3F01FC
3F83F8
1FC3F0
0FC7F0
0FEFE0
07EFC0
03FFC0
03FF80
01FF00
01FF00
00FF00
01FF00
01FF80
03FFC0
07FFC0
07EFE0
0FE7F0
1FC7F0
1F83F8
3F81FC
7F01FC
FE00FE
ENDCHAR
STARTCHAR Y
ENCODING 89
SWIDTH 684 0
DWIDTH 22 0
BBX 22 23 0 0
BITMAP
FC00FC
7E01F8
7E01F8
3F03F0
3F03F0
1F87E0
1F87E0
0FCFC0
0FCFC0
07FF80
07FF80
03FF00
03FF00
01FE00
01FE00
00FC00
00FC00
00FC00
00FC00
00FC00
00FC00
00FC00
00FC00
ENDCHAR
STARTCHAR Z
ENCODING 90
SWIDTH 676 0
DWIDTH 22 0
BBX 20 23 1 0
BITMAP
FFFFF0
FFFFF0
FFFFF0
FFFFF0
FFFFE0
001FC0
003F80
007F80
007F00
00FE00
01FC00
03F800
07F000
07F000
0FE000
1FC000
3F8000
7F0000
FFFFF0
FFFFF0
FFFFF0
FFFFF0
FFFFF0
ENDCHAR
STARTCHAR bracketleft
ENCODING 91
SWIDTH 359 0
DWIDTH 11 0
BBX 9 29 2 -4
BITMAP
FF80
FF80
FF80
FF80
FF80
F800
F800
F800
F800
F800
F800
F800
F800
F800
F800
F800
F800
F800
F800
F800
F800
F800
F800
F800
FF80
FF80
FF80
FF80
FF80
ENDCHAR
STARTCHAR backslash
ENCODING 92
SWIDTH 355 0
DWIDTH 11 0
BBX 16 31 -3 -4
BITMAP
F800
7C00
7C00
7C00
3E00
3E00
3E00
1F00
1F00
1F00
0F80
0F80
0F80
07C0
07C0
03C0
03E0
03E0
01E0
01F0
01F0
00F0
00F8
00F8
0078
007C
007C
003C
003E
003E
001F
ENDCHAR
STARTCHAR bracketright
ENCODING 93
SWIDTH 359 0
DWIDTH 11 0
BBX 9 29 0 -4
BITMAP
FF80
FF80
FF80
FF80
FF80
0F80
0F80
0F80
0F80
0F80
0F80
0F80
0F80
0F80
0F80
0F80
0F80
0F80
0F80
0F80
0F80
0F80
0F80
0F80
FF80
FF80
FF80
FF80
FF80
ENDCHAR
STARTCHAR asciicircum
ENCODING 94
SWIDTH 578 0
DWIDTH 19 0
BBX 17 13 1 5
BITMAP
03E000
07E000
07F000
0FF000
0F7000
0E7800
1E7800
1E3C00
3C3C00
3C1E00
781E00
780F00
F00F80
ENDCHAR
STARTCHAR underscore
ENCODING 95
SWIDTH 585 0
DWIDTH 19 0
BBX 19 3 0 -7
BITMAP
FFFFE0
FFFFE0
FFFFE0
ENDCHAR
STARTCHAR grave
ENCODING 96
SWIDTH 360 0
DWIDTH 12 0
BBX 8 5 1 20
BITMAP
1C
FC
7E
1F
0F
ENDCHAR
STARTCHAR a
ENCODING 97
SWIDTH 601 0
DWIDTH 19 0
BBX 17 18 1 0
BITMAP
07F000
3FFC00
7FFE00
3FFF00
3FFF00
203F00
001F80
1FFF80
7FFF80
7FFF80
FC1F80
F81F80
F81F80
FC7F80
FFFF80
7FFF80
7FDF80
1F9F80
ENDCHAR
STARTCHAR b
ENCODING 98
SWIDTH 686 0
DWIDTH 22 0
BBX 19 25 2 0
BITMAP
FC0000
FC0000
FC0000
FC0000
FC0000
FC0000
FC0000
FC7C00
FDFF00
FFFF80
FFFFC0
FFFFC0
FE0FE0
FE07E0
FC07E0
FC07E0
FC07E0
FC07E0
FE07E0
FE0FE0
FFFFC0
FFFFC0
FFFF80
FDFF00
FC7C00
ENDCHAR
STARTCHAR c
ENCODING 99
SWIDTH 562 0
DWIDTH 18 0
BBX 17 18 1 0
BITMAP
07F000
1FFC00
3FFE00
7FFF00
7FFF00
FE1C00
FC0800
FC0000
FC0000
FC0000
FC0000
FC0800
FE1C00
7FFF80
7FFF00
3FFE00
1FFC00
07F000
ENDCHAR
STARTCHAR d
ENCODING 100
SWIDTH 687 0
DWIDTH 22 0
BBX 19 24 1 0
BITMAP
0007E0
0007E0
0007E0
0007E0
0007E0
0007E0
07C7E0
1FF7E0
3FFFE0
7FFFE0
7FFFE0
FE0FE0
FC0FE0
FC07E0
FC07E0
FC07E0
FC07E0
FC0FE0
FE0FE0
7FFFE0
7FFFE0
3FFFE0
1FF7E0
07C7E0
ENDCHAR
STARTCHAR e
ENCODING 101
SWIDTH 603 0
DWIDTH 19 0
BBX 18 18 1 0
BITMAP
03F000
1FFC00
3FFE00
7FFF00
7FFF80
FC1F80
FC0F80
FFFF80
FFFFC0
FFFFC0
FC0000
FC0400
FE0C00
7FFE00
7FFF00
3FFF00
1FFC00
03F000
ENDCHAR
STARTCHAR f
ENCODING 102
SWIDTH 396 0
DWIDTH 13 0
BBX 12 25 1 0
BITMAP
00E0
07F0
1FF0
1FF0
3FF0
3F00
3F00
3F00
FFF0
FFF0
FFF0
FFF0
3F00
3F00
3F00
3F00
3F00
3F00
3F00
3F00
3F00
3F00
3F00
3F00
3F00
ENDCHAR
STARTCHAR g
ENCODING 103
SWIDTH 648 0
DWIDTH 21 0
BBX 18 24 1 -6
BITMAP
0FCFC0
1FEFC0
3FFFC0
7FFFC0
FFFFC0
FC1FC0
F80FC0
F80FC0
F80FC0
F80FC0
FC1FC0
FE3FC0
7FFFC0
7FFFC0
3FFFC0
1FEFC0
038FC0
000FC0
301F80
3FFF80
7FFF00
7FFE00
3FFC00
07F000
ENDCHAR
STARTCHAR h
ENCODING 104
SWIDTH 679 0
DWIDTH 22 0
BBX 18 24 2 0
BITMAP
FC0000
FC0000
FC0000
FC0000
FC0000
FC0000
FC7C00
FDFF00
FFFF80
FFFF80
FFFFC0
FE1FC0
FE0FC0
FC0FC0
FC0FC0
FC0FC0
FC0FC0
FC0FC0
FC0FC0
FC0FC0
FC0FC0
FC0FC0
FC0FC0
FC0FC0
ENDCHAR
STARTCHAR i
ENCODING 105
SWIDTH 313 0
DWIDTH 10 0
BBX 6 26 2 0
BITMAP
78
FC
FC
FC
FC
78
00
00
FC
FC
FC
FC
FC
FC
FC
FC
FC
FC
FC
FC
FC
FC
FC
FC
FC
FC
ENDCHAR
STARTCHAR j
ENCODING 106
SWIDTH 312 0
DWIDTH 10 0
BBX 10 32 -2 -6
BITMAP
0780
0FC0
0FC0
0FC0
0FC0
0780
0000
0000
0FC0
0FC0
0FC0
0FC0
0FC0
0FC0
0FC0
0FC0
0FC0
0FC0
0FC0
0FC0
0FC0
0FC0
0FC0
0FC0
0FC0
0FC0
0FC0
7FC0
7FC0
FF80
FF00
FE00
ENDCHAR
STARTCHAR k
ENCODING 107
SWIDTH 633 0
DWIDTH 20 0
BBX 18 24 2 0
BITMAP
FC0000
FC0000
FC0000
FC0000
FC0000
FC0000
FC1FC0
FC3F80
FC7F00
FCFE00
FCFC00
FDF800
FFF000
FFF000
FFF800
FFF800
FFFC00
FFFC00
FEFE00
FC7E00
FC3F00
FC3F80
FC1F80
FC1FC0
ENDCHAR
STARTCHAR l
ENCODING 108
SWIDTH 324 0
DWIDTH 10 0
BBX 6 24 2 0
BITMAP
FC
FC
FC
FC
FC
FC
FC
FC
FC
FC
FC
FC
FC
FC
FC
FC
FC
FC
FC
FC
FC
FC
FC
FC
ENDCHAR
STARTCHAR m
ENCODING 109
SWIDTH 1037 0
DWIDTH 33 0
BBX 29 18 2 0
BITMAP
FC7C0FC0
FDFF1FE0
FFFFBFF0
FFFFFFF8
FFFFFFF8
FE1FE1F8
FC0FC0F8
FC0FC0F8
FC0FC0F8
FC0FC0F8
FC0FC0F8
FC0FC0F8
FC0FC0F8
FC0FC0F8
FC0FC0F8
FC0FC0F8
FC0FC0F8
FC0FC0F8
ENDCHAR
STARTCHAR n
ENCODING 110
SWIDTH 674 0
DWIDTH 22 0
BBX 18 18 2 0
BITMAP
FC7C00
FDFF00
FFFF80
FFFF80
FFFFC0
FE1FC0
FC0FC0
FC0FC0
FC0FC0
FC0FC0
FC0FC0
FC0FC0
FC0FC0
FC0FC0
FC0FC0
FC0FC0
FC0FC0
FC0FC0
ENDCHAR
STARTCHAR o
ENCODING 111
SWIDTH 638 0
DWIDTH 20 0
BBX 19 18 1 0
BITMAP
03F800
0FFE00
3FFF00
7FFF80
7FFFC0
FE0FC0
FC0FC0
FC07E0
FC07E0
FC07E0
FC07E0
FC0FC0
FE0FC0
7FFFC0
7FFF80
3FFF00
0FFE00
03F800
ENDCHAR
STARTCHAR p
ENCODING 112
SWIDTH 686 0
DWIDTH 22 0
BBX 19 24 2 -6
BITMAP
FC7C00
FDFF00
FFFF80
FFFFC0
FFFFC0
FE0FE0
FE07E0
FC07E0
FC07E0
FC07E0
FC07E0
FE07E0
FE0FE0
FFFFC0
FFFFC0
FFFF80
FDFF00
FC7C00
FC0000
FC0000
FC0000
FC0000
FC0000
FC0000
ENDCHAR
STARTCHAR q
ENCODING 113
SWIDTH 687 0
DWIDTH 22 0
BBX 19 24 1 -6
BITMAP
07C7E0
1FF7E0
3FFFE0
7FFFE0
7FFFE0
FE0FE0
FC0FE0
FC07E0
FC07E0
FC07E0
FC07E0
FC0FE0
FE0FE0
7FFFE0
7FFFE0
3FFFE0
1FF7E0
07E7E0
0007E0
0007E0
0007E0
0007E0
0007E0
0007E0
ENDCHAR
STARTCHAR r
ENCODING 114
SWIDTH 430 0
DWIDTH 14 0
BBX 11 18 2 0
BITMAP
FC60
FDE0
FFE0
FFE0
FFE0
FF00
FE00
FC00
FC00
FC00
FC00
FC00
FC00
FC00
FC00
FC00
FC00
FC00
ENDCHAR
STARTCHAR s
ENCODING 115
SWIDTH 517 0
DWIDTH 17 0
BBX 15 18 1 0
BITMAP
0FE0
3FF8
7FFE
7FFC
FFFC
FC18
FC00
7F80
3FF0
1FF8
03FC
407E
607E
FFFE
FFFC
FFFC
7FF8
0FE0
ENDCHAR
STARTCHAR t
ENCODING 116
SWIDTH 437 0
DWIDTH 14 0
BBX 12 22 1 0
BITMAP
3F00
3F00
3F00
3F00
3F00
FFF0
FFF0
FFF0
FFF0
3F00
3F00
3F00
3F00
3F00
3F00
3F00
3F00
3FF0
3FF0
1FF0
0FF0
07E0
ENDCHAR
STARTCHAR u
ENCODING 117
SWIDTH 664 0
DWIDTH 21 0
BBX 17 18 2 0
BITMAP
F81F80
F81F80
F81F80
F81F80
F81F80
F81F80
F81F80
F81F80
F81F80
F81F80
F81F80
FC1F80
FC3F80
FFFF80
FFFF80
7FFF80
3FDF80
1F9F80
ENDCHAR
STARTCHAR v
ENCODING 118
SWIDTH 575 0
DWIDTH 18 0
BBX 19 18 0 0
BITMAP
FC07E0
FC0FC0
7C0FC0
7E0F80
7E0F80
3E1F80
3F1F00
1F1F00
1F3F00
1F3E00
0FBE00
0FBE00
0FFC00
07FC00
07F800
07F800
03F800
03F000
ENDCHAR
STARTCHAR w
ENCODING 119
SWIDTH 941 0
DWIDTH 30 0
BBX 30 18 0 0
BITMAP
FC0FC07C
FC0FC0FC
7C0FE0FC
7E1FE0F8
7E1FE0F8
3E1FE1F0
3E1FF1F0
3F3FF1F0
1F3EF3E0
1F3CFBE0
0FBCFBE0
0FFCFBC0
0FF87FC0
07F87FC0
07F87F80
07F83F80
03F03F80
03F03F00
ENDCHAR
STARTCHAR x
ENCODING 120
SWIDTH 611 0
DWIDTH 20 0
BBX 19 18 0 0
BITMAP
FE0FE0
7F0FC0
3F1FC0
1F9F80
1FBF00
0FFF00
0FFE00
07FC00
03FC00
03FC00
07FE00
0FFE00
0FFF00
1FBF80
3F9F80
3F1FC0
7E0FC0
FE07E0
ENDCHAR
STARTCHAR y
ENCODING 121
SWIDTH 584 0
DWIDTH 19 0
BBX 19 24 0 -6
BITMAP
FC07E0
FC07C0
7C0FC0
7E0FC0
7E0F80
3E0F80
3F1F00
1F1F00
1F9F00
0FBE00
0FBE00
0FFE00
07FC00
07FC00
03F800
03F800
03F800
01F000
23F000
7FE000
7FE000
FFC000
FF8000
3F0000
ENDCHAR
STARTCHAR z
ENCODING 122
SWIDTH 555 0
DWIDTH 18 0
BBX 16 18 1 0
BITMAP
FFFF
FFFF
FFFF
FFFF
FFFE
00FC
01F8
03F0
07E0
0FE0
1FC0
1F80
3F00
7FFF
FFFF
FFFF
FFFF
FFFF
ENDCHAR
STARTCHAR braceleft
ENCODING 123
SWIDTH 363 0
DWIDTH 12 0
BBX 10 29 1 -4
BITMAP
01C0
1FC0
1FC0
3FC0
3FC0
3F00
3E00
3E00
3E00
3E00
3E00
3E00
FE00
FC00
F800
FC00
FE00
3E00
3E00
3E00
3E00
3E00
3E00
3F00
3FC0
3FC0
3FC0
1FC0
0FC0
ENDCHAR
STARTCHAR bar
ENCODING 124
SWIDTH 302 0
DWIDTH 10 0
BBX 4 30 3 -4
BITMAP
F0
F0
F0
F0
F0
F0
F0
F0
F0
F0
F0
F0
F0
F0
F0
F0
F0
F0
F0
F0
F0
F0
F0
F0
F0
F0
F0
F0
F0
F0
ENDCHAR
STARTCHAR braceright
ENCODING 125
SWIDTH 363 0
DWIDTH 12 0
BBX 10 29 1 -4
BITMAP
E000
FC00
FE00
FE00
FE00
3E00
3E00
3E00
3E00
3E00
3E00
3E00
1FC0
1FC0
07C0
0FC0
1FC0
3F00
3E00
3E00
3E00
3E00
3E00
3E00
FE00
FE00
FE00
FE00
F800
ENDCHAR
STARTCHAR asciitilde
ENCODING 126
SWIDTH 511 0
DWIDTH 16 0
BBX 13 6 2 8
BITMAP
3878
7EF8
FFF0
FFF0
F7F0
F1E0
ENDCHAR
STARTCHAR uni00A0
ENCODING 160
SWIDTH 222 0
DWIDTH 7 0
BBX 1 1 0 0
BITMAP
00
ENDCHAR
STARTCHAR exclamdown
ENCODING 161
SWIDTH 258 0
DWIDTH 8 0
BBX 5 24 2 -6
BITMAP
70
F8
F8
F8
F8
70
00
00
00
70
F0
F0
F0
F8
F8
F8
F8
F8
F8
F8
F8
F8
F8
F8
ENDCHAR
STARTCHAR cent
ENCODING 162
SWIDTH 600 0
DWIDTH 19 0
BBX 17 28 1 -5
BITMAP
01E000
01E000
01E000
01E000
01E000
03E000
0FFC00
3FFE00
7FFF00
7FFF00
FE1E00
FC0800
FC0000
FC0000
FC0000
FC0000
FC0800
FE1E00
7FFF80
7FFF00
3FFE00
1FFC00
07F000
01E000
01E000
01E000
01E000
01E000
ENDCHAR
STARTCHAR sterling
ENCODING 163
SWIDTH 564 0
DWIDTH 18 0
BBX 17 23 1 0
BITMAP
01F800
07FE00
0FFF80
1FFF00
1FFF00
3F8600
3F0200
3F0000
3F0000
3F0000
3F0000
FFFC00
FFFC00
3F0000
3F0000
3F0000
3F0000
3F0000
FFFF00
FFFF00
FFFF00
FFFF00
FFFF00
ENDCHAR
STARTCHAR currency
ENCODING 164
SWIDTH 701 0
DWIDTH 22 0
BBX 21 21 1 0
BITMAP
300040
7800E0
F9F9F0
FFFFF8
7FFFE0
3FFFC0
1FFFC0
3F07C0
3E03C0
3C03C0
3C03E0
3C03C0
3E03C0
3F07C0
1FFFC0
3FFFC0
7FFFE0
FFFFF0
FDF9F8
7800E0
300040
ENDCHAR
STARTCHAR yen
ENCODING 165
SWIDTH 694 0
DWIDTH 22 0
BBX 22 23 0 0
BITMAP
FC00FC
7E00F8
7E01F8
3F03F0
3F03F0
1F87E0
1F87E0
0FCFC0
07EFC0
07FF80
03FF80
03FF00
3FFFF0
3FFFF0
00FE00
00FC00
3FFFF0
3FFFF0
00FC00
00FC00
00FC00
00FC00
00FC00
ENDCHAR
STARTCHAR brokenbar
ENCODING 166
SWIDTH 302 0
DWIDTH 10 0
BBX 4 30 3 -4
BITMAP
F0
F0
F0
F0
F0
F0
F0
F0
F0
F0
F0
00
00
00
00
00
00
00
00
F0
F0
F0
F0
F0
F0
F0
F0
F0
F0
F0
ENDCHAR
STARTCHAR section
ENCODING 167
SWIDTH 549 0
DWIDTH 18 0
BBX 16 26 1 -3
BITMAP
07F0
1FFC
3FFE
7FFE
7E1C
7C04
7E00
3FC0
1FF8
3FFC
7FFE
FFFF
F83F
F83F
FFFF
7FFE
7FFC
1FF8
07FC
00FE
407E
F87E
FFFC
FFFC
7FF8
0FE0
ENDCHAR
STARTCHAR dieresis
ENCODING 168
SWIDTH 426 0
DWIDTH 14 0
BBX 11 5 2 20
BITMAP
6180
F3C0
F3E0
F3C0
E1C0
ENDCHAR
STARTCHAR copyright
ENCODING 169
SWIDTH 723 0
DWIDTH 23 0
BBX 21 23 1 0
BITMAP
00F800
07FF00
0FFF80
1F07C0
3C01E0
7800F0
700070
E0FC38
E1FE38
E38C18
C70018
C70018
C70018
E70018
E38C38
E3FE38
71FC70
7870F0
3C01E0
1E03C0
0FFF80
07FF00
01FC00
ENDCHAR
STARTCHAR ordfeminine
ENCODING 170
SWIDTH 394 0
DWIDTH 13 0
BBX 10 10 1 16
BITMAP
3F00
7FC0
7FC0
03C0
7FC0
FFC0
E1C0
E3C0
FFC0
7DC0
ENDCHAR
STARTCHAR guillemotleft
ENCODING 171
SWIDTH 506 0
DWIDTH 16 0
BBX 16 12 0 3
BITMAP
0F1F
1F3E
3E7C
3E7C
7CF8
F8F8
F9F8
7CF8
3C7C
3E7C
1F3E
0F1F
ENDCHAR
STARTCHAR logicalnot
ENCODING 172
SWIDTH 580 0
DWIDTH 19 0
BBX 16 10 1 4
BITMAP
FFFF
FFFF
FFFF
FFFF
001F
001F
001F
001F
001F
001F
ENDCHAR
STARTCHAR uni00AD
ENCODING 173
SWIDTH 375 0
DWIDTH 12 0
BBX 8 4 2 8
BITMAP
FF
FF
FF
FF
ENDCHAR
STARTCHAR registered
ENCODING 174
SWIDTH 723 0
DWIDTH 23 0
BBX 21 23 1 0
BITMAP
00F800
07FF00
0FFF80
1F07C0
3C01E0
7800F0
73F870
E3FC38
E38E38
E38618
C38618
C38E18
C3FC18
E3F818
E39C38
E38E38
738E70
7800F0
3C01E0
1E03C0
0FFF80
07FF00
01FC00
ENDCHAR
STARTCHAR macron
ENCODING 175
SWIDTH 344 0
DWIDTH 11 0
BBX 10 3 1 21
BITMAP
FFC0
FFC0
FFC0
ENDCHAR
STARTCHAR degree
ENCODING 176
SWIDTH 377 0
DWIDTH 12 0
BBX 7 8 3 19
BITMAP
38
7C
EE
C6
C6
EE
7C
38
ENDCHAR
STARTCHAR plusminus
ENCODING 177
SWIDTH 511 0
DWIDTH 16 0
BBX 14 20 1 0
BITMAP
0780
0780
0780
0780
0780
FFFC
FFFC
FFFC
FFFC
0780
0780
0780
0780
0780
0000
0000
FFFC
FFFC
FFFC
FFFC
ENDCHAR
STARTCHAR uni00B2
ENCODING 178
SWIDTH 380 0
DWIDTH 12 0
BBX 11 14 0 12
BITMAP
1F80
7FC0
FFE0
71E0
41E0
03E0
07C0
0F80
1F00
1E00
3C00
7FE0
7FE0
7FE0
ENDCHAR
STARTCHAR uni00B3
ENCODING 179
SWIDTH 370 0
DWIDTH 12 0
BBX 11 14 0 11
BITMAP
7FE0
7FE0
7FC0
0780
0F00
1E00
1FC0
1FE0
01E0
41E0
61E0
7FE0
FFC0
1F00
ENDCHAR
STARTCHAR acute
ENCODING 180
SWIDTH 350 0
DWIDTH 11 0
BBX 9 5 1 20
BITMAP
0C00
1F80
3F00
7C00
F800
ENDCHAR
STARTCHAR uni00B5
ENCODING 181
SWIDTH 685 0
DWIDTH 22 0
BBX 18 24 2 -6
BITMAP
FC0FC0
FC0FC0
FC0FC0
FC0FC0
FC0FC0
FC0FC0
FC0FC0
FC0FC0
FC0FC0
FC0FC0
FC0FC0
FC1FC0
FE3FC0
FFFFC0
FFFFC0
FFFFC0
FFEFC0
FFCFC0
FC0000
FC0000
FC0000
FC0000
FC0000
FC0000
ENDCHAR
STARTCHAR paragraph
ENCODING 182
SWIDTH 653 0
DWIDTH 21 0
BBX 19 27 0 -3
BITMAP
0FFFE0
3FFFE0
7FFFE0
7FE3E0
FFE3E0
FFE3E0
FFE3E0
FFE3E0
FFE3E0
FFE3E0
7FE3E0
7FE3E0
3FE3E0
03E3E0
01E3E0
01E3E0
01E3E0
01E3E0
01E3E0
01E3E0
01E3E0
01E3E0
01E3E0
01E3E0
01E3E0
01E3E0
01E3E0
ENDCHAR
STARTCHAR periodcentered
ENCODING 183
SWIDTH 235 0
DWIDTH 8 0
BBX 6 6 1 7
BITMAP
70
F8
FC
FC
F8
70
ENDCHAR
STARTCHAR cedilla
ENCODING 184
SWIDTH 321 0
DWIDTH 10 0
BBX 8 8 2 -8
BITMAP
3C
38
3C
7E
0F
7E
FE
FC
ENDCHAR
STARTCHAR uni00B9
ENCODING 185
SWIDTH 261 0
DWIDTH 8 0
BBX 7 14 0 12
BITMAP
FE
FE
FE
1E
1E
1E
1E
1E
1E
1E
1E
1E
1E
1E
ENDCHAR
STARTCHAR ordmasculine
ENCODING 186
SWIDTH 414 0
DWIDTH 13 0
BBX 12 11 1 15
BITMAP
1F00
7FC0
FFE0
F1E0
F0F0
F0F0
F0F0
F1E0
FFE0
7FC0
1F00
ENDCHAR
STARTCHAR guillemotright
ENCODING 187
SWIDTH 511 0
DWIDTH 16 0
BBX 15 12 1 3
BITMAP
F1F0
F8F0
7CF8
7C7C
3E7C
1F3E
1F3E
3E7C
3C7C
7CF8
F8F0
F1F0
ENDCHAR
STARTCHAR onequarter
ENCODING 188
SWIDTH 844 0
DWIDTH 27 0
BBX 27 23 0 0
BITMAP
FE003C00
FE007800
FE007800
1E00F000
1E01E000
1E01E000
1E03C000
1E078000
1E0F0000
1E0F1E00
1E1E3C00
1E3C3C00
1E3C7800
00787800
00F0F780
00F0F780
01E1E780
03C1FFE0
03C1FFE0
0781FFE0
0F000780
1E000780
3E000780
ENDCHAR
STARTCHAR onehalf
ENCODING 189
SWIDTH 885 0
DWIDTH 28 0
BBX 27 23 0 0
BITMAP
FE003C00
FE007800
FE007800
1E00F000
1E01E000
1E01E000
1E03C000
1E078000
1E0F0000
1E0F1F80
1E1E7FC0
1E3CFFE0
1E3C71E0
007821E0
00F003E0
00F007C0
01E00780
03C00F00
03C01E00
07803C00
0F007FE0
1E007FE0
3E007FE0
ENDCHAR
STARTCHAR threequarters
ENCODING 190
SWIDTH 922 0
DWIDTH 30 0
BBX 30 23 0 0
BITMAP
7FE00780
7FE00F00
7FC01E00
07803C00
0F003C00
1E007800
1FC0F000
1FE0F000
01E1E000
41E3C780
61E3C780
7FE78F00
FFCF0F00
1F0F1E00
001E1EF0
003C3CF0
00783CF0
00787FFC
00F07FFC
01E07FFC
01E000F0
03C000F0
078000F0
ENDCHAR
STARTCHAR questiondown
ENCODING 191
SWIDTH 474 0
DWIDTH 15 0
BBX 14 24 0 -6
BITMAP
0380
07C0
07E0
07E0
07C0
03C0
0000
0000
03C0
03C0
07C0
0F80
1F80
3F00
7E00
7C00
FC3C
FC3C
FC7C
FFFC
7FF8
7FF8
3FF0
0380
ENDCHAR
STARTCHAR Agrave
ENCODING 192
SWIDTH 773 0
DWIDTH 25 0
BBX 25 30 0 0
BITMAP
00700000
01F80000
00F80000
007C0000
003E0000
00000000
00000000
007F0000
007F0000
00FF8000
00FF8000
00FF8000
01FFC000
01FFC000
03F7E000
03E7E000
07E3E000
07E3F000
07C3F000
0FC1F800
0FC1F800
1FFFF800
1FFFFC00
1FFFFC00
3FFFFE00
3FFFFE00
7E007E00
7E003F00
FC003F00
FC003F80
ENDCHAR
STARTCHAR Aacute
ENCODING 193
SWIDTH 773 0
DWIDTH 25 0
BBX 25 30 0 0
BITMAP
00060000
000FC000
001F8000
001F0000
007C0000
00000000
00000000
007F0000
007F0000
00FF8000
00FF8000
00FF8000
01FFC000
01FFC000
03F7E000
03E7E000
07E3E000
07E3F000
07C3F000
0FC1F800
0FC1F800
1FFFF800
1FFFFC00
1FFFFC00
3FFFFE00
3FFFFE00
7E007E00
7E003F00
FC003F00
FC003F80
ENDCHAR
STARTCHAR Acircumflex
ENCODING 194
SWIDTH 773 0
DWIDTH 25 0
BBX 25 30 0 0
BITMAP
003E0000
007F0000
00FF8000
01F78000
03E3C000
00000000
00000000
007F0000
007F0000
00FF8000
00FF8000
00FF8000
01FFC000
01FFC000
03F7E000
03E7E000
07E3E000
07E3F000
07C3F000
0FC1F800
0FC1F800
1FFFF800
1FFFFC00
1FFFFC00
3FFFFE00
3FFFFE00
7E007E00
7E003F00
FC003F00
FC003F80
ENDCHAR
STARTCHAR Atilde
ENCODING 195
SWIDTH 773 0
DWIDTH 25 0
BBX 25 30 0 0
BITMAP
00F1C000
01FFC000
01FFC000
01FFC000
01C78000
00000000
00000000
007F0000
007F0000
00FF8000
00FF8000
00FF8000
01FFC000
01FFC000
03F7E000
03E7E000
07E3E000
07E3F000
07C3F000
0FC1F800
0FC1F800
1FFFF800
1FFFFC00
1FFFFC00
3FFFFE00
3FFFFE00
7E007E00
7E003F00
FC003F00
FC003F80
ENDCHAR
STARTCHAR Adieresis
ENCODING 196
SWIDTH 773 0
DWIDTH 25 0
BBX 25 30 0 0
BITMAP
00C30000
01E7C000
01F7C000
01F7C000
00E38000
00000000
00000000
007F0000
007F0000
00FF8000
00FF8000
00FF8000
01FFC000
01FFC000
03F7E000
03E7E000
07E3E000
07E3F000
07C3F000
0FC1F800
0FC1F800
1FFFF800
1FFFFC00
1FFFFC00
3FFFFE00
3FFFFE00
7E007E00
7E003F00
FC003F00
FC003F80
ENDCHAR
STARTCHAR Aring
ENCODING 197
SWIDTH 773 0
DWIDTH 25 0
BBX 25 32 0 0
BITMAP
001C0000
007E0000
00770000
00630000
00630000
00770000
007E0000
001C0000
00000000
007F0000
007F0000
00FF8000
00FF8000
00FF8000
01FFC000
01FFC000
03F7E000
03E7E000
07E3E000
07E3F000
07C3F000
0FC1F800
0FC1F800
1FFFF800
1FFFFC00
1FFFFC00
3FFFFE00
3FFFFE00
7E007E00
7E003F00
FC003F00
FC003F80
ENDCHAR
STARTCHAR AE
ENCODING 198
SWIDTH 1106 0
DWIDTH 35 0
BBX 34 23 0 0
BITMAP
000FFFFFC0
000FFFFFC0
001FFFFFC0
001FFFFFC0
003FFFFFC0
007EFC0000
007CFC0000
00FCFC0000
00F8FC0000
01F8FFFF80
01F0FFFF80
03F0FFFF80
03E0FFFF80
07E0FFFF80
07FFFC0000
0FFFFC0000
1FFFFC0000
1FFFFC0000
3FFFFFFFC0
3F00FFFFC0
7E00FFFFC0
7E00FFFFC0
FC00FFFFC0
ENDCHAR
STARTCHAR Ccedilla
ENCODING 199
SWIDTH 692 0
DWIDTH 22 0
BBX 21 31 1 -8
BITMAP
00FE00
03FFC0
0FFFE0
1FFFF8
3FFFF0
7F81E0
7F00E0
FE0040
FC0000
FC0000
FC0000
FC0000
FC0000
FC0000
FC0000
FE0000
7F00C0
7F81E0
3FFFF0
3FFFF8
1FFFF0
0FFFC0
03FF80
007800
007000
007800
007C00
001E00
00FE00
01FC00
00F800
ENDCHAR
STARTCHAR Egrave
ENCODING 200
SWIDTH 675 0
DWIDTH 22 0
BBX 18 30 2 0
BITMAP
038000
0FC000
07C000
03E000
01E000
000000
000000
FFFFC0
FFFFC0
FFFFC0
FFFFC0
FFFFC0
FC0000
FC0000
FC0000
FC0000
FFFF80
FFFF80
FFFF80
FFFF80
FFFF80
FC0000
FC0000
FC0000
FC0000
FFFFC0
FFFFC0
FFFFC0
FFFFC0
FFFFC0
ENDCHAR
STARTCHAR Eacute
ENCODING 201
SWIDTH 675 0
DWIDTH 22 0
BBX 18 30 2 0
BITMAP
003000
007E00
00FC00
01F000
03E000
000000
000000
FFFFC0
FFFFC0
FFFFC0
FFFFC0
FFFFC0
FC0000
FC0000
FC0000
FC0000
FFFF80
FFFF80
FFFF80
FFFF80
FFFF80
FC0000
FC0000
FC0000
FC0000
FFFFC0
FFFFC0
FFFFC0
FFFFC0
FFFFC0
ENDCHAR
STARTCHAR Ecircumflex
ENCODING 202
SWIDTH 675 0
DWIDTH 22 0
BBX 18 30 2 0
BITMAP
01F000
03F800
07F800
0FBC00
1F1E00
000000
000000
FFFFC0
FFFFC0
FFFFC0
FFFFC0
FFFFC0
FC0000
FC0000
FC0000
FC0000
FFFF80
FFFF80
FFFF80
FFFF80
FFFF80
FC0000
FC0000
FC0000
FC0000
FFFFC0
FFFFC0
FFFFC0
FFFFC0
FFFFC0
ENDCHAR
STARTCHAR Edieresis
ENCODING 203
SWIDTH 675 0
DWIDTH 22 0
BBX 18 30 2 0
BITMAP
061800
0F3C00
0FBE00
0F3E00
071C00
000000
000000
FFFFC0
FFFFC0
FFFFC0
FFFFC0
FFFFC0
FC0000
FC0000
FC0000
FC0000
FFFF80
FFFF80
FFFF80
FFFF80
FFFF80
FC0000
FC0000
FC0000
FC0000
FFFFC0
FFFFC0
FFFFC0
FFFFC0
FFFFC0
ENDCHAR
STARTCHAR Igrave
ENCODING 204
SWIDTH 319 0
DWIDTH 10 0
BBX 8 30 0 0
BITMAP
38
FC
7C
3E
1F
00
00
3F
3F
3F
3F
3F
3F
3F
3F
3F
3F
3F
3F
3F
3F
3F
3F
3F
3F
3F
3F
3F
3F
3F
ENDCHAR
STARTCHAR Iacute
ENCODING 205
SWIDTH 319 0
DWIDTH 10 0
BBX 9 30 2 0
BITMAP
1C00
1F80
3F00
7C00
F800
0000
0000
FC00
FC00
FC00
FC00
FC00
FC00
FC00
FC00
FC00
FC00
FC00
FC00
FC00
FC00
FC00
FC00
FC00
FC00
FC00
FC00
FC00
FC00
FC00
ENDCHAR
STARTCHAR Icircumflex
ENCODING 206
SWIDTH 319 0
DWIDTH 10 0
BBX 12 30 -1 0
BITMAP
1F80
1FC0
3FC0
7DE0
F8F0
0000
0000
1F80
1F80
1F80
1F80
1F80
1F80
1F80
1F80
1F80
1F80
1F80
1F80
1F80
1F80
1F80
1F80
1F80
1F80
1F80
1F80
1F80
1F80
1F80
ENDCHAR
STARTCHAR Idieresis
ENCODING 207
SWIDTH 319 0
DWIDTH 10 0
BBX 11 30 0 0
BITMAP
6180
F3C0
FBE0
F3E0
F1C0
0000
0000
3F00
3F00
3F00
3F00
3F00
3F00
3F00
3F00
3F00
3F00
3F00
3F00
3F00
3F00
3F00
3F00
3F00
3F00
3F00
3F00
3F00
3F00
3F00
ENDCHAR
STARTCHAR Eth
ENCODING 208
SWIDTH 766 0
DWIDTH 25 0
BBX 24 23 0 0
BITMAP
3FFF00
3FFFC0
3FFFF0
3FFFF8
3FFFFC
3F01FC
3F00FE
3F007E
3F007E
3F003F
FFF83F
FFF83F
FFF83F
3F003F
3F007E
3F007E
3F00FE
3F01FC
3FFFFC
3FFFF8
3FFFF0
3FFFC0
3FFE00
ENDCHAR
STARTCHAR Ntilde
ENCODING 209
SWIDTH 786 0
DWIDTH 25 0
BBX 21 30 2 0
BITMAP
01C780
03FF80
07FF00
07FF00
071E00
000000
000000
FC01F8
FC00F8
FE00F8
FF00F8
FF80F8
FF80F8
FFC0F8
FFE0F8
FFF0F8
FFF0F8
FFF8F8
FDFCF8
FCFCF8
FC7EF8
FC7FF8
FC3FF8
FC1FF8
FC0FF8
FC0FF8
FC07F8
FC03F8
FC01F8
FC01F8
ENDCHAR
STARTCHAR Ograve
ENCODING 210
SWIDTH 804 0
DWIDTH 26 0
BBX 24 30 1 0
BITMAP
007000
03F000
01F800
007C00
003C00
000000
000000
00FF00
03FFC0
0FFFF0
1FFFF8
3FFFFC
7F81FC
7F00FE
FE007E
FC007F
FC003F
FC003F
FC003F
FC003F
FC003F
FC007F
FE007E
7F00FE
7F81FC
3FFFFC
1FFFF8
0FFFF0
03FFC0
00FE00
ENDCHAR
STARTCHAR Oacute
ENCODING 211
SWIDTH 804 0
DWIDTH 26 0
BBX 24 30 1 0
BITMAP
000E00
001FC0
001F00
003E00
007C00
000000
000000
00FF00
03FFC0
0FFFF0
1FFFF8
3FFFFC
7F81FC
7F00FE
FE007E
FC007F
FC003F
FC003F
FC003F
FC003F
FC003F
FC007F
FE007E
7F00FE
7F81FC
3FFFFC
1FFFF8
0FFFF0
03FFC0
00FE00
ENDCHAR
STARTCHAR Ocircumflex
ENCODING 212
SWIDTH 804 0
DWIDTH 26 0
BBX 24 30 1 0
BITMAP
007E00
00FE00
00FF00
01EF80
03C780
000000
000000
00FF00
03FFC0
0FFFF0
1FFFF8
3FFFFC
7F81FC
7F00FE
FE007E
FC007F
FC003F
FC003F
FC003F
FC003F
FC003F
FC007F
FE007E
7F00FE
7F81FC
3FFFFC
1FFFF8
0FFFF0
03FFC0
00FE00
ENDCHAR
STARTCHAR Otilde
ENCODING 213
SWIDTH 804 0
DWIDTH 26 0
BBX 24 30 1 0
BITMAP
00E3C0
01FFC0
03FF80
03FF80
03C700
000000
000000
00FF00
03FFC0
0FFFF0
1FFFF8
3FFFFC
7F81FC
7F00FE
FE007E
FC007F
FC003F
FC003F
FC003F
FC003F
FC003F
FC007F
FE007E
7F00FE
7F81FC
3FFFFC
1FFFF8
0FFFF0
03FFC0
00FE00
ENDCHAR
STARTCHAR Odieresis
ENCODING 214
SWIDTH 804 0
DWIDTH 26 0
BBX 24 30 1 0
BITMAP
00C300
01E780
03EF80
01E780
01C780
000000
000000
00FF00
03FFC0
0FFFF0
1FFFF8
3FFFFC
7F81FC
7F00FE
FE007E
FC007F
FC003F
FC003F
FC003F
FC003F
FC003F
FC007F
FE007E
7F00FE
7F81FC
3FFFFC
1FFFF8
0FFFF0
03FFC0
00FE00
ENDCHAR
STARTCHAR multiply
ENCODING 215
SWIDTH 511 0
DWIDTH 16 0
BBX 13 13 2 4
BITMAP
2060
70F0
F9F8
7FE0
3FC0
1F80
1F80
3FC0
7FE0
FDF0
F8F8
7060
2040
ENDCHAR
STARTCHAR Oslash
ENCODING 216
SWIDTH 804 0
DWIDTH 26 0
BBX 24 26 1 -1
BITMAP
00003C
000078
00FF70
03FFF0
0FFFF0
1FFFF8
3FFFFC
7F83FC
7F07FE
FE0F7E
FC0E7F
FC1E3F
FC1C3F
FC3C3F
FC783F
FC783F
FCF07F
FEE07E
7FE0FE
7FC1FC
3FFFFC
1FFFF8
0FFFF0
0FFFC0
1EFE00
3C0000
ENDCHAR
STARTCHAR Ugrave
ENCODING 217
SWIDTH 749 0
DWIDTH 24 0
BBX 20 30 2 0
BITMAP
01C000
0FC000
03E000
01F000
00F800
000000
000000
FC03F0
FC03F0
FC03F0
FC03F0
FC03F0
FC03F0
FC03F0
FC03F0
FC03F0
FC03F0
FC03F0
FC03F0
FC03F0
FC03F0
FC03F0
FC03F0
FC07F0
7E07E0
7FFFE0
3FFFC0
1FFF80
0FFF00
03FC00
ENDCHAR
STARTCHAR Uacute
ENCODING 218
SWIDTH 749 0
DWIDTH 24 0
BBX 20 30 2 0
BITMAP
003800
003F00
007C00
00F800
01F000
000000
000000
FC03F0
FC03F0
FC03F0
FC03F0
FC03F0
FC03F0
FC03F0
FC03F0
FC03F0
FC03F0
FC03F0
FC03F0
FC03F0
FC03F0
FC03F0
FC03F0
FC07F0
7E07E0
7FFFE0
3FFFC0
1FFF80
0FFF00
03FC00
ENDCHAR
STARTCHAR Ucircumflex
ENCODING 219
SWIDTH 749 0
DWIDTH 24 0
BBX 20 30 2 0
BITMAP
01F800
01F800
03FC00
07DE00
0F9F00
000000
000000
FC03F0
FC03F0
FC03F0
FC03F0
FC03F0
FC03F0
FC03F0
FC03F0
FC03F0
FC03F0
FC03F0
FC03F0
FC03F0
FC03F0
FC03F0
FC03F0
FC07F0
7E07E0
7FFFE0
3FFFC0
1FFF80
0FFF00
03FC00
ENDCHAR
STARTCHAR Udieresis
ENCODING 220
SWIDTH 749 0
DWIDTH 24 0
BBX 20 30 2 0
BITMAP
030C00
079E00
0F9F00
079E00
078E00
000000
000000
FC03F0
FC03F0
FC03F0
FC03F0
FC03F0
FC03F0
FC03F0
FC03F0
FC03F0
FC03F0
FC03F0
FC03F0
FC03F0
FC03F0
FC03F0
FC03F0
FC07F0
7E07E0
7FFFE0
3FFFC0
1FFF80
0FFF00
03FC00
ENDCHAR
STARTCHAR Yacute
ENCODING 221
SWIDTH 684 0
DWIDTH 22 0
BBX 22 30 0 0
BITMAP
001C00
001F80
003E00
007C00
00F800
000000
000000
FC00FC
7E01F8
7E01F8
3F03F0
3F03F0
1F87E0
1F87E0
0FCFC0
0FCFC0
07FF80
07FF80
03FF00
03FF00
01FE00
01FE00
00FC00
00FC00
00FC00
00FC00
00FC00
00FC00
00FC00
00FC00
ENDCHAR
STARTCHAR Thorn
ENCODING 222
SWIDTH 689 0
DWIDTH 22 0
BBX 19 23 2 0
BITMAP
FC0000
FC0000
FC0000
FFFC00
FFFF00
FFFF80
FFFFC0
FFFFE0
FC0FE0
FC07E0
FC07E0
FC07E0
FC07E0
FC07E0
FC0FE0
FFFFC0
FFFFC0
FFFF80
FFFE00
FFF000
FC0000
FC0000
FC0000
ENDCHAR
STARTCHAR germandbls
ENCODING 223
SWIDTH 663 0
DWIDTH 21 0
BBX 18 25 2 0
BITMAP
01E000
0FFC00
3FFE00
7FFF00
7FFF00
FE3F80
FC1F80
FC1F80
F81F80
F81F00
F8FF00
F8FE00
F8FE00
F8FF00
F8FF80
F81FC0
F80FC0
F807C0
F80FC0
F80FC0
F8FFC0
F8FF80
F8FF00
F8FE00
F8F800
ENDCHAR
STARTCHAR agrave
ENCODING 224
SWIDTH 601 0
DWIDTH 19 0
BBX 17 25 1 0
BITMAP
030000
1F8000
0FC000
07C000
03E000
000000
000000
07F000
3FFC00
7FFE00
3FFF00
3FFF00
203F00
001F80
1FFF80
7FFF80
7FFF80
FC1F80
F81F80
F81F80
FC7F80
FFFF80
7FFF80
7FDF80
1F9F80
ENDCHAR
STARTCHAR aacute
ENCODING 225
SWIDTH 601 0
DWIDTH 19 0
BBX 17 25 1 0
BITMAP
007000
00FC00
01F800
01F000
03E000
000000
000000
07F000
3FFC00
7FFE00
3FFF00
3FFF00
203F00
001F80
1FFF80
7FFF80
7FFF80
FC1F80
F81F80
F81F80
FC7F80
FFFF80
7FFF80
7FDF80
1F9F80
ENDCHAR
STARTCHAR acircumflex
ENCODING 226
SWIDTH 601 0
DWIDTH 19 0
BBX 17 25 1 0
BITMAP
03E000
07F000
0FF800
0F7800
1E3E00
000000
000000
07F000
3FFC00
7FFE00
3FFF00
3FFF00
203F00
001F80
1FFF80
7FFF80
7FFF80
FC1F80
F81F80
F81F80
FC7F80
FFFF80
7FFF80
7FDF80
1F9F80
ENDCHAR
STARTCHAR atilde
ENCODING 227
SWIDTH 601 0
DWIDTH 19 0
BBX 17 25 1 0
BITMAP
0F1C00
0FFC00
1FFC00
1FFC00
1C7800
000000
000000
07F000
3FFC00
7FFE00
3FFF00
3FFF00
203F00
001F80
1FFF80
7FFF80
7FFF80
FC1F80
F81F80
F81F80
FC7F80
FFFF80
7FFF80
7FDF80
1F9F80
ENDCHAR
STARTCHAR adieresis
ENCODING 228
SWIDTH 601 0
DWIDTH 19 0
BBX 17 25 1 0
BITMAP
061800
1F7C00
1F7C00
1F7C00
0E3800
000000
000000
07F000
3FFC00
7FFE00
3FFF00
3FFF00
203F00
001F80
1FFF80
7FFF80
7FFF80
FC1F80
F81F80
F81F80
FC7F80
FFFF80
7FFF80
7FDF80
1F9F80
ENDCHAR
STARTCHAR aring
ENCODING 229
SWIDTH 601 0
DWIDTH 19 0
BBX 17 27 1 0
BITMAP
01C000
03F000
077000
063000
063000
077000
03F000
01C000
000000
07F000
3FFC00
7FFE00
3FFF00
3FFF00
203F00
001F80
1FFF80
7FFF80
7FFF80
FC1F80
F81F80
F81F80
FC7F80
FFFF80
7FFF80
7FDF80
1F9F80
ENDCHAR
STARTCHAR ae
ENCODING 230
SWIDTH 965 0
DWIDTH 31 0
BBX 29 18 1 0
BITMAP
07F07E00
3FFCFFC0
7FFFFFE0
7FFFFFF0
3FFFFFF0
203FC1F8
001F81F8
0FFFFFF8
3FFFFFF8
7FFFFFF8
FC1F8000
F81F8000
F81FC0C0
FC3FFFE0
FFFFFFF0
7FF3FFE0
3FE1FFC0
1F807F00
ENDCHAR
STARTCHAR ccedilla
ENCODING 231
SWIDTH 562 0
DWIDTH 18 0
BBX 17 26 1 -8
BITMAP
03F000
1FFC00
3FFE00
7FFF00
7FFF00
FE1C00
FC0800
FC0000
FC0000
FC0000
FC0000
FC0800
FE0C00
7FFF00
7FFF80
3FFF00
1FFE00
0FF800
01C000
03C000
03E000
01F000
00F000
07F000
07F000
0FC000
ENDCHAR
STARTCHAR egrave
ENCODING 232
SWIDTH 603 0
DWIDTH 19 0
BBX 18 25 1 0
BITMAP
030000
1F8000
0FC000
07C000
03E000
000000
000000
03F000
1FFC00
3FFE00
7FFF00
7FFF80
FC1F80
FC0F80
FFFF80
FFFFC0
FFFFC0
FC0000
FC0400
FE0C00
7FFE00
7FFF00
3FFF00
1FFC00
03F000
ENDCHAR
STARTCHAR eacute
ENCODING 233
SWIDTH 603 0
DWIDTH 19 0
BBX 18 25 1 0
BITMAP
007000
00FC00
00F800
01F000
03E000
000000
000000
03F000
1FFC00
3FFE00
7FFF00
7FFF80
FC1F80
FC0F80
FFFF80
FFFFC0
FFFFC0
FC0000
FC0400
FE0C00
7FFE00
7FFF00
3FFF00
1FFC00
03F000
ENDCHAR
STARTCHAR ecircumflex
ENCODING 234
SWIDTH 603 0
DWIDTH 19 0
BBX 18 25 1 0
BITMAP
03E000
07F000
0FF800
0F7C00
1E3E00
000000
000000
03F000
1FFC00
3FFE00
7FFF00
7FFF80
FC1F80
FC0F80
FFFF80
FFFFC0
FFFFC0
FC0000
FC0400
FE0C00
7FFE00
7FFF00
3FFF00
1FFC00
03F000
ENDCHAR
STARTCHAR edieresis
ENCODING 235
SWIDTH 603 0
DWIDTH 19 0
BBX 18 25 1 0
BITMAP
061800
1F3C00
1F7C00
1F7C00
0E3800
000000
000000
03F000
1FFC00
3FFE00
7FFF00
7FFF80
FC1F80
FC0F80
FFFF80
FFFFC0
FFFFC0
FC0000
FC0400
FE0C00
7FFE00
7FFF00
3FFF00
1FFC00
03F000
ENDCHAR
STARTCHAR igrave
ENCODING 236
SWIDTH 313 0
DWIDTH 10 0
BBX 9 25 -1 0
BITMAP
1C00
FC00
3E00
1F00
0F80
0000
0000
1F80
1F80
1F80
1F80
1F80
1F80
1F80
1F80
1F80
1F80
1F80
1F80
1F80
1F80
1F80
1F80
1F80
1F80
ENDCHAR
STARTCHAR iacute
ENCODING 237
SWIDTH 313 0
DWIDTH 10 0
BBX 9 25 2 0
BITMAP
1C00
1F80
3E00
7C00
F800
0000
0000
FC00
FC00
FC00
FC00
FC00
FC00
FC00
FC00
FC00
FC00
FC00
FC00
FC00
FC00
FC00
FC00
FC00
FC00
ENDCHAR
STARTCHAR icircumflex
ENCODING 238
SWIDTH 313 0
DWIDTH 10 0
BBX 12 25 -1 0
BITMAP
1F80
1F80
3FC0
7FE0
F9F0
0000
0000
1F80
1F80
1F80
1F80
1F80
1F80
1F80
1F80
1F80
1F80
1F80
1F80
1F80
1F80
1F80
1F80
1F80
1F80
ENDCHAR
STARTCHAR idieresis
ENCODING 239
SWIDTH 313 0
DWIDTH 10 0
BBX 10 25 0 0
BITMAP
6180
F3C0
FBC0
F3C0
7380
0000
0000
3F00
3F00
3F00
3F00
3F00
3F00
3F00
3F00
3F00
3F00
3F00
3F00
3F00
3F00
3F00
3F00
3F00
3F00
ENDCHAR
STARTCHAR eth
ENCODING 240
SWIDTH 605 0
DWIDTH 19 0
BBX 18 25 1 0
BITMAP
060100
0F8700
3FFF00
0FFC00
03F800
0FFC00
3F7E00
3C3E00
101F00
001F00
0FCF80
3FFF80
7FFF80
7FFF80
FC3FC0
FC1FC0
F81FC0
F80F80
F81F80
FC1F80
FFFF00
7FFF00
3FFE00
1FFC00
07F000
ENDCHAR
STARTCHAR ntilde
ENCODING 241
SWIDTH 674 0
DWIDTH 22 0
BBX 18 25 2 0
BITMAP
078E00
0FFE00
0FFE00
0FFE00
0E3C00
000000
000000
FC7C00
FDFF00
FFFF80
FFFF80
FFFFC0
FE1FC0
FC0FC0
FC0FC0
FC0FC0
FC0FC0
FC0FC0
FC0FC0
FC0FC0
FC0FC0
FC0FC0
FC0FC0
FC0FC0
FC0FC0
ENDCHAR
STARTCHAR ograve
ENCODING 242
SWIDTH 638 0
DWIDTH 20 0
BBX 19 25 1 0
BITMAP
038000
0FC000
07C000
03E000
01F000
000000
000000
03F800
0FFE00
3FFF00
7FFF80
7FFFC0
FE0FC0
FC0FC0
FC07E0
FC07E0
FC07E0
FC07E0
FC0FC0
FE0FC0
7FFFC0
7FFF80
3FFF00
0FFE00
03F800
ENDCHAR
STARTCHAR oacute
ENCODING 243
SWIDTH 638 0
DWIDTH 20 0
BBX 19 25 1 0
BITMAP
003000
007E00
00FC00
01F000
03E000
000000
000000
03F800
0FFE00
3FFF00
7FFF80
7FFFC0
FE0FC0
FC0FC0
FC07E0
FC07E0
FC07E0
FC07E0
FC0FC0
FE0FC0
7FFFC0
7FFF80
3FFF00
0FFE00
03F800
ENDCHAR
STARTCHAR ocircumflex
ENCODING 244
SWIDTH 638 0
DWIDTH 20 0
BBX 19 25 1 0
BITMAP
01F000
03F800
07F800
0FBC00
1F1E00
000000
000000
03F800
0FFE00
3FFF00
7FFF80
7FFFC0
FE0FC0
FC0FC0
FC07E0
FC07E0
FC07E0
FC07E0
FC0FC0
FE0FC0
7FFFC0
7FFF80
3FFF00
0FFE00
03F800
ENDCHAR
STARTCHAR otilde
ENCODING 245
SWIDTH 638 0
DWIDTH 20 0
BBX 19 25 1 0
BITMAP
078E00
0FFE00
0FFE00
0FFC00
0E3C00
000000
000000
03F800
0FFE00
3FFF00
7FFF80
7FFFC0
FE0FC0
FC0FC0
FC07E0
FC07E0
FC07E0
FC07E0
FC0FC0
FE0FC0
7FFFC0
7FFF80
3FFF00
0FFE00
03F800
ENDCHAR
STARTCHAR odieresis
ENCODING 246
SWIDTH 638 0
DWIDTH 20 0
BBX 19 25 1 0
BITMAP
061800
0F3C00
0FBE00
0F3E00
071C00
000000
000000
03F800
0FFE00
3FFF00
7FFF80
7FFFC0
FE0FC0
FC0FC0
FC07E0
FC07E0
FC07E0
FC07E0
FC0FC0
FE0FC0
7FFFC0
7FFF80
3FFF00
0FFE00
03F800
ENDCHAR
STARTCHAR divide
ENCODING 247
SWIDTH 511 0
DWIDTH 16 0
BBX 14 17 1 2
BITMAP
0300
0780
07C0
07C0
0380
0000
0000
FFFC
FFFC
FFFC
FFFC
0000
0300
0780
07C0
07C0
0380
ENDCHAR
STARTCHAR oslash
ENCODING 248
SWIDTH 638 0
DWIDTH 20 0
BBX 19 23 1 -2
BITMAP
0001C0
0001C0
000380
03F300
0FFF00
3FFF00
7FFF80
7FFFC0
FE1FC0
FC37C0
F877E0
F8E7E0
F9C7E0
F987E0
FF87C0
FF0FC0
7FFFC0
3FFF80
1FFF00
1FFE00
3BF800
700000
F00000
ENDCHAR
STARTCHAR ugrave
ENCODING 249
SWIDTH 664 0
DWIDTH 21 0
BBX 17 25 2 0
BITMAP
030000
1F8000
0FC000
07C000
03E000
000000
000000
F81F80
F81F80
F81F80
F81F80
F81F80
F81F80
F81F80
F81F80
F81F80
F81F80
F81F80
FC1F80
FC3F80
FFFF80
FFFF80
7FFF80
3FDF80
1F9F80
ENDCHAR
STARTCHAR uacute
ENCODING 250
SWIDTH 664 0
DWIDTH 21 0
BBX 17 25 2 0
BITMAP
007000
00FC00
01F800
01F000
03E000
000000
000000
F81F80
F81F80
F81F80
F81F80
F81F80
F81F80
F81F80
F81F80
F81F80
F81F80
F81F80
FC1F80
FC3F80
FFFF80
FFFF80
7FFF80
3FDF80
1F9F80
ENDCHAR
STARTCHAR ucircumflex
ENCODING 251
SWIDTH 664 0
DWIDTH 21 0
BBX 17 25 2 0
BITMAP
03E000
07F000
0FF800
0F7C00
1E3E00
000000
000000
F81F80
F81F80
F81F80
F81F80
F81F80
F81F80
F81F80
F81F80
F81F80
F81F80
F81F80
FC1F80
FC3F80
FFFF80
FFFF80
7FFF80
3FDF80
1F9F80
ENDCHAR
STARTCHAR udieresis
ENCODING 252
SWIDTH 664 0
DWIDTH 21 0
BBX 17 25 2 0
BITMAP
061800
1F3C00
1F7C00
1F7C00
0E3800
000000
000000
F81F80
F81F80
F81F80
F81F80
F81F80
F81F80
F81F80
F81F80
F81F80
F81F80
F81F80
FC1F80
FC3F80
FFFF80
FFFF80
7FFF80
3FDF80
1F9F80
ENDCHAR
STARTCHAR yacute
ENCODING 253
SWIDTH 584 0
DWIDTH 19 0
BBX 19 31 0 -6
BITMAP
003800
007E00
00FC00
00F800
03E000
000000
000000
FC07E0
FC07C0
7C0FC0
7E0FC0
7E0F80
3E0F80
3F1F00
1F1F00
1F9F00
0FBE00
0FBE00
0FFE00
07FC00
07FC00
03F800
03F800
03F800
01F000
23F000
7FE000
7FE000
FFC000
FF8000
3F0000
ENDCHAR
STARTCHAR thorn
ENCODING 254
SWIDTH 686 0
DWIDTH 22 0
BBX 19 31 2 -6
BITMAP
FC0000
FC0000
FC0000
FC0000
FC0000
FC0000
FC0000
FC7C00
FDFF00
FFFF80
FFFFC0
FFFFC0
FE0FE0
FE07E0
FC07E0
FC07E0
FC07E0
FC07E0
FE07E0
FE0FE0
FFFFC0
FFFFC0
FFFF80
FDFF00
FC7C00
FC0000
FC0000
FC0000
FC0000
FC0000
FC0000
ENDCHAR
STARTCHAR ydieresis
ENCODING 255
SWIDTH 584 0
DWIDTH 19 0
BBX 19 31 0 -6
BITMAP
061800
0F3E00
0FBE00
0FBE00
071C00
000000
000000
FC07E0
FC07C0
7C0FC0
7E0FC0
7E0F80
3E0F80
3F1F00
1F1F00
1F9F00
0FBE00
0FBE00
0FFE00
07FC00
07FC00
03F800
03F800
03F800
01F000
23F000
7FE000
7FE000
FFC000
FF8000
3F0000
ENDCHAR
STARTCHAR Amacron
ENCODING 256
SWIDTH 773 0
DWIDTH 25 0
BBX 25 28 0 0
BITMAP
01FFC000
01FFC000
01FFC000
00000000
00000000
007F0000
007F0000
00FF8000
00FF8000
00FF8000
01FFC000
01FFC000
03F7E000
03E7E000
07E3E000
07E3F000
07C3F000
0FC1F800
0FC1F800
1FFFF800
1FFFFC00
1FFFFC00
3FFFFE00
3FFFFE00
7E007E00
7E003F00
FC003F00
FC003F80
ENDCHAR
STARTCHAR amacron
ENCODING 257
SWIDTH 601 0
DWIDTH 19 0
BBX 17 24 1 0
BITMAP
0FFC00
0FFC00
0FFC00
000000
000000
000000
07F000
3FFC00
7FFE00
3FFF00
3FFF00
203F00
001F80
1FFF80
7FFF80
7FFF80
FC1F80
F81F80
F81F80
FC7F80
FFFF80
7FFF80
7FDF80
1F9F80
ENDCHAR
STARTCHAR Abreve
ENCODING 258
SWIDTH 773 0
DWIDTH 25 0
BBX 25 31 0 0
BITMAP
01E3C000
01E3C000
01E78000
00FF8000
007F0000
003E0000
00000000
00000000
007F0000
007F0000
00FF8000
00FF8000
00FF8000
01FFC000
01FFC000
03F7E000
03E7E000
07E3E000
07E3F000
07C3F000
0FC1F800
0FC1F800
1FFFF800
1FFFFC00
1FFFFC00
3FFFFE00
3FFFFE00
7E007E00
7E003F00
FC003F00
FC003F80
ENDCHAR
STARTCHAR abreve
ENCODING 259
SWIDTH 601 0
DWIDTH 19 0
BBX 17 26 1 0
BITMAP
1E3C00
1E3C00
0F3C00
0FF800
07F000
03E000
000000
000000
07F000
3FFC00
7FFE00
3FFF00
3FFF00
203F00
001F80
1FFF80
7FFF80
7FFF80
FC1F80
F81F80
F81F80
FC7F80
FFFF80
7FFF80
7FDF80
1F9F80
ENDCHAR
STARTCHAR Aogonek
ENCODING 260
SWIDTH 773 0
DWIDTH 25 0
BBX 25 31 0 -8
BITMAP
007F0000
007F0000
00FF8000
00FF8000
00FF8000
01FFC000
01FFC000
03F7E000
03E7E000
07E3E000
07E3F000
07C3F000
0FC1F800
0FC1F800
1FFFF800
1FFFFC00
1FFFFC00
3FFFFE00
3FFFFE00
7E007E00
7E003F00
FC003F00
FC003F80
00003E00
00003C00
00007800
00007800
00007E00
00007E00
00007E00
00003E00
ENDCHAR
STARTCHAR aogonek
ENCODING 261
SWIDTH 601 0
DWIDTH 19 0
BBX 17 26 1 -8
BITMAP
07F000
3FFC00
7FFE00
3FFF00
3FFF00
203F00
001F80
1FFF80
7FFF80
7FFF80
FC1F80
F81F80
F81F80
FC7F80
FFFF80
7FFF80
7FDF80
1F9F80
003E00
003C00
007800
007800
007E00
007E00
007E00
003F00
ENDCHAR
STARTCHAR Cacute
ENCODING 262
SWIDTH 692 0
DWIDTH 22 0
BBX 21 30 1 0
BITMAP
000E00
000FC0
001F00
003E00
007C00
000000
000000
00FE00
03FFC0
0FFFE0
1FFFF8
3FFFF0
7F81E0
7F00E0
FE0040
FC0000
FC0000
FC0000
FC0000
FC0000
FC0000
FC0000
FE0040
7F00C0
7F83E0
3FFFF0
1FFFF8
0FFFE0
03FF80
00FE00
ENDCHAR
STARTCHAR cacute
ENCODING 263
SWIDTH 562 0
DWIDTH 18 0
BBX 17 25 1 0
BITMAP
007000
00FC00
00F800
01F000
03E000
000000
000000
07F000
1FFC00
3FFE00
7FFF00
7FFF00
FE1C00
FC0800
FC0000
FC0000
FC0000
FC0000
FC0800
FE1C00
7FFF80
7FFF00
3FFE00
1FFC00
07F000
ENDCHAR
STARTCHAR Ccircumflex
ENCODING 264
SWIDTH 692 0
DWIDTH 22 0
BBX 21 30 1 0
BITMAP
007E00
007E00
00FF00
01F780
03E7C0
000000
000000
00FE00
03FFC0
0FFFE0
1FFFF8
3FFFF0
7F81E0
7F00E0
FE0040
FC0000
FC0000
FC0000
FC0000
FC0000
FC0000
FC0000
FE0040
7F00C0
7F83E0
3FFFF0
1FFFF8
0FFFE0
03FF80
00FE00
ENDCHAR
STARTCHAR ccircumflex
ENCODING 265
SWIDTH 562 0
DWIDTH 18 0
BBX 17 25 1 0
BITMAP
03E000
07F000
0FF800
0F7C00
1E3E00
000000
000000
07F000
1FFC00
3FFE00
7FFF00
7FFF00
FE1C00
FC0800
FC0000
FC0000
FC0000
FC0000
FC0800
FE1C00
7FFF80
7FFF00
3FFE00
1FFC00
07F000
ENDCHAR
STARTCHAR Cdotaccent
ENCODING 266
SWIDTH 692 0
DWIDTH 22 0
BBX 21 31 1 0
BITMAP
003C00
007E00
007E00
007E00
007E00
003C00
000000
000000
00FE00
03FFC0
0FFFE0
1FFFF8
3FFFF0
7F81E0
7F00E0
FE0040
FC0000
FC0000
FC0000
FC0000
FC0000
FC0000
FC0000
FE0040
7F00C0
7F83E0
3FFFF0
1FFFF8
0FFFE0
03FF80
00FE00
ENDCHAR
STARTCHAR cdotaccent
ENCODING 267
SWIDTH 562 0
DWIDTH 18 0
BBX 17 26 1 0
BITMAP
01C000
03E000
03F000
03F000
03E000
01C000
000000
000000
07F000
1FFC00
3FFE00
7FFF00
7FFF00
FE1C00
FC0800
FC0000
FC0000
FC0000
FC0000
FC0800
FE1C00
7FFF80
7FFF00
3FFE00
1FFC00
07F000
ENDCHAR
STARTCHAR Ccaron
ENCODING 268
SWIDTH 692 0
DWIDTH 22 0
BBX 21 30 1 0
BITMAP
03C7C0
03EF80
01FF00
00FE00
007C00
000000
000000
00FE00
03FFC0
0FFFE0
1FFFF8
3FFFF0
7F81E0
7F00E0
FE0040
FC0000
FC0000
FC0000
FC0000
FC0000
FC0000
FC0000
FE0040
7F00C0
7F83E0
3FFFF0
1FFFF8
0FFFE0
03FF80
00FE00
ENDCHAR
STARTCHAR ccaron
ENCODING 269
SWIDTH 562 0
DWIDTH 18 0
BBX 17 25 1 0
BITMAP
1E3E00
1F7C00
0FF800
07F000
03F000
000000
000000
07F000
1FFC00
3FFE00
7FFF00
7FFF00
FE1C00
FC0800
FC0000
FC0000
FC0000
FC0000
FC0800
FE1C00
7FFF80
7FFF00
3FFE00
1FFC00
07F000
ENDCHAR
STARTCHAR Dcaron
ENCODING 270
SWIDTH 766 0
DWIDTH 25 0
BBX 22 30 2 0
BITMAP
1E1E00
0F3C00
07F800
07F800
03F000
000000
000000
FFFC00
FFFF00
FFFFC0
FFFFE0
FFFFF0
FC07F0
FC03F8
FC01F8
FC01F8
FC00FC
FC00FC
FC00FC
FC00FC
FC00FC
FC01F8
FC01F8
FC03F8
FC07F0
FFFFF0
FFFFE0
FFFFC0
FFFF00
FFF800
ENDCHAR
STARTCHAR dcaron
ENCODING 271
SWIDTH 802 0
DWIDTH 26 0
BBX 25 24 1 0
BITMAP
0007E780
0007E780
0007E780
0007E780
0007E780
0007E780
07C7E780
1FF7E000
3FFFE000
7FFFE000
7FFFE000
FE0FE000
FC0FE000
FC07E000
FC07E000
FC07E000
FC07E000
FC0FE000
FE0FE000
7FFFE000
7FFFE000
3FFFE000
1FF7E000
07C7E000
ENDCHAR
STARTCHAR Dcroat
ENCODING 272
SWIDTH 766 0
DWIDTH 25 0
BBX 24 23 0 0
BITMAP
3FFF00
3FFFC0
3FFFF0
3FFFF8
3FFFFC
3F01FC
3F00FE
3F007E
3F007E
3F003F
FFF83F
FFF83F
FFF83F
3F003F
3F007E
3F007E
3F00FE
3F01FC
3FFFFC
3FFFF8
3FFFF0
3FFFC0
3FFE00
ENDCHAR
STARTCHAR dcroat
ENCODING 273
SWIDTH 686 0
DWIDTH 22 0
BBX 21 24 1 0
BITMAP
0007E0
0007E0
01FFF8
01FFF8
01FFF8
0007E0
0007E0
07C7E0
1FF7E0
3FFFE0
7FFFE0
FFFFE0
FE0FE0
FC0FE0
FC07E0
FC07E0
FC07E0
FC0FE0
FE0FE0
7FFFE0
7FFFE0
3FFFE0
1FF7E0
07C7E0
ENDCHAR
STARTCHAR Emacron
ENCODING 274
SWIDTH 675 0
DWIDTH 22 0
BBX 18 28 2 0
BITMAP
0FFE00
0FFE00
0FFE00
000000
000000
FFFFC0
FFFFC0
FFFFC0
FFFFC0
FFFFC0
FC0000
FC0000
FC0000
FC0000
FFFF80
FFFF80
FFFF80
FFFF80
FFFF80
FC0000
FC0000
FC0000
FC0000
FFFFC0
FFFFC0
FFFFC0
FFFFC0
FFFFC0
ENDCHAR
STARTCHAR emacron
ENCODING 275
SWIDTH 603 0
DWIDTH 19 0
BBX 18 24 1 0
BITMAP
0FFC00
0FFC00
0FFC00
000000
000000
000000
03F000
1FFC00
3FFE00
7FFF00
7FFF80
FC1F80
FC0F80
FFFF80
FFFFC0
FFFFC0
FC0000
FC0400
FE0C00
7FFE00
7FFF00
3FFF00
1FFC00
03F000
ENDCHAR
STARTCHAR Ebreve
ENCODING 276
SWIDTH 675 0
DWIDTH 22 0
BBX 18 31 2 0
BITMAP
0E1C00
0F1C00
0F3C00
07FC00
07F800
01F000
000000
000000
FFFFC0
FFFFC0
FFFFC0
FFFFC0
FFFFC0
FC0000
FC0000
FC0000
FC0000
FFFF80
FFFF80
FFFF80
FFFF80
FFFF80
FC0000
FC0000
FC0000
FC0000
FFFFC0
FFFFC0
FFFFC0
FFFFC0
FFFFC0
ENDCHAR
STARTCHAR ebreve
ENCODING 277
SWIDTH 603 0
DWIDTH 19 0
BBX 18 26 1 0
BITMAP
1E3C00
1E3C00
0F3C00
0FF800
07F000
03E000
000000
000000
03F000
1FFC00
3FFE00
7FFF00
7FFF80
FC1F80
FC0F80
FFFF80
FFFFC0
FFFFC0
FC0000
FC0400
FE0C00
7FFE00
7FFF00
3FFF00
1FFC00
03F000
ENDCHAR
STARTCHAR Edotaccent
ENCODING 278
SWIDTH 675 0
DWIDTH 22 0
BBX 18 31 2 0
BITMAP
01E000
03F000
03F000
03F000
03F000
01E000
000000
000000
FFFFC0
FFFFC0
FFFFC0
FFFFC0
FFFFC0
FC0000
FC0000
FC0000
FC0000
FFFF80
FFFF80
FFFF80
FFFF80
FFFF80
FC0000
FC0000
FC0000
FC0000
FFFFC0
FFFFC0
FFFFC0
FFFFC0
FFFFC0
ENDCHAR
STARTCHAR edotaccent
ENCODING 279
SWIDTH 603 0
DWIDTH 19 0
BBX 18 26 1 0
BITMAP
01C000
03E000
03F000
03F000
03E000
01C000
000000
000000
03F000
1FFC00
3FFE00
7FFF00
7FFF80
FC1F80
FC0F80
FFFF80
FFFFC0
FFFFC0
FC0000
FC0400
FE0C00
7FFE00
7FFF00
3FFF00
1FFC00
03F000
ENDCHAR
STARTCHAR Eogonek
ENCODING 280
SWIDTH 675 0
DWIDTH 22 0
BBX 18 31 2 -8
BITMAP
FFFFC0
FFFFC0
FFFFC0
FFFFC0
FFFFC0
FC0000
FC0000
FC0000
FC0000
FFFF80
FFFF80
FFFF80
FFFF80
FFFF80
FC0000
FC0000
FC0000
FC0000
FFFFC0
FFFFC0
FFFFC0
FFFFC0
FFFFC0
0007C0
000F00
000F00
000F00
000FC0
000FC0
000FC0
0007C0
ENDCHAR
STARTCHAR eogonek
ENCODING 281
SWIDTH 603 0
DWIDTH 19 0
BBX 18 26 1 -8
BITMAP
03F000
1FFC00
3FFE00
7FFF00
7FFF80
FC1F80
FC0F80
FFFF80
FFFFC0
FFFFC0
FC0000
FC0400
FE0C00
7FFE00
7FFF00
3FFF00
1FFE00
03FC00
003800
007800
007800
00F800
00FC00
007E00
007E00
003C00
ENDCHAR
STARTCHAR Ecaron
ENCODING 282
SWIDTH 675 0
DWIDTH 22 0
BBX 18 30 2 0
BITMAP
1E1E00
0F3C00
0FF800
07F000
03F000
000000
000000
FFFFC0
FFFFC0
FFFFC0
FFFFC0
FFFFC0
FC0000
FC0000
FC0000
FC0000
FFFF80
FFFF80
FFFF80
FFFF80
FFFF80
FC0000
FC0000
FC0000
FC0000
FFFFC0
FFFFC0
FFFFC0
FFFFC0
FFFFC0
ENDCHAR
STARTCHAR ecaron
ENCODING 283
SWIDTH 603 0
DWIDTH 19 0
BBX 18 25 1 0
BITMAP
1E3E00
1F7C00
0FF800
07F000
03F000
000000
000000
03F000
1FFC00
3FFE00
7FFF00
7FFF80
FC1F80
FC0F80
FFFF80
FFFFC0
FFFFC0
FC0000
FC0400
FE0C00
7FFE00
7FFF00
3FFF00
1FFC00
03F000
ENDCHAR
STARTCHAR Gcircumflex
ENCODING 284
SWIDTH 743 0
DWIDTH 24 0
BBX 21 30 1 0
BITMAP
007C00
00FE00
00FF00
01EF80
03C7C0
000000
000000
003E00
03FFC0
07FFF0
1FFFF8
3FFFF0
3FC3F0
7F00E0
FE0040
FE0000
FC0000
FC0FF8
FC0FF8
FC0FF8
FC0FF8
FC0FF8
FE00F8
7F00F8
7F80F8
3FFFF8
1FFFF8
0FFFF8
07FFF0
01FF80
ENDCHAR
STARTCHAR gcircumflex
ENCODING 285
SWIDTH 648 0
DWIDTH 21 0
BBX 18 31 1 -6
BITMAP
03F000
07F000
07F800
0F7C00
1E3C00
000000
000000
0FCFC0
1FEFC0
3FFFC0
7FFFC0
FFFFC0
FC1FC0
F80FC0
F80FC0
F80FC0
F80FC0
FC1FC0
FE3FC0
7FFFC0
7FFFC0
3FFFC0
1FEFC0
038FC0
000FC0
301F80
3FFF80
7FFF00
7FFE00
3FFC00
07F000
ENDCHAR
STARTCHAR Gbreve
ENCODING 286
SWIDTH 743 0
DWIDTH 24 0
BBX 21 31 1 0
BITMAP
03C380
01C780
01E780
01FF00
00FF00
007C00
000000
000000
003E00
03FFC0
07FFF0
1FFFF8
3FFFF0
3FC3F0
7F00E0
FE0040
FE0000
FC0000
FC0FF8
FC0FF8
FC0FF8
FC0FF8
FC0FF8
FE00F8
7F00F8
7F80F8
3FFFF8
1FFFF8
0FFFF8
07FFF0
01FF80
ENDCHAR
STARTCHAR gbreve
ENCODING 287
SWIDTH 648 0
DWIDTH 21 0
BBX 18 32 1 -6
BITMAP
0E1C00
0E3C00
0F3C00
0FF800
07F800
03E000
000000
000000
0FCFC0
1FEFC0
3FFFC0
7FFFC0
FFFFC0
FC1FC0
F80FC0
F80FC0
F80FC0
F80FC0
FC1FC0
FE3FC0
7FFFC0
7FFFC0
3FFFC0
1FEFC0
038FC0
000FC0
301F80
3FFF80
7FFF00
7FFE00
3FFC00
07F000
ENDCHAR
STARTCHAR Gdotaccent
ENCODING 288
SWIDTH 743 0
DWIDTH 24 0
BBX 21 31 1 0
BITMAP
003C00
007C00
007E00
007E00
007C00
003C00
000000
000000
003E00
03FFC0
07FFF0
1FFFF8
3FFFF0
3FC3F0
7F00E0
FE0040
FE0000
FC0000
FC0FF8
FC0FF8
FC0FF8
FC0FF8
FC0FF8
FE00F8
7F00F8
7F80F8
3FFFF8
1FFFF8
0FFFF8
07FFF0
01FF80
ENDCHAR
STARTCHAR gdotaccent
ENCODING 289
SWIDTH 648 0
DWIDTH 21 0
BBX 18 32 1 -6
BITMAP
01E000
03E000
03F000
03F000
03E000
01E000
000000
000000
0FCFC0
1FEFC0
3FFFC0
7FFFC0
FFFFC0
FC1FC0
F80FC0
F80FC0
F80FC0
F80FC0
FC1FC0
FE3FC0
7FFFC0
7FFFC0
3FFFC0
1FEFC0
038FC0
000FC0
301F80
3FFF80
7FFF00
7FFE00
3FFC00
07F000
ENDCHAR
STARTCHAR Gcommaaccent
ENCODING 290
SWIDTH 743 0
DWIDTH 24 0
BBX 21 31 1 -8
BITMAP
003E00
03FFC0
07FFF0
1FFFF8
3FFFF0
3FC3F0
7F00E0
FE0040
FE0000
FC0000
FC0FF8
FC0FF8
FC0FF8
FC0FF8
FC0FF8
FE00F8
7F00F8
7F80F8
3FFFF8
1FFFF8
0FFFF8
07FFF0
01FF80
000000
000000
007C00
007800
007800
007000
00F000
00F000
ENDCHAR
STARTCHAR gcommaaccent
ENCODING 291
SWIDTH 648 0
DWIDTH 21 0
BBX 18 32 1 -6
BITMAP
00F000
00F000
00E000
01E000
01E000
03E000
000000
000000
0FCFC0
1FEFC0
3FFFC0
7FFFC0
FFFFC0
FC1FC0
F80FC0
F80FC0
F80FC0
F80FC0
FC1FC0
FE3FC0
7FFFC0
7FFFC0
3FFFC0
1FEFC0
038FC0
000FC0
301F80
3FFF80
7FFF00
7FFE00
3FFC00
07F000
ENDCHAR
STARTCHAR Hcircumflex
ENCODING 292
SWIDTH 785 0
DWIDTH 25 0
BBX 21 30 2 0
BITMAP
00F800
01FC00
01FE00
03DF00
078F80
000000
000000
FC01F8
FC01F8
FC01F8
FC01F8
FC01F8
FC01F8
FC01F8
FC01F8
FC01F8
FFFFF8
FFFFF8
FFFFF8
FFFFF8
FFFFF8
FC01F8
FC01F8
FC01F8
FC01F8
FC01F8
FC01F8
FC01F8
FC01F8
FC01F8
ENDCHAR
STARTCHAR hcircumflex
ENCODING 293
SWIDTH 679 0
DWIDTH 22 0
BBX 21 31 -1 0
BITMAP
1F8000
1F8000
3FC000
7FE000
F9F000
000000
000000
1F8000
1F8000
1F8000
1F8000
1F8000
1F8000
1F8F80
1FBFE0
1FFFF0
1FFFF0
1FFFF8
1FC3F8
1FC1F8
1F81F8
1F81F8
1F81F8
1F81F8
1F81F8
1F81F8
1F81F8
1F81F8
1F81F8
1F81F8
1F81F8
ENDCHAR
STARTCHAR Hbar
ENCODING 294
SWIDTH 843 0
DWIDTH 27 0
BBX 27 23 0 0
BITMAP
1F803F00
1F803F00
1F803F00
FFFFFFE0
FFFFFFE0
FFFFFFE0
1F803F00
1F803F00
1F803F00
1FFFFF00
1FFFFF00
1FFFFF00
1FFFFF00
1FFFFF00
1F803F00
1F803F00
1F803F00
1F803F00
1F803F00
1F803F00
1F803F00
1F803F00
1F803F00
ENDCHAR
STARTCHAR hbar
ENCODING 295
SWIDTH 679 0
DWIDTH 22 0
BBX 20 24 0 0
BITMAP
3F0000
3F0000
FFFC00
FFFC00
FFFC00
3F0000
3F0000
3F0E00
3F3FC0
3FFFE0
3FFFE0
3FFFF0
3FC7F0
3F83F0
3F03F0
3F03F0
3F03F0
3F03F0
3F03F0
3F03F0
3F03F0
3F03F0
3F03F0
3F03F0
ENDCHAR
STARTCHAR Itilde
ENCODING 296
SWIDTH 319 0
DWIDTH 10 0
BBX 11 30 0 0
BITMAP
78E0
FFE0
FFE0
FFC0
E3C0
0000
0000
3F00
3F00
3F00
3F00
3F00
3F00
3F00
3F00
3F00
3F00
3F00
3F00
3F00
3F00
3F00
3F00
3F00
3F00
3F00
3F00
3F00
3F00
3F00
ENDCHAR
STARTCHAR itilde
ENCODING 297
SWIDTH 313 0
DWIDTH 10 0
BBX 11 25 0 0
BITMAP
79E0
FFE0
FFC0
FFC0
E7C0
0000
0000
3F00
3F00
3F00
3F00
3F00
3F00
3F00
3F00
3F00
3F00
3F00
3F00
3F00
3F00
3F00
3F00
3F00
3F00
ENDCHAR
STARTCHAR Imacron
ENCODING 298
SWIDTH 319 0
DWIDTH 10 0
BBX 10 28 0 0
BITMAP
FFC0
FFC0
FFC0
0000
0000
3F00
3F00
3F00
3F00
3F00
3F00
3F00
3F00
3F00
3F00
3F00
3F00
3F00
3F00
3F00
3F00
3F00
3F00
3F00
3F00
3F00
3F00
3F00
ENDCHAR
STARTCHAR imacron
ENCODING 299
SWIDTH 313 0
DWIDTH 10 0
BBX 9 24 1 0
BITMAP
FF80
FF80
FF80
0000
0000
0000
7E00
7E00
7E00
7E00
7E00
7E00
7E00
7E00
7E00
7E00
7E00
7E00
7E00
7E00
7E00
7E00
7E00
7E00
ENDCHAR
STARTCHAR Ibreve
ENCODING 300
SWIDTH 319 0
DWIDTH 10 0
BBX 10 31 0 0
BITMAP
E1C0
F1C0
F3C0
7FC0
7F80
1F00
0000
0000
3F00
3F00
3F00
3F00
3F00
3F00
3F00
3F00
3F00
3F00
3F00
3F00
3F00
3F00
3F00
3F00
3F00
3F00
3F00
3F00
3F00
3F00
3F00
ENDCHAR
STARTCHAR ibreve
ENCODING 301
SWIDTH 313 0
DWIDTH 10 0
BBX 10 26 0 0
BITMAP
E1C0
E1C0
F3C0
FFC0
7F80
1E00
0000
0000
3F00
3F00
3F00
3F00
3F00
3F00
3F00
3F00
3F00
3F00
3F00
3F00
3F00
3F00
3F00
3F00
3F00
3F00
ENDCHAR
STARTCHAR Iogonek
ENCODING 302
SWIDTH 319 0
DWIDTH 10 0
BBX 8 31 0 -8
BITMAP
3F
3F
3F
3F
3F
3F
3F
3F
3F
3F
3F
3F
3F
3F
3F
3F
3F
3F
3F
3F
3F
3F
3F
3C
78
F0
F0
FC
FC
7E
3C
ENDCHAR
STARTCHAR iogonek
ENCODING 303
SWIDTH 313 0
DWIDTH 10 0
BBX 8 34 0 -8
BITMAP
1E
3F
3F
3F
3F
1E
00
00
3F
3F
3F
3F
3F
3F
3F
3F
3F
3F
3F
3F
3F
3F
3F
3F
3F
3F
3C
78
F0
F0
FC
FC
7E
3C
ENDCHAR
STARTCHAR Idotaccent
ENCODING 304
SWIDTH 319 0
DWIDTH 10 0
BBX 6 31 2 0
BITMAP
78
FC
FC
FC
FC
78
00
00
FC
FC
FC
FC
FC
FC
FC
FC
FC
FC
FC
FC
FC
FC
FC
FC
FC
FC
FC
FC
FC
FC
FC
ENDCHAR
STARTCHAR dotlessi
ENCODING 305
SWIDTH 313 0
DWIDTH 10 0
BBX 6 18 2 0
BITMAP
FC
FC
FC
FC
FC
FC
FC
FC
FC
FC
FC
FC
FC
FC
FC
FC
FC
FC
ENDCHAR
STARTCHAR IJ
ENCODING 306
SWIDTH 870 0
DWIDTH 28 0
BBX 24 23 2 0
BITMAP
FC3FFF
FC3FFF
FC3FFF
FC3FFF
FC3FFF
FC003F
FC003F
FC003F
FC003F
FC003F
FC003F
FC003F
FC003F
FC003F
FC003F
FC003F
FC303F
FC787E
FC7FFE
FCFFFE
FC7FFC
FC3FF8
FC0FE0
ENDCHAR
STARTCHAR ij
ENCODING 307
SWIDTH 628 0
DWIDTH 20 0
BBX 16 32 2 -6
BITMAP
781E
FC3F
FC3F
FC3F
FC3F
781E
0000
0000
FC3F
FC3F
FC3F
FC3F
FC3F
FC3F
FC3F
FC3F
FC3F
FC3F
FC3F
FC3F
FC3F
FC3F
FC3F
FC3F
FC3F
FC3F
003F
01FF
01FF
03FE
03FC
01F8
ENDCHAR
STARTCHAR Jcircumflex
ENCODING 308
SWIDTH 539 0
DWIDTH 17 0
BBX 15 30 0 0
BITMAP
03E0
07F0
0FF8
0F78
1E3E
0000
0000
3FFE
3FFE
3FFE
3FFE
3FFE
003E
003E
003E
003E
003E
003E
003E
003E
003E
003E
003E
207E
787E
7FFE
FFFC
7FFC
3FF8
0FE0
ENDCHAR
STARTCHAR jcircumflex
ENCODING 309
SWIDTH 312 0
DWIDTH 10 0
BBX 13 31 -2 -6
BITMAP
0FC0
0FC0
1FE0
3EF0
7CF8
0000
0000
0FC0
0FC0
0FC0
0FC0
0FC0
0FC0
0FC0
0FC0
0FC0
0FC0
0FC0
0FC0
0FC0
0FC0
0FC0
0FC0
0FC0
0FC0
0FC0
7FC0
7FC0
FF80
FF00
FE00
ENDCHAR
STARTCHAR Kcommaaccent
ENCODING 310
SWIDTH 749 0
DWIDTH 24 0
BBX 22 31 2 -8
BITMAP
FC03F8
FC07F0
FC0FE0
FC0FC0
FC1F80
FC3F80
FC7F00
FCFE00
FDFC00
FDF800
FFF800
FFFC00
FFFE00
FFFE00
FFFF00
FF3F80
FE3F80
FC1FC0
FC0FE0
FC0FE0
FC07F0
FC03F8
FC03FC
000000
000000
01F000
01E000
01E000
01E000
01C000
03C000
ENDCHAR
STARTCHAR kcommaaccent
ENCODING 311
SWIDTH 633 0
DWIDTH 20 0
BBX 18 32 2 -8
BITMAP
FC0000
FC0000
FC0000
FC0000
FC0000
FC0000
FC1FC0
FC3F80
FC7F00
FCFE00
FCFC00
FDF800
FFF000
FFF000
FFF800
FFF800
FFFC00
FFFC00
FEFE00
FC7E00
FC3F00
FC3F80
FC1F80
FC1FC0
000000
000000
03E000
03C000
03C000
038000
078000
078000
ENDCHAR
STARTCHAR kgreenlandic
ENCODING 312
SWIDTH 627 0
DWIDTH 20 0
BBX 18 18 2 0
BITMAP
FC1FC0
FC3F80
FC7F00
FCFE00
FCFC00
FDF800
FFF000
FFF000
FFF000
FFF800
FFFC00
FEFC00
FCFE00
FC7E00
FC7F00
FC3F00
FC3F80
FC1FC0
ENDCHAR
STARTCHAR Lacute
ENCODING 313
SWIDTH 563 0
DWIDTH 18 0
BBX 16 30 2 0
BITMAP
1C00
1F80
3E00
7C00
F800
0000
0000
FC00
FC00
FC00
FC00
FC00
FC00
FC00
FC00
FC00
FC00
FC00
FC00
FC00
FC00
FC00
FC00
FC00
FC00
FFFF
FFFF
FFFF
FFFF
FFFF
ENDCHAR
STARTCHAR lacute
ENCODING 314
SWIDTH 324 0
DWIDTH 10 0
BBX 9 31 2 0
BITMAP
0C00
1F80
3F00
7C00
F800
0000
0000
FC00
FC00
FC00
FC00
FC00
FC00
FC00
FC00
FC00
FC00
FC00
FC00
FC00
FC00
FC00
FC00
FC00
FC00
FC00
FC00
FC00
FC00
FC00
FC00
ENDCHAR
STARTCHAR Lcommaaccent
ENCODING 315
SWIDTH 563 0
DWIDTH 18 0
BBX 16 31 2 -8
BITMAP
FC00
FC00
FC00
FC00
FC00
FC00
FC00
FC00
FC00
FC00
FC00
FC00
FC00
FC00
FC00
FC00
FC00
FC00
FFFF
FFFF
FFFF
FFFF
FFFF
0000
0000
07C0
07C0
0780
0780
0700
0F00
ENDCHAR
STARTCHAR lcommaaccent
ENCODING 316
SWIDTH 324 0
DWIDTH 10 0
BBX 6 32 2 -8
BITMAP
FC
FC
FC
FC
FC
FC
FC
FC
FC
FC
FC
FC
FC
FC
FC
FC
FC
FC
FC
FC
FC
FC
FC
FC
00
00
78
78
F0
F0
F0
E0
ENDCHAR
STARTCHAR Lcaron
ENCODING 317
SWIDTH 563 0
DWIDTH 18 0
BBX 16 23 2 0
BITMAP
FC1F
FC1E
FC1E
FC1E
FC1E
FC1E
FC1E
FC00
FC00
FC00
FC00
FC00
FC00
FC00
FC00
FC00
FC00
FC00
FFFF
FFFF
FFFF
FFFF
FFFF
ENDCHAR
STARTCHAR lcaron
ENCODING 318
SWIDTH 434 0
DWIDTH 14 0
BBX 13 24 2 0
BITMAP
FCF8
FCF8
FCF0
FCF0
FCF0
FCF0
FCF0
FC00
FC00
FC00
FC00
FC00
FC00
FC00
FC00
FC00
FC00
FC00
FC00
FC00
FC00
FC00
FC00
FC00
ENDCHAR
STARTCHAR Ldot
ENCODING 319
SWIDTH 563 0
DWIDTH 18 0
BBX 16 23 2 0
BITMAP
FC00
FC00
FC00
FC00
FC00
FC3C
FC7E
FC7E
FC7E
FC7E
FC3C
FC00
FC00
FC00
FC00
FC00
FC00
FC00
FFFF
FFFF
FFFF
FFFF
FFFF
ENDCHAR
STARTCHAR ldot
ENCODING 320
SWIDTH 482 0
DWIDTH 15 0
BBX 14 24 2 0
BITMAP
FC00
FC00
FC00
FC00
FC00
FC00
FC00
FC70
FCF8
FCFC
FDF8
FCF8
FC70
FC00
FC00
FC00
FC00
FC00
FC00
FC00
FC00
FC00
FC00
FC00
ENDCHAR
STARTCHAR Lslash
ENCODING 321
SWIDTH 608 0
DWIDTH 19 0
BBX 18 23 1 0
BITMAP
1F0000
1F0000
1F0000
1F0000
1F0000
1F1000
1F7000
1FF000
1FF000
1FC000
3F0000
FF0000
FF0000
DF0000
9F0000
1F0000
1F0000
1F0000
1FFFC0
1FFFC0
1FFFC0
1FFFC0
1FFFC0
ENDCHAR
STARTCHAR lslash
ENCODING 322
SWIDTH 422 0
DWIDTH 14 0
BBX 12 24 1 0
BITMAP
1F80
1F80
1F80
1F80
1F80
1F80
1F80
1FB0
1FF0
1FF0
1FE0
1F80
7F80
FF80
FF80
9F80
1F80
1F80
1F80
1F80
1F80
1F80
1F80
1F80
ENDCHAR
STARTCHAR Nacute
ENCODING 323
SWIDTH 786 0
DWIDTH 25 0
BBX 21 30 2 0
BITMAP
001C00
003F00
003E00
007C00
00F800
000000
000000
FC01F8
FC00F8
FE00F8
FF00F8
FF80F8
FF80F8
FFC0F8
FFE0F8
FFF0F8
FFF0F8
FFF8F8
FDFCF8
FCFCF8
FC7EF8
FC7FF8
FC3FF8
FC1FF8
FC0FF8
FC0FF8
FC07F8
FC03F8
FC01F8
FC01F8
ENDCHAR
STARTCHAR nacute
ENCODING 324
SWIDTH 674 0
DWIDTH 22 0
BBX 18 25 2 0
BITMAP
003000
007E00
00FC00
01F800
03E000
000000
000000
FC7C00
FDFF00
FFFF80
FFFF80
FFFFC0
FE1FC0
FC0FC0
FC0FC0
FC0FC0
FC0FC0
FC0FC0
FC0FC0
FC0FC0
FC0FC0
FC0FC0
FC0FC0
FC0FC0
FC0FC0
ENDCHAR
STARTCHAR Ncommaaccent
ENCODING 325
SWIDTH 786 0
DWIDTH 25 0
BBX 21 31 2 -8
BITMAP
FC01F8
FC00F8
FE00F8
FF00F8
FF80F8
FF80F8
FFC0F8
FFE0F8
FFF0F8
FFF0F8
FFF8F8
FDFCF8
FCFCF8
FC7EF8
FC7FF8
FC3FF8
FC1FF8
FC0FF8
FC0FF8
FC07F8
FC03F8
FC01F8
FC01F8
000000
000000
00F800
00F000
00F000
00F000
00E000
01E000
ENDCHAR
STARTCHAR ncommaaccent
ENCODING 326
SWIDTH 674 0
DWIDTH 22 0
BBX 18 26 2 -8
BITMAP
FC7C00
FDFF00
FFFF80
FFFF80
FFFFC0
FE1FC0
FC0FC0
FC0FC0
FC0FC0
FC0FC0
FC0FC0
FC0FC0
FC0FC0
FC0FC0
FC0FC0
FC0FC0
FC0FC0
FC0FC0
000000
000000
03E000
03E000
03C000
03C000
038000
038000
ENDCHAR
STARTCHAR Ncaron
ENCODING 327
SWIDTH 786 0
DWIDTH 25 0
BBX 21 30 2 0
BITMAP
0F8F00
079E00
03FE00
01FC00
01F800
000000
000000
FC01F8
FC00F8
FE00F8
FF00F8
FF80F8
FF80F8
FFC0F8
FFE0F8
FFF0F8
FFF0F8
FFF8F8
FDFCF8
FCFCF8
FC7EF8
FC7FF8
FC3FF8
FC1FF8
FC0FF8
FC0FF8
FC07F8
FC03F8
FC01F8
FC01F8
ENDCHAR
STARTCHAR ncaron
ENCODING 328
SWIDTH 674 0
DWIDTH 22 0
BBX 18 25 2 0
BITMAP
1F1E00
0F3C00
07FC00
03F800
03F000
000000
000000
FC7C00
FDFF00
FFFF80
FFFF80
FFFFC0
FE1FC0
FC0FC0
FC0FC0
FC0FC0
FC0FC0
FC0FC0
FC0FC0
FC0FC0
FC0FC0
FC0FC0
FC0FC0
FC0FC0
FC0FC0
ENDCHAR
STARTCHAR napostrophe
ENCODING 329
SWIDTH 826 0
DWIDTH 26 0
BBX 24 23 1 0
BITMAP
F00000
F00000
F00000
F00000
F00000
F3F1F0
F3F7FC
F3FFFE
F3FFFE
03FFFE
03F87F
03F03F
03F03F
03F03F
03F03F
03F03F
03F03F
03F03F
03F03F
03F03F
03F03F
03F03F
03F03F
ENDCHAR
STARTCHAR Eng
ENCODING 330
SWIDTH 786 0
DWIDTH 25 0
BBX 21 30 2 -7
BITMAP
FC01F8
FC01F8
FE01F8
FF01F8
FF81F8
FF81F8
FFC1F8
FFE1F8
FFF1F8
FFF1F8
FFF9F8
FDFDF8
FCFDF8
FC7FF8
FC7FF8
FC3FF8
FC1FF8
FC0FF8
FC0FF8
FC07F8
FC03F8
FC01F8
FC01F8
0001F8
0061F8
007FF0
00FFF0
01FFE0
00FFC0
000C00
ENDCHAR
STARTCHAR eng
ENCODING 331
SWIDTH 674 0
DWIDTH 22 0
BBX 18 24 2 -6
BITMAP
FC7C00
FDFF00
FFFF80
FFFF80
FFFFC0
FE1FC0
FC0FC0
FC0FC0
FC0FC0
FC0FC0
FC0FC0
FC0FC0
FC0FC0
FC0FC0
FC0FC0
FC0FC0
FC0FC0
FC0FC0
000FC0
00FFC0
00FF80
00FF80
01FF00
00FC00
ENDCHAR
STARTCHAR Omacron
ENCODING 332
SWIDTH 804 0
DWIDTH 26 0
BBX 24 28 1 0
BITMAP
03FF80
03FF80
03FF80
000000
000000
00FF00
03FFC0
0FFFF0
1FFFF8
3FFFFC
7F81FC
7F00FE
FE007E
FC007F
FC003F
FC003F
FC003F
FC003F
FC003F
FC007F
FE007E
7F00FE
7F81FC
3FFFFC
1FFFF8
0FFFF0
03FFC0
00FE00
ENDCHAR
STARTCHAR omacron
ENCODING 333
SWIDTH 638 0
DWIDTH 20 0
BBX 19 24 1 0
BITMAP
0FFC00
0FFC00
0FFC00
000000
000000
000000
03F800
0FFE00
3FFF00
7FFF80
7FFFC0
FE0FC0
FC0FC0
FC07E0
FC07E0
FC07E0
FC07E0
FC0FC0
FE0FC0
7FFFC0
7FFF80
3FFF00
0FFE00
03F800
ENDCHAR
STARTCHAR Obreve
ENCODING 334
SWIDTH 804 0
DWIDTH 26 0
BBX 24 31 1 0
BITMAP
01C380
01C780
01E780
01FF00
00FF00
007C00
000000
000000
00FF00
03FFC0
0FFFF0
1FFFF8
3FFFFC
7F81FC
7F00FE
FE007E
FC007F
FC003F
FC003F
FC003F
FC003F
FC003F
FC007F
FE007E
7F00FE
7F81FC
3FFFFC
1FFFF8
0FFFF0
03FFC0
00FE00
ENDCHAR
STARTCHAR obreve
ENCODING 335
SWIDTH 638 0
DWIDTH 20 0
BBX 19 26 1 0
BITMAP
0E1C00
0F1C00
0F3C00
07FC00
07F800
01F000
000000
000000
03F800
0FFE00
3FFF00
7FFF80
7FFFC0
FE0FC0
FC0FC0
FC07E0
FC07E0
FC07E0
FC07E0
FC0FC0
FE0FC0
7FFFC0
7FFF80
3FFF00
0FFE00
03F800
ENDCHAR
STARTCHAR Ohungarumlaut
ENCODING 336
SWIDTH 804 0
DWIDTH 26 0
BBX 24 30 1 0
BITMAP
00E1C0
00FBE0
01F3E0
01F7C0
03E780
000000
000000
00FF00
03FFC0
0FFFF0
1FFFF8
3FFFFC
7F81FC
7F00FE
FE007E
FC007F
FC003F
FC003F
FC003F
FC003F
FC003F
FC007F
FE007E
7F00FE
7F81FC
3FFFFC
1FFFF8
0FFFF0
03FFC0
00FE00
ENDCHAR
STARTCHAR ohungarumlaut
ENCODING 337
SWIDTH 638 0
DWIDTH 20 0
BBX 19 25 1 0
BITMAP
038E00
07CF80
07DF00
0F9E00
0F3C00
000000
000000
03F800
0FFE00
3FFF00
7FFF80
7FFFC0
FE0FC0
FC0FC0
FC07E0
FC07E0
FC07E0
FC07E0
FC0FC0
FE0FC0
7FFFC0
7FFF80
3FFF00
0FFE00
03F800
ENDCHAR
STARTCHAR OE
ENCODING 338
SWIDTH 1114 0
DWIDTH 36 0
BBX 33 23 1 0
BITMAP
00FFFFFF80
03FFFFFF80
0FFFFFFF80
1FFFFFFF80
3FFFFFFF80
7F81F80000
7F01F80000
FE01F80000
FC01F80000
FC01FFFF00
FC01FFFF00
FC01FFFF00
FC01FFFF00
FC01FFFF00
FC01F80000
FE01F80000
7F01F80000
7F81F80000
3FFFFFFF80
1FFFFFFF80
0FFFFFFF80
03FFFFFF80
00FFFFFF80
ENDCHAR
STARTCHAR oe
ENCODING 339
SWIDTH 1017 0
DWIDTH 33 0
BBX 31 18 1 0
BITMAP
03F01F80
0FFC7FE0
3FFEFFF0
7FFFFFF8
7FFFF0FC
FE0FE07C
FC0FC07C
FC07FFFE
FC07FFFE
FC07FFFE
FC07C000
FC0FE000
FE0FF060
7FFFFFF0
7FFFFFFC
3FFEFFF8
0FFC7FE0
03F01F80
ENDCHAR
STARTCHAR Racute
ENCODING 340
SWIDTH 724 0
DWIDTH 23 0
BBX 20 30 2 0
BITMAP
003000
007E00
00FC00
00F800
03E000
000000
000000
FFFC00
FFFF00
FFFFC0
FFFFC0
FFFFE0
FC07E0
FC03E0
FC03F0
FC03F0
FC03F0
FC07E0
FC0FE0
FFFFE0
FFFFC0
FFFF80
FFFF00
FFFF00
FC1F80
FC1F80
FC0FC0
FC0FE0
FC07E0
FC07F0
ENDCHAR
STARTCHAR racute
ENCODING 341
SWIDTH 430 0
DWIDTH 14 0
BBX 11 25 2 0
BITMAP
0380
07E0
07C0
0F80
1F00
0000
0000
FC60
FDE0
FFE0
FFE0
FFE0
FF00
FE00
FC00
FC00
FC00
FC00
FC00
FC00
FC00
FC00
FC00
FC00
FC00
ENDCHAR
STARTCHAR Rcommaaccent
ENCODING 342
SWIDTH 724 0
DWIDTH 23 0
BBX 20 31 2 -8
BITMAP
FFFC00
FFFF00
FFFFC0
FFFFC0
FFFFE0
FC07E0
FC03E0
FC03F0
FC03F0
FC03F0
FC07E0
FC0FE0
FFFFE0
FFFFC0
FFFF80
FFFF00
FFFF00
FC1F80
FC1F80
FC0FC0
FC0FE0
FC07E0
FC07F0
000000
000000
01F000
01E000
01E000
01C000
03C000
03C000
ENDCHAR
STARTCHAR rcommaaccent
ENCODING 343
SWIDTH 430 0
DWIDTH 14 0
BBX 11 26 2 -8
BITMAP
FC60
FDE0
FFE0
FFE0
FFE0
FF00
FE00
FC00
FC00
FC00
FC00
FC00
FC00
FC00
FC00
FC00
FC00
FC00
0000
0000
7800
F800
F000
F000
E000
E000
ENDCHAR
STARTCHAR Rcaron
ENCODING 344
SWIDTH 724 0
DWIDTH 23 0
BBX 20 30 2 0
BITMAP
1E1E00
0F3C00
07F800
07F800
03F000
000000
000000
FFFC00
FFFF00
FFFFC0
FFFFC0
FFFFE0
FC07E0
FC03E0
FC03F0
FC03F0
FC03F0
FC07E0
FC0FE0
FFFFE0
FFFFC0
FFFF80
FFFF00
FFFF00
FC1F80
FC1F80
FC0FC0
FC0FE0
FC07E0
FC07F0
ENDCHAR
STARTCHAR rcaron
ENCODING 345
SWIDTH 430 0
DWIDTH 14 0
BBX 12 25 2 0
BITMAP
F1F0
79E0
7FC0
3F80
1F80
0000
0000
FC60
FDE0
FFE0
FFE0
FFE0
FF00
FE00
FC00
FC00
FC00
FC00
FC00
FC00
FC00
FC00
FC00
FC00
FC00
ENDCHAR
STARTCHAR Sacute
ENCODING 346
SWIDTH 646 0
DWIDTH 21 0
BBX 19 30 1 0
BITMAP
003800
003F00
007C00
00F800
01F000
000000
000000
03FC00
0FFF80
1FFFE0
3FFFC0
7FFFC0
7E0780
7E0180
7F0000
7FC000
7FF800
3FFE00
1FFF80
07FFC0
00FFC0
001FE0
400FE0
7007E0
FC0FE0
FFFFC0
FFFFC0
7FFF80
1FFF00
03FC00
ENDCHAR
STARTCHAR sacute
ENCODING 347
SWIDTH 517 0
DWIDTH 17 0
BBX 15 25 1 0
BITMAP
00E0
01F8
03F0
03E0
07C0
0000
0000
0FE0
3FF8
7FFE
7FFC
FFFC
FC18
FC00
7F80
3FF0
1FF8
03FC
407E
607E
FFFE
FFFC
FFFC
7FF8
0FE0
ENDCHAR
STARTCHAR Scircumflex
ENCODING 348
SWIDTH 646 0
DWIDTH 21 0
BBX 19 30 1 0
BITMAP
01F800
01F800
03FC00
07BE00
0F9F00
000000
000000
03FC00
0FFF80
1FFFE0
3FFFC0
7FFFC0
7E0780
7E0180
7F0000
7FC000
7FF800
3FFE00
1FFF80
07FFC0
00FFC0
001FE0
400FE0
7007E0
FC0FE0
FFFFC0
FFFFC0
7FFF80
1FFF00
03FC00
ENDCHAR
STARTCHAR scircumflex
ENCODING 349
SWIDTH 517 0
DWIDTH 17 0
BBX 15 25 1 0
BITMAP
07C0
0FE0
1FF0
1EF0
3C7C
0000
0000
0FE0
3FF8
7FFE
7FFC
FFFC
FC18
FC00
7F80
3FF0
1FF8
03FC
407E
607E
FFFE
FFFC
FFFC
7FF8
0FE0
ENDCHAR
STARTCHAR Scedilla
ENCODING 350
SWIDTH 646 0
DWIDTH 21 0
BBX 19 31 1 -8
BITMAP
03FC00
0FFF80
1FFFE0
3FFFC0
7FFFC0
7E0780
7E0180
7E0000
7F8000
7FF000
3FFE00
1FFF00
0FFF80
03FFC0
007FE0
400FE0
6007E0
7807E0
FE0FE0
FFFFC0
FFFFC0
7FFF80
1FFF00
03FC00
00E000
00E000
01F800
003800
01FC00
03F800
03F000
ENDCHAR
STARTCHAR scedilla
ENCODING 351
SWIDTH 517 0
DWIDTH 17 0
BBX 15 26 1 -8
BITMAP
0FE0
3FF8
7FFE
7FFC
FFFC
FC18
FC08
FF00
7FE0
3FF8
1FFC
07FC
00FE
407E
F87E
FFFC
FFFC
7FF8
1FE0
0380
0780
07C0
01E0
0FE0
0FE0
1FC0
ENDCHAR
STARTCHAR Scaron
ENCODING 352
SWIDTH 646 0
DWIDTH 21 0
BBX 19 30 1 0
BITMAP
0F1F00
0FBE00
07FC00
03F800
01F000
000000
000000
03FC00
0FFF80
1FFFE0
3FFFC0
7FFFC0
7E0780
7E0180
7F0000
7FC000
7FF800
3FFE00
1FFF80
07FFC0
00FFC0
001FE0
400FE0
7007E0
FC0FE0
FFFFC0
FFFFC0
7FFF80
1FFF00
03FC00
ENDCHAR
STARTCHAR scaron
ENCODING 353
SWIDTH 517 0
DWIDTH 17 0
BBX 15 25 1 0
BITMAP
3C7C
3EF8
1FF0
0FE0
07C0
0000
0000
0FE0
3FF8
7FFE
7FFC
FFFC
FC18
FC00
7F80
3FF0
1FF8
03FC
407E
607E
FFFE
FFFC
FFFC
7FF8
0FE0
ENDCHAR
STARTCHAR uni0162
ENCODING 354
SWIDTH 614 0
DWIDTH 20 0
BBX 19 31 0 -8
BITMAP
FFFFE0
FFFFE0
FFFFE0
FFFFE0
FFFFE0
01F800
01F800
01F800
01F800
01F800
01F800
01F800
01F800
01F800
01F800
01F800
01F800
01F800
01F800
01F800
01F800
01F800
01F800
00F000
00E000
00F000
017800
003C00
01FC00
03F800
01F000
ENDCHAR
STARTCHAR uni0163
ENCODING 355
SWIDTH 437 0
DWIDTH 14 0
BBX 12 30 1 -8
BITMAP
3F00
3F00
3F00
3F00
3F00
FFF0
FFF0
FFF0
FFF0
3F00
3F00
3F00
3F00
3F00
3F00
3F00
3F00
3FF0
3FF0
1FF0
1FF0
07E0
0380
0380
07E0
01E0
00E0
0FE0
0FE0
0FC0
ENDCHAR
STARTCHAR Tcaron
ENCODING 356
SWIDTH 614 0
DWIDTH 20 0
BBX 19 30 0 0
BITMAP
0F0F00
079E00
07FC00
03F800
01F800
000000
000000
FFFFE0
FFFFE0
FFFFE0
FFFFE0
FFFFE0
01F800
01F800
01F800
01F800
01F800
01F800
01F800
01F800
01F800
01F800
01F800
01F800
01F800
01F800
01F800
01F800
01F800
01F800
ENDCHAR
STARTCHAR tcaron
ENCODING 357
SWIDTH 437 0
DWIDTH 14 0
BBX 14 24 1 0
BITMAP
007C
0078
3F78
3F78
3F78
3F78
3F00
FFF0
FFF0
FFF0
FFF0
3F00
3F00
3F00
3F00
3F00
3F00
3F00
3F00
3FF0
3FF0
1FF0
0FF0
07E0
ENDCHAR
STARTCHAR Tbar
ENCODING 358
SWIDTH 614 0
DWIDTH 20 0
BBX 19 23 0 0
BITMAP
FFFFE0
FFFFE0
FFFFE0
FFFFE0
FFFFE0
01F800
01F800
01F800
01F800
01F800
01F800
1FFF80
1FFF80
1FFF80
01F800
01F800
01F800
01F800
01F800
01F800
01F800
01F800
01F800
ENDCHAR
STARTCHAR tbar
ENCODING 359
SWIDTH 437 0
DWIDTH 14 0
BBX 12 22 1 0
BITMAP
3F00
3F00
3F00
3F00
3F00
FFF0
FFF0
FFF0
3F00
3F00
3F00
FFF0
FFF0
FFF0
3F00
3F00
3F00
3FF0
3FF0
1FF0
0FF0
07E0
ENDCHAR
STARTCHAR Utilde
ENCODING 360
SWIDTH 749 0
DWIDTH 24 0
BBX 20 30 2 0
BITMAP
03C700
07FF00
07FF00
0FFE00
0F1C00
000000
000000
FC03F0
FC03F0
FC03F0
FC03F0
FC03F0
FC03F0
FC03F0
FC03F0
FC03F0
FC03F0
FC03F0
FC03F0
FC03F0
FC03F0
FC03F0
FC03F0
FC07F0
7E07E0
7FFFE0
3FFFC0
1FFF80
0FFF00
03FC00
ENDCHAR
STARTCHAR utilde
ENCODING 361
SWIDTH 664 0
DWIDTH 21 0
BBX 17 25 2 0
BITMAP
0F1E00
0FFC00
1FFC00
1FFC00
1C7800
000000
000000
F81F80
F81F80
F81F80
F81F80
F81F80
F81F80
F81F80
F81F80
F81F80
F81F80
F81F80
FC1F80
FC3F80
FFFF80
FFFF80
7FFF80
3FDF80
1F9F80
ENDCHAR
STARTCHAR Umacron
ENCODING 362
SWIDTH 749 0
DWIDTH 24 0
BBX 20 28 2 0
BITMAP
0FFF00
0FFF00
0FFF00
000000
000000
FC03F0
FC03F0
FC03F0
FC03F0
FC03F0
FC03F0
FC03F0
FC03F0
FC03F0
FC03F0
FC03F0
FC03F0
FC03F0
FC03F0
FC03F0
FC03F0
FC07F0
7E07E0
7FFFE0
3FFFC0
1FFF80
0FFF00
03FC00
ENDCHAR
STARTCHAR umacron
ENCODING 363
SWIDTH 664 0
DWIDTH 21 0
BBX 17 24 2 0
BITMAP
0FFC00
0FFC00
0FFC00
000000
000000
000000
F81F80
F81F80
F81F80
F81F80
F81F80
F81F80
F81F80
F81F80
F81F80
F81F80
F81F80
FC1F80
FC3F80
FFFF80
FFFF80
7FFF80
3FDF80
1F9F80
ENDCHAR
STARTCHAR Ubreve
ENCODING 364
SWIDTH 749 0
DWIDTH 24 0
BBX 20 31 2 0
BITMAP
070E00
070E00
079E00
07FC00
03FC00
00F000
000000
000000
FC03F0
FC03F0
FC03F0
FC03F0
FC03F0
FC03F0
FC03F0
FC03F0
FC03F0
FC03F0
FC03F0
FC03F0
FC03F0
FC03F0
FC03F0
FC03F0
FC07F0
7E07E0
7FFFE0
3FFFC0
1FFF80
0FFF00
03FC00
ENDCHAR
STARTCHAR ubreve
ENCODING 365
SWIDTH 664 0
DWIDTH 21 0
BBX 17 26 2 0
BITMAP
1E3C00
1E3C00
0F3C00
0FF800
07F000
03E000
000000
000000
F81F80
F81F80
F81F80
F81F80
F81F80
F81F80
F81F80
F81F80
F81F80
F81F80
F81F80
FC1F80
FC3F80
FFFF80
FFFF80
7FFF80
3FDF80
1F9F80
ENDCHAR
STARTCHAR Uring
ENCODING 366
SWIDTH 749 0
DWIDTH 24 0
BBX 20 32 2 0
BITMAP
00F000
01F800
039C00
039C00
039C00
039C00
01F800
00F000
000000
FC03F0
FC03F0
FC03F0
FC03F0
FC03F0
FC03F0
FC03F0
FC03F0
FC03F0
FC03F0
FC03F0
FC03F0
FC03F0
FC03F0
FC03F0
FC03F0
FC07F0
7E07E0
7FFFE0
3FFFC0
1FFF80
0FFF00
03FC00
ENDCHAR
STARTCHAR uring
ENCODING 367
SWIDTH 664 0
DWIDTH 21 0
BBX 17 27 2 0
BITMAP
01C000
03F000
077000
063000
063000
077000
03F000
01E000
000000
F81F80
F81F80
F81F80
F81F80
F81F80
F81F80
F81F80
F81F80
F81F80
F81F80
F81F80
FC1F80
FC3F80
FFFF80
FFFF80
7FFF80
3FDF80
1F9F80
ENDCHAR
STARTCHAR Uhungarumlaut
ENCODING 368
SWIDTH 749 0
DWIDTH 24 0
BBX 20 30 2 0
BITMAP
038700
03EFC0
03CF80
07DF00
0F9E00
000000
000000
FC03F0
FC03F0
FC03F0
FC03F0
FC03F0
FC03F0
FC03F0
FC03F0
FC03F0
FC03F0
FC03F0
FC03F0
FC03F0
FC03F0
FC03F0
FC03F0
FC07F0
7E07E0
7FFFE0
3FFFC0
1FFF80
0FFF00
03FC00
ENDCHAR
STARTCHAR uhungarumlaut
ENCODING 369
SWIDTH 664 0
DWIDTH 21 0
BBX 17 25 2 0
BITMAP
071C00
07DF00
0FBE00
0F3E00
1F7C00
000000
000000
F81F80
F81F80
F81F80
F81F80
F81F80
F81F80
F81F80
F81F80
F81F80
F81F80
F81F80
FC1F80
FC3F80
FFFF80
FFFF80
7FFF80
3FDF80
1F9F80
ENDCHAR
STARTCHAR Uogonek
ENCODING 370
SWIDTH 749 0
DWIDTH 24 0
BBX 20 30 2 -7
BITMAP
FC03F0
FC03F0
FC03F0
FC03F0
FC03F0
FC03F0
FC03F0
FC03F0
FC03F0
FC03F0
FC03F0
FC03F0
FC03F0
FC03F0
FC03F0
FC03F0
FC07F0
7E07E0
7FFFE0
3FFFC0
1FFF80
0FFF00
03FE00
001E00
001C00
003C00
003F00
003F00
003F80
000F00
ENDCHAR
STARTCHAR uogonek
ENCODING 371
SWIDTH 664 0
DWIDTH 21 0
BBX 17 26 2 -8
BITMAP
F81F80
F81F80
F81F80
F81F80
F81F80
F81F80
F81F80
F81F80
F81F80
F81F80
F81F80
FC1F80
FC3F80
FFFF80
FFFF80
7FFF80
3FDF80
1F9F80
001E00
003C00
003C00
007C00
007E00
007F00
003F00
001E00
ENDCHAR
STARTCHAR Wcircumflex
ENCODING 372
SWIDTH 1113 0
DWIDTH 36 0
BBX 36 30 0 0
BITMAP
0001F00000
0003F80000
0003FC0000
0007BE0000
000F1F0000
0000000000
0000000000
FC01F803F0
FE01F807E0
7E03F807E0
7E03FC07E0
7E03FC0FC0
3F03FC0FC0
3F07FE0FC0
3F07FE0F80
1F07FE1F80
1F87BE1F80
1F8F9F1F00
0F8F9F1F00
0FCF1F3F00
0FCF1F3E00
07DF0FBE00
07DF0FBE00
07FE0FFC00
03FE07FC00
03FE07FC00
03FC07F800
01FC07F800
01FC03F800
01FC03F000
ENDCHAR
STARTCHAR wcircumflex
ENCODING 373
SWIDTH 941 0
DWIDTH 30 0
BBX 30 25 0 0
BITMAP
000FC000
000FE000
001FE000
003EF000
007C7800
00000000
00000000
FC0FC07C
FC0FC0FC
7C0FE0FC
7E1FE0F8
7E1FE0F8
3E1FE1F0
3E1FF1F0
3F3FF1F0
1F3EF3E0
1F3CFBE0
0FBCFBE0
0FFCFBC0
0FF87FC0
07F87FC0
07F87F80
07F83F80
03F03F80
03F03F00
ENDCHAR
STARTCHAR Ycircumflex
ENCODING 374
SWIDTH 684 0
DWIDTH 22 0
BBX 22 30 0 0
BITMAP
00FC00
00FC00
01FE00
03DF00
07CF80
000000
000000
FC00FC
7E01F8
7E01F8
3F03F0
3F03F0
1F87E0
1F87E0
0FCFC0
0FCFC0
07FF80
07FF80
03FF00
03FF00
01FE00
01FE00
00FC00
00FC00
00FC00
00FC00
00FC00
00FC00
00FC00
00FC00
ENDCHAR
STARTCHAR ycircumflex
ENCODING 375
SWIDTH 584 0
DWIDTH 19 0
BBX 19 31 0 -6
BITMAP
01F000
03F800
07FC00
0FBC00
1F1E00
000000
000000
FC07E0
FC07C0
7C0FC0
7E0FC0
7E0F80
3E0F80
3F1F00
1F1F00
1F9F00
0FBE00
0FBE00
0FFE00
07FC00
07FC00
03F800
03F800
03F800
01F000
23F000
7FE000
7FE000
FFC000
FF8000
3F0000
ENDCHAR
STARTCHAR Ydieresis
ENCODING 376
SWIDTH 684 0
DWIDTH 22 0
BBX 22 30 0 0
BITMAP
018600
03CF00
07CF00
03CF00
038F00
000000
000000
FC00FC
7E01F8
7E01F8
3F03F0
3F03F0
1F87E0
1F87E0
0FCFC0
0FCFC0
07FF80
07FF80
03FF00
03FF00
01FE00
01FE00
00FC00
00FC00
00FC00
00FC00
00FC00
00FC00
00FC00
00FC00
ENDCHAR
STARTCHAR Zacute
ENCODING 377
SWIDTH 676 0
DWIDTH 22 0
BBX 20 30 1 0
BITMAP
003800
003F00
007C00
00F800
01F000
000000
000000
FFFFF0
FFFFF0
FFFFF0
FFFFF0
FFFFE0
001FC0
003F80
007F80
007F00
00FE00
01FC00
03F800
07F000
07F000
0FE000
1FC000
3F8000
7F0000
FFFFF0
FFFFF0
FFFFF0
FFFFF0
FFFFF0
ENDCHAR
STARTCHAR zacute
ENCODING 378
SWIDTH 555 0
DWIDTH 18 0
BBX 16 25 1 0
BITMAP
00E0
00FC
01F0
03E0
07C0
0000
0000
FFFF
FFFF
FFFF
FFFF
FFFE
00FC
01F8
03F0
07E0
0FE0
1FC0
1F80
3F00
7FFF
FFFF
FFFF
FFFF
FFFF
ENDCHAR
STARTCHAR Zdotaccent
ENCODING 379
SWIDTH 676 0
DWIDTH 22 0
BBX 20 31 1 0
BITMAP
00F000
01F800
01F800
01F800
01F800
00F000
000000
000000
FFFFF0
FFFFF0
FFFFF0
FFFFF0
FFFFE0
001FC0
003F80
007F80
007F00
00FE00
01FC00
03F800
07F000
07F000
0FE000
1FC000
3F8000
7F0000
FFFFF0
FFFFF0
FFFFF0
FFFFF0
FFFFF0
ENDCHAR
STARTCHAR zdotaccent
ENCODING 380
SWIDTH 555 0
DWIDTH 18 0
BBX 16 26 1 0
BITMAP
03C0
07E0
07E0
07E0
07E0
03C0
0000
0000
FFFF
FFFF
FFFF
FFFF
FFFE
00FC
01F8
03F0
07E0
0FE0
1FC0
1F80
3F00
7FFF
FFFF
FFFF
FFFF
FFFF
ENDCHAR
STARTCHAR Zcaron
ENCODING 381
SWIDTH 676 0
DWIDTH 22 0
BBX 20 30 1 0
BITMAP
0F1F00
0FBE00
07FC00
03F800
01F000
000000
000000
FFFFF0
FFFFF0
FFFFF0
FFFFF0
FFFFE0
001FC0
003F80
007F80
007F00
00FE00
01FC00
03F800
07F000
07F000
0FE000
1FC000
3F8000
7F0000
FFFFF0
FFFFF0
FFFFF0
FFFFF0
FFFFF0
ENDCHAR
STARTCHAR zcaron
ENCODING 382
SWIDTH 555 0
DWIDTH 18 0
BBX 16 25 1 0
BITMAP
3C3C
1E78
0FF0
0FF0
07E0
0000
0000
FFFF
FFFF
FFFF
FFFF
FFFE
00FC
01F8
03F0
07E0
0FE0
1FC0
1F80
3F00
7FFF
FFFF
FFFF
FFFF
FFFF
ENDCHAR
STARTCHAR uni018F
ENCODING 399
SWIDTH 791 0
DWIDTH 25 0
BBX 23 23 1 0
BITMAP
00FE00
07FFC0
0FFFE0
1FFFF0
1FFFF8
0F81FC
0700FC
0200FE
00007E
00007E
FFFFFE
FFFFFE
FFFFFE
FFFFFE
FC007E
7E00FE
7F00FC
3F81FC
3FFFF8
1FFFF0
0FFFE0
03FFC0
00FE00
ENDCHAR
STARTCHAR florin
ENCODING 402
SWIDTH 413 0
DWIDTH 13 0
BBX 20 32 -4 -6
BITMAP
000380
001FF0
003FE0
007FE0
00FFC0
00FC40
00FC00
00F800
00F800
00F800
07FF80
07FF80
07FF80
07FF80
01F800
01F000
01F000
01F000
03F000
03F000
03F000
03F000
03F000
03F000
03E000
03E000
07E000
3FE000
7FE000
7FC000
FF8000
3E0000
ENDCHAR
STARTCHAR Ohorn
ENCODING 416
SWIDTH 833 0
DWIDTH 27 0
BBX 25 28 1 0
BITMAP
00000100
00000700
00001F00
00000F80
00000F80
00FF0F00
03FFFF00
0FFFFE00
1FFFFC00
3FFFFC00
7F81FC00
7F00FE00
FE007E00
FC007F00
FC003F00
FC003F00
FC003F00
FC003F00
FC003F00
FC007F00
FE007E00
7F00FE00
7F81FC00
3FFFFC00
1FFFF800
0FFFF000
03FFC000
00FE0000
ENDCHAR
STARTCHAR ohorn
ENCODING 417
SWIDTH 679 0
DWIDTH 22 0
BBX 21 23 1 0
BITMAP
000008
000078
0000F8
000078
000078
03F8F8
0FFFF8
3FFFF0
7FFFE0
7FFFC0
FE0FC0
FC0FC0
FC07E0
FC07E0
FC07E0
FC07E0
FC0FC0
FE0FC0
7FFFC0
7FFF80
3FFF00
0FFE00
03F800
ENDCHAR
STARTCHAR Uhorn
ENCODING 431
SWIDTH 797 0
DWIDTH 26 0
BBX 24 28 2 0
BITMAP
000003
00001F
00000F
00000F
00000F
FC03FF
FC03FE
FC03FC
FC03F0
FC03F0
FC03F0
FC03F0
FC03F0
FC03F0
FC03F0
FC03F0
FC03F0
FC03F0
FC03F0
FC03F0
FC03F0
FC07F0
7E07E0
7FFFE0
3FFFC0
1FFF80
0FFF00
03FC00
ENDCHAR
STARTCHAR uhorn
ENCODING 432
SWIDTH 687 0
DWIDTH 22 0
BBX 21 23 2 0
BITMAP
000010
0000F8
0000F8
000078
0000F8
F81FF0
F81FF0
F81FC0
F81F80
F81F80
F81F80
F81F80
F81F80
F81F80
F81F80
F81F80
FC1F80
FC3F80
FFFF80
FFFF80
7FFF80
3FDF80
1F9F80
ENDCHAR
STARTCHAR uni01C4
ENCODING 452
SWIDTH 1442 0
DWIDTH 46 0
BBX 43 30 2 0
BITMAP
0000001E1E00
0000000F3C00
00000007F800
00000007F800
00000003F000
000000000000
000000000000
FFFC00FFFFE0
FFFF00FFFFE0
FFFFC0FFFFE0
FFFFE0FFFFE0
FFFFF0FFFFE0
FC07F0001FC0
FC03F8003F80
FC01F8007F00
FC01F800FE00
FC00FC01FC00
FC00FC03FC00
FC00FC03F800
FC00FC07F000
FC00FC0FE000
FC01F81FC000
FC01F83FC000
FC03F83F8000
FC07F07F0000
FFFFF0FFFFE0
FFFFE1FFFFE0
FFFFC1FFFFE0
FFFF01FFFFE0
FFF801FFFFE0
ENDCHAR
STARTCHAR uni01C5
ENCODING 453
SWIDTH 1321 0
DWIDTH 42 0
BBX 39 25 2 0
BITMAP
0000007C78
0000003EF8
FFFC001FF0
FFFF000FE0
FFFFC007C0
FFFFE00000
FFFFF00000
FC07F0FFFE
FC03F8FFFE
FC01F8FFFE
FC01F8FFFE
FC00FCFFFC
FC00FC01FC
FC00FC03F8
FC00FC07F0
FC00FC07E0
FC01F80FC0
FC01F81F80
FC03F83F00
FC07F07E00
FFFFF0FFFE
FFFFE0FFFE
FFFFC0FFFE
FFFF00FFFE
FFF800FFFE
ENDCHAR
STARTCHAR uni01C6
ENCODING 454
SWIDTH 1241 0
DWIDTH 40 0
BBX 38 25 1 0
BITMAP
000000F0F0
0007E079E0
0007E03FC0
0007E03FC0
0007E01F80
0007E00000
0007E00000
07C7E3FFFC
1FF7E3FFFC
3FFFE3FFFC
7FFFE3FFFC
7FFFE3FFF8
FE0FE003F0
FC0FE007E0
FC07E00FC0
FC07E01F80
FC07E03F80
FC07E07F00
FC0FE07E00
FE0FE0FC00
7FFFE1FFFC
7FFFE3FFFC
3FFFE3FFFC
1FF7E3FFFC
07C7E3FFFC
ENDCHAR
STARTCHAR uni01C7
ENCODING 455
SWIDTH 1102 0
DWIDTH 35 0
BBX 31 23 2 0
BITMAP
FC003FFE
FC003FFE
FC003FFE
FC003FFE
FC003FFE
FC00003E
FC00003E
FC00003E
FC00003E
FC00003E
FC00003E
FC00003E
FC00003E
FC00003E
FC00003E
FC00003E
FC00207E
FC00787E
FFFF7FFE
FFFFFFFE
FFFF7FFC
FFFF3FF8
FFFF0FE0
ENDCHAR
STARTCHAR uni01C8
ENCODING 456
SWIDTH 875 0
DWIDTH 28 0
BBX 24 32 2 -6
BITMAP
00001E
00003F
00003F
FC003F
FC003F
FC001E
FC0000
FC0000
FC003F
FC003F
FC003F
FC003F
FC003F
FC003F
FC003F
FC003F
FC003F
FC003F
FC003F
FC003F
FC003F
FFFF3F
FFFF3F
FFFF3F
FFFF3F
FFFF3F
00003F
0001FF
0001FF
0003FE
0003FC
0001F8
ENDCHAR
STARTCHAR uni01C9
ENCODING 457
SWIDTH 636 0
DWIDTH 20 0
BBX 16 32 2 -6
BITMAP
000E
001F
FC3F
FC3F
FC1F
FC0E
FC00
FC00
FC1F
FC1F
FC1F
FC1F
FC1F
FC1F
FC1F
FC1F
FC1F
FC1F
FC1F
FC1F
FC1F
FC1F
FC1F
FC1F
FC1F
FC1F
003F
01FF
01FF
01FE
01FE
03F8
ENDCHAR
STARTCHAR uni01CA
ENCODING 458
SWIDTH 1325 0
DWIDTH 42 0
BBX 39 23 2 0
BITMAP
FC01F87FFE
FC00F87FFE
FE00F87FFE
FF00F87FFE
FF80F87FFE
FF80F8007E
FFC0F8007E
FFE0F8007E
FFF0F8007E
FFF0F8007E
FFF8F8007E
FDFCF8007E
FCFCF8007E
FC7EF8007E
FC7FF8007E
FC3FF8007E
FC1FF8607E
FC0FF8F0FC
FC0FF8FFFC
FC07F9FFFC
FC03F8FFF8
FC01F87FF0
FC01F81FC0
ENDCHAR
STARTCHAR uni01CB
ENCODING 459
SWIDTH 1098 0
DWIDTH 35 0
BBX 31 32 2 -6
BITMAP
0000003C
0000007E
0000007E
FC01F87E
FC00F87E
FE00F83C
FF00F800
FF80F800
FF80F87E
FFC0F87E
FFE0F87E
FFF0F87E
FFF0F87E
FFF8F87E
FDFCF87E
FCFCF87E
FC7EF87E
FC7FF87E
FC3FF87E
FC1FF87E
FC0FF87E
FC0FF87E
FC07F87E
FC03F87E
FC01F87E
FC01F87E
0000007E
000003FE
000003FE
000003FC
000007F8
000003F0
ENDCHAR
STARTCHAR uni01CC
ENCODING 460
SWIDTH 986 0
DWIDTH 32 0
BBX 28 32 2 -6
BITMAP
000001C0
000003E0
000003F0
000003F0
000003E0
000001C0
00000000
00000000
FC7C03F0
FDFF03F0
FFFF83F0
FFFF83F0
FFFFC3F0
FE1FC3F0
FC0FC3F0
FC0FC3F0
FC0FC3F0
FC0FC3F0
FC0FC3F0
FC0FC3F0
FC0FC3F0
FC0FC3F0
FC0FC3F0
FC0FC3F0
FC0FC3F0
FC0FC3F0
000003E0
00001FE0
00003FE0
00003FE0
00003FC0
00003F00
ENDCHAR
STARTCHAR Gcaron
ENCODING 486
SWIDTH 743 0
DWIDTH 24 0
BBX 21 30 1 0
BITMAP
07C780
03EF80
01FF00
00FE00
007C00
000000
000000
003E00
03FFC0
07FFF0
1FFFF8
3FFFF0
3FC3F0
7F00E0
FE0040
FE0000
FC0000
FC0FF8
FC0FF8
FC0FF8
FC0FF8
FC0FF8
FE00F8
7F00F8
7F80F8
3FFFF8
1FFFF8
0FFFF8
07FFF0
01FF80
ENDCHAR
STARTCHAR gcaron
ENCODING 487
SWIDTH 648 0
DWIDTH 21 0
BBX 18 31 1 -6
BITMAP
1E1E00
0F3C00
0FF800
07F800
03F000
000000
000000
0FCFC0
1FEFC0
3FFFC0
7FFFC0
FFFFC0
FC1FC0
F80FC0
F80FC0
F80FC0
F80FC0
FC1FC0
FE3FC0
7FFFC0
7FFFC0
3FFFC0
1FEFC0
038FC0
000FC0
301F80
3FFF80
7FFF00
7FFE00
3FFC00
07F000
ENDCHAR
STARTCHAR uni01EA
ENCODING 490
SWIDTH 804 0
DWIDTH 26 0
BBX 24 30 1 -7
BITMAP
00FF00
03FFC0
0FFFF0
1FFFF8
3FFFFC
7F81FC
7F00FE
FE007E
FC007F
FC003F
FC003F
FC003F
FC003F
FC003F
FC007F
FE007E
7F00FE
7F81FC
3FFFF8
1FFFF0
0FFFE0
03FFC0
00FF80
000780
000700
000F00
000FC0
000FC0
0007E0
0003C0
ENDCHAR
STARTCHAR uni01EB
ENCODING 491
SWIDTH 638 0
DWIDTH 20 0
BBX 19 26 1 -8
BITMAP
03F800
0FFE00
3FFF00
7FFF80
7FFFC0
FE0FC0
FC0FC0
FC07E0
FC07E0
FC07E0
FC07E0
FC0FC0
FE0FC0
7FFFC0
7FFF80
3FFF00
0FFE00
03FC00
003C00
007800
007800
007800
007E00
007E00
007E00
003E00
ENDCHAR
STARTCHAR Aringacute
ENCODING 506
SWIDTH 773 0
DWIDTH 25 0
BBX 25 38 0 0
BITMAP
00060000
000F0000
001FC000
003F0000
007C0000
00000000
001C0000
007E0000
00770000
00630000
00630000
00770000
007E0000
001C0000
00000000
007F0000
007F0000
00FF8000
00FF8000
00FF8000
01FFC000
01FFC000
03F7E000
03E7E000
07E3E000
07E3F000
07C3F000
0FC1F800
0FC1F800
1FFFF800
1FFFFC00
1FFFFC00
3FFFFE00
3FFFFE00
7E007E00
7E003F00
FC003F00
FC003F80
ENDCHAR
STARTCHAR aringacute
ENCODING 507
SWIDTH 601 0
DWIDTH 19 0
BBX 17 33 1 0
BITMAP
002000
00F000
01FC00
03F000
07C000
000000
01C000
03F000
077000
063000
063000
077000
03F000
01C000
000000
07F000
3FFC00
7FFE00
3FFF00
3FFF00
203F00
001F80
1FFF80
7FFF80
7FFF80
FC1F80
F81F80
F81F80
FC7F80
FFFF80
7FFF80
7FDF80
1F9F80
ENDCHAR
STARTCHAR AEacute
ENCODING 508
SWIDTH 1106 0
DWIDTH 35 0
BBX 34 30 0 0
BITMAP
000001C000
000001F800
000003F000
000007C000
00000F8000
0000000000
0000000000
000FFFFFC0
000FFFFFC0
001FFFFFC0
001FFFFFC0
003FFFFFC0
007EFC0000
007CFC0000
00FCFC0000
00F8FC0000
01F8FFFF80
01F0FFFF80
03F0FFFF80
03E0FFFF80
07E0FFFF80
07FFFC0000
0FFFFC0000
1FFFFC0000
1FFFFC0000
3FFFFFFFC0
3F00FFFFC0
7E00FFFFC0
7E00FFFFC0
FC00FFFFC0
ENDCHAR
STARTCHAR aeacute
ENCODING 509
SWIDTH 965 0
DWIDTH 31 0
BBX 29 25 1 0
BITMAP
0001C000
0003F000
0007E000
0007C000
000F0000
00000000
00000000
07F07E00
3FFCFFC0
7FFFFFE0
7FFFFFF0
3FFFFFF0
203FC1F8
001F81F8
0FFFFFF8
3FFFFFF8
7FFFFFF8
FC1F8000
F81F8000
F81FC0C0
FC3FFFE0
FFFFFFF0
7FF3FFE0
3FE1FFC0
1F807F00
ENDCHAR
STARTCHAR Oslashacute
ENCODING 510
SWIDTH 804 0
DWIDTH 26 0
BBX 24 31 1 -1
BITMAP
000600
000FC0
001F80
003F00
007C00
00003C
000078
00FF70
03FFF0
0FFFF0
1FFFF8
3FFFFC
7F83FC
7F07FE
FE0F7E
FC0E7F
FC1E3F
FC1C3F
FC3C3F
FC783F
FC783F
FCF07F
FEE07E
7FE0FE
7FC1FC
3FFFFC
1FFFF8
0FFFF0
0FFFC0
1EFE00
3C0000
ENDCHAR
STARTCHAR oslashacute
ENCODING 511
SWIDTH 638 0
DWIDTH 20 0
BBX 19 27 1 -2
BITMAP
003800
007E00
00FC00
00F800
01F1C0
0001C0
000380
03F300
0FFF00
3FFF00
7FFF80
7FFFC0
FE1FC0
FC37C0
F877E0
F8E7E0
F9C7E0
F987E0
FF87C0
FF0FC0
7FFFC0
3FFF80
1FFF00
1FFE00
3BF800
700000
F00000
ENDCHAR
STARTCHAR uni0200
ENCODING 512
SWIDTH 773 0
DWIDTH 25 0
BBX 25 30 0 0
BITMAP
01C70000
07DF0000
03EF8000
03E78000
01F7C000
00000000
00000000
007F0000
007F0000
00FF8000
00FF8000
00FF8000
01FFC000
01FFC000
03F7E000
03E7E000
07E3E000
07E3F000
07C3F000
0FC1F800
0FC1F800
1FFFF800
1FFFFC00
1FFFFC00
3FFFFE00
3FFFFE00
7E007E00
7E003F00
FC003F00
FC003F80
ENDCHAR
STARTCHAR uni0201
ENCODING 513
SWIDTH 601 0
DWIDTH 19 0
BBX 17 25 1 0
BITMAP
1C7000
7DF800
3EF800
1E7C00
1F3C00
000000
000000
07F000
3FFC00
7FFE00
3FFF00
3FFF00
203F00
001F80
1FFF80
7FFF80
7FFF80
FC1F80
F81F80
F81F80
FC7F80
FFFF80
7FFF80
7FDF80
1F9F80
ENDCHAR
STARTCHAR uni0202
ENCODING 514
SWIDTH 773 0
DWIDTH 25 0
BBX 25 30 0 0
BITMAP
003E0000
00FF0000
00FF8000
01E38000
01E3C000
00000000
00000000
007F0000
007F0000
00FF8000
00FF8000
00FF8000
01FFC000
01FFC000
03F7E000
03E7E000
07E3E000
07E3F000
07C3F000
0FC1F800
0FC1F800
1FFFF800
1FFFFC00
1FFFFC00
3FFFFE00
3FFFFE00
7E007E00
7E003F00
FC003F00
FC003F80
ENDCHAR
STARTCHAR uni0203
ENCODING 515
SWIDTH 601 0
DWIDTH 19 0
BBX 17 25 1 0
BITMAP
03E000
07F000
0FF800
1E3C00
1E3C00
000000
000000
07F000
3FFC00
7FFE00
3FFF00
3FFF00
203F00
001F80
1FFF80
7FFF80
7FFF80
FC1F80
F81F80
F81F80
FC7F80
FFFF80
7FFF80
7FDF80
1F9F80
ENDCHAR
STARTCHAR uni0204
ENCODING 516
SWIDTH 675 0
DWIDTH 22 0
BBX 18 30 2 0
BITMAP
0C3800
3EF800
1E7C00
1F3C00
0F3E00
008000
000000
FFFFC0
FFFFC0
FFFFC0
FFFFC0
FFFFC0
FC0000
FC0000
FC0000
FC0000
FFFF80
FFFF80
FFFF80
FFFF80
FFFF80
FC0000
FC0000
FC0000
FC0000
FFFFC0
FFFFC0
FFFFC0
FFFFC0
FFFFC0
ENDCHAR
STARTCHAR uni0205
ENCODING 517
SWIDTH 603 0
DWIDTH 19 0
BBX 18 25 1 0
BITMAP
1C7000
7DF800
3EF800
1E7C00
1F3C00
000000
000000
03F000
1FFC00
3FFE00
7FFF00
7FFF80
FC1F80
FC0F80
FFFF80
FFFFC0
FFFFC0
FC0000
FC0400
FE0C00
7FFE00
7FFF00
3FFF00
1FFC00
03F000
ENDCHAR
STARTCHAR uni0206
ENCODING 518
SWIDTH 675 0
DWIDTH 22 0
BBX 18 30 2 0
BITMAP
01F000
07F800
0FFC00
0F3C00
0E1C00
000000
000000
FFFFC0
FFFFC0
FFFFC0
FFFFC0
FFFFC0
FC0000
FC0000
FC0000
FC0000
FFFF80
FFFF80
FFFF80
FFFF80
FFFF80
FC0000
FC0000
FC0000
FC0000
FFFFC0
FFFFC0
FFFFC0
FFFFC0
FFFFC0
ENDCHAR
STARTCHAR uni0207
ENCODING 519
SWIDTH 603 0
DWIDTH 19 0
BBX 18 25 1 0
BITMAP
03E000
07F000
0FF800
0E3C00
1E3C00
000000
000000
03F000
1FFC00
3FFE00
7FFF00
7FFF80
FC1F80
FC0F80
FFFF80
FFFFC0
FFFFC0
FC0000
FC0400
FE0C00
7FFE00
7FFF00
3FFF00
1FFC00
03F000
ENDCHAR
STARTCHAR uni0208
ENCODING 520
SWIDTH 319 0
DWIDTH 10 0
BBX 13 30 -2 0
BITMAP
30E0
FBE0
F9F0
7DF0
3CF8
0000
0000
0FC0
0FC0
0FC0
0FC0
0FC0
0FC0
0FC0
0FC0
0FC0
0FC0
0FC0
0FC0
0FC0
0FC0
0FC0
0FC0
0FC0
0FC0
0FC0
0FC0
0FC0
0FC0
0FC0
ENDCHAR
STARTCHAR uni0209
ENCODING 521
SWIDTH 313 0
DWIDTH 10 0
BBX 13 25 -2 0
BITMAP
70E0
FBE0
F9F0
7DF0
3CF8
0000
0000
0FC0
0FC0
0FC0
0FC0
0FC0
0FC0
0FC0
0FC0
0FC0
0FC0
0FC0
0FC0
0FC0
0FC0
0FC0
0FC0
0FC0
0FC0
ENDCHAR
STARTCHAR uni020A
ENCODING 522
SWIDTH 319 0
DWIDTH 10 0
BBX 10 30 0 0
BITMAP
1F00
7F80
FFC0
F3C0
E1C0
0000
0000
3F00
3F00
3F00
3F00
3F00
3F00
3F00
3F00
3F00
3F00
3F00
3F00
3F00
3F00
3F00
3F00
3F00
3F00
3F00
3F00
3F00
3F00
3F00
ENDCHAR
STARTCHAR uni020B
ENCODING 523
SWIDTH 313 0
DWIDTH 10 0
BBX 10 25 0 0
BITMAP
1E00
7F80
7F80
F3C0
E1C0
0000
0000
3F00
3F00
3F00
3F00
3F00
3F00
3F00
3F00
3F00
3F00
3F00
3F00
3F00
3F00
3F00
3F00
3F00
3F00
ENDCHAR
STARTCHAR uni020C
ENCODING 524
SWIDTH 804 0
DWIDTH 26 0
BBX 24 30 1 0
BITMAP
038600
0FDF00
07DF00
03CF80
01E780
000040
000000
00FF00
03FFC0
0FFFF0
1FFFF8
3FFFFC
7F81FC
7F00FE
FE007E
FC007F
FC003F
FC003F
FC003F
FC003F
FC003F
FC007F
FE007E
7F00FE
7F81FC
3FFFFC
1FFFF8
0FFFF0
03FFC0
00FE00
ENDCHAR
STARTCHAR uni020D
ENCODING 525
SWIDTH 638 0
DWIDTH 20 0
BBX 19 25 1 0
BITMAP
0C3800
3EF800
1E7C00
1F3C00
0FBE00
000000
000000
03F800
0FFE00
3FFF00
7FFF80
7FFFC0
FE0FC0
FC0FC0
FC07E0
FC07E0
FC07E0
FC07E0
FC0FC0
FE0FC0
7FFFC0
7FFF80
3FFF00
0FFE00
03F800
ENDCHAR
STARTCHAR uni020E
ENCODING 526
SWIDTH 804 0
DWIDTH 26 0
BBX 24 30 1 0
BITMAP
007C00
00FF00
01FF00
01E780
01C380
000000
000000
00FF00
03FFC0
0FFFF0
1FFFF8
3FFFFC
7F81FC
7F00FE
FE007E
FC007F
FC003F
FC003F
FC003F
FC003F
FC003F
FC007F
FE007E
7F00FE
7F81FC
3FFFFC
1FFFF8
0FFFF0
03FFC0
00FE00
ENDCHAR
STARTCHAR uni020F
ENCODING 527
SWIDTH 638 0
DWIDTH 20 0
BBX 19 25 1 0
BITMAP
01F000
07F800
07FC00
0F3C00
0F1C00
000000
000000
03F800
0FFE00
3FFF00
7FFF80
7FFFC0
FE0FC0
FC0FC0
FC07E0
FC07E0
FC07E0
FC07E0
FC0FC0
FE0FC0
7FFFC0
7FFF80
3FFF00
0FFE00
03F800
ENDCHAR
STARTCHAR uni0210
ENCODING 528
SWIDTH 724 0
DWIDTH 23 0
BBX 20 30 2 0
BITMAP
0E3800
3EF800
1F7C00
1F3C00
0FBE00
000000
000000
FFFC00
FFFF00
FFFFC0
FFFFC0
FFFFE0
FC07E0
FC03E0
FC03F0
FC03F0
FC03F0
FC07E0
FC0FE0
FFFFE0
FFFFC0
FFFF80
FFFF00
FFFF00
FC1F80
FC1F80
FC0FC0
FC0FE0
FC07E0
FC07F0
ENDCHAR
STARTCHAR uni0211
ENCODING 529
SWIDTH 430 0
DWIDTH 14 0
BBX 13 25 0 0
BITMAP
38E0
F9F0
7DF0
3CF8
1E78
0000
0000
3F18
3F78
3FF8
3FF8
3FF8
3FC0
3F80
3F00
3F00
3F00
3F00
3F00
3F00
3F00
3F00
3F00
3F00
3F00
ENDCHAR
STARTCHAR uni0212
ENCODING 530
SWIDTH 724 0
DWIDTH 23 0
BBX 20 30 2 0
BITMAP
01F000
07F800
07FC00
0F3C00
0F1E00
000000
000000
FFFC00
FFFF00
FFFFC0
FFFFC0
FFFFE0
FC07E0
FC03E0
FC03F0
FC03F0
FC03F0
FC07E0
FC0FE0
FFFFE0
FFFFC0
FFFF80
FFFF00
FFFF00
FC1F80
FC1F80
FC0FC0
FC0FE0
FC07E0
FC07F0
ENDCHAR
STARTCHAR uni0213
ENCODING 531
SWIDTH 430 0
DWIDTH 14 0
BBX 11 25 2 0
BITMAP
1F00
3FC0
7FC0
79E0
F1E0
0000
0000
FC60
FDE0
FFE0
FFE0
FFE0
FF00
FE00
FC00
FC00
FC00
FC00
FC00
FC00
FC00
FC00
FC00
FC00
FC00
ENDCHAR
STARTCHAR uni0214
ENCODING 532
SWIDTH 749 0
DWIDTH 24 0
BBX 20 30 2 0
BITMAP
061C00
3F7C00
1F3C00
0FBE00
079F00
000000
000000
FC03F0
FC03F0
FC03F0
FC03F0
FC03F0
FC03F0
FC03F0
FC03F0
FC03F0
FC03F0
FC03F0
FC03F0
FC03F0
FC03F0
FC03F0
FC03F0
FC07F0
7E07E0
7FFFE0
3FFFC0
1FFF80
0FFF00
03FC00
ENDCHAR
STARTCHAR uni0215
ENCODING 533
SWIDTH 664 0
DWIDTH 21 0
BBX 17 25 2 0
BITMAP
1C7000
7DF800
3EF800
1E7C00
1F3C00
000000
000000
F81F80
F81F80
F81F80
F81F80
F81F80
F81F80
F81F80
F81F80
F81F80
F81F80
F81F80
FC1F80
FC3F80
FFFF80
FFFF80
7FFF80
3FDF80
1F9F80
ENDCHAR
STARTCHAR uni0216
ENCODING 534
SWIDTH 749 0
DWIDTH 24 0
BBX 20 30 2 0
BITMAP
00F000
03FC00
07FE00
079E00
070E00
000000
000000
FC03F0
FC03F0
FC03F0
FC03F0
FC03F0
FC03F0
FC03F0
FC03F0
FC03F0
FC03F0
FC03F0
FC03F0
FC03F0
FC03F0
FC03F0
FC03F0
FC07F0
7E07E0
7FFFE0
3FFFC0
1FFF80
0FFF00
03FC00
ENDCHAR
STARTCHAR uni0217
ENCODING 535
SWIDTH 664 0
DWIDTH 21 0
BBX 17 25 2 0
BITMAP
03E000
07F000
0FF800
0E3C00
1E3C00
000000
000000
F81F80
F81F80
F81F80
F81F80
F81F80
F81F80
F81F80
F81F80
F81F80
F81F80
F81F80
FC1F80
FC3F80
FFFF80
FFFF80
7FFF80
3FDF80
1F9F80
ENDCHAR
STARTCHAR Scommaaccent
ENCODING 536
SWIDTH 646 0
DWIDTH 21 0
BBX 19 31 1 -8
BITMAP
03FC00
0FFF80
1FFFE0
3FFFC0
7FFFC0
7E0780
7E0180
7F0000
7FC000
7FF800
3FFE00
1FFF80
07FFC0
00FFC0
001FE0
400FE0
7007E0
FC0FE0
FFFFC0
FFFFC0
7FFF80
1FFF00
03FC00
000000
000000
01F000
01E000
01E000
01E000
01C000
03C000
ENDCHAR
STARTCHAR scommaaccent
ENCODING 537
SWIDTH 517 0
DWIDTH 17 0
BBX 15 26 1 -8
BITMAP
0FE0
3FF8
7FFE
7FFC
FFFC
FC18
FC00
7F80
3FF0
1FF8
03FC
407E
607E
FFFE
FFFC
FFFC
7FF8
0FE0
0000
0000
07C0
0780
0F80
0F00
0F00
0E00
ENDCHAR
STARTCHAR uni021A
ENCODING 538
SWIDTH 614 0
DWIDTH 20 0
BBX 19 31 0 -8
BITMAP
FFFFE0
FFFFE0
FFFFE0
FFFFE0
FFFFE0
01F800
01F800
01F800
01F800
01F800
01F800
01F800
01F800
01F800
01F800
01F800
01F800
01F800
01F800
01F800
01F800
01F800
01F800
000000
000000
01F000
01F000
01E000
01E000
01C000
03C000
ENDCHAR
STARTCHAR uni021B
ENCODING 539
SWIDTH 437 0
DWIDTH 14 0
BBX 12 30 1 -8
BITMAP
3F00
3F00
3F00
3F00
3F00
FFF0
FFF0
FFF0
FFF0
3F00
3F00
3F00
3F00
3F00
3F00
3F00
3F00
3FF0
3FF0
1FF0
0FF0
07E0
0000
0000
07C0
0780
0780
0780
0700
0F00
ENDCHAR
STARTCHAR uni022A
ENCODING 554
SWIDTH 804 0
DWIDTH 26 0
BBX 24 34 1 0
BITMAP
01FF80
01FF80
01FF80
000000
00C300
01E780
03E780
03E780
01C700
000000
000000
00FF00
03FFC0
0FFFF0
1FFFF8
3FFFFC
7F81FC
7F00FE
FE007E
FC007F
FC003F
FC003F
FC003F
FC003F
FC003F
FC007F
FE007E
7F00FE
7F81FC
3FFFFC
1FFFF8
0FFFF0
03FFC0
00FE00
ENDCHAR
STARTCHAR uni022B
ENCODING 555
SWIDTH 638 0
DWIDTH 20 0
BBX 19 29 1 0
BITMAP
0FFC00
0FFC00
0FFC00
000000
061800
0F3C00
0F3E00
0F3E00
071C00
000000
000000
03F800
0FFE00
3FFF00
7FFF80
7FFFC0
FE0FC0
FC0FC0
FC07E0
FC07E0
FC07E0
FC07E0
FC0FC0
FE0FC0
7FFFC0
7FFF80
3FFF00
0FFE00
03F800
ENDCHAR
STARTCHAR uni022C
ENCODING 556
SWIDTH 804 0
DWIDTH 26 0
BBX 24 34 1 0
BITMAP
01FF80
01FF80
01FF80
000000
00C1C0
01F9C0
03FF80
03FF80
038F00
000000
000000
00FF00
03FFC0
0FFFF0
1FFFF8
3FFFFC
7F81FC
7F00FE
FE007E
FC007F
FC003F
FC003F
FC003F
FC003F
FC003F
FC007F
FE007E
7F00FE
7F81FC
3FFFFC
1FFFF8
0FFFF0
03FFC0
00FE00
ENDCHAR
STARTCHAR uni022D
ENCODING 557
SWIDTH 638 0
DWIDTH 20 0
BBX 19 29 1 0
BITMAP
07FC00
07FC00
07FC00
000000
060E00
0FCE00
0FFE00
0FFC00
1C7C00
000000
000000
03F800
0FFE00
3FFF00
7FFF80
7FFFC0
FE0FC0
FC0FC0
FC07E0
FC07E0
FC07E0
FC07E0
FC0FC0
FE0FC0
7FFFC0
7FFF80
3FFF00
0FFE00
03F800
ENDCHAR
STARTCHAR uni0230
ENCODING 560
SWIDTH 804 0
DWIDTH 26 0
BBX 24 34 1 0
BITMAP
007FE0
007FE0
007FE0
000000
000E00
001F00
001F00
001F00
000E00
000000
000000
00FF00
03FFC0
0FFFF0
1FFFF8
3FFFFC
7F81FC
7F00FE
FE007E
FC007F
FC003F
FC003F
FC003F
FC003F
FC003F
FC007F
FE007E
7F00FE
7F81FC
3FFFFC
1FFFF8
0FFFF0
03FFC0
00FE00
ENDCHAR
STARTCHAR uni0231
ENCODING 561
SWIDTH 638 0
DWIDTH 20 0
BBX 19 29 1 0
BITMAP
0FFC00
0FFC00
0FFC00
000000
00E000
01F000
01F000
01F000
00E000
000000
000000
03F800
0FFE00
3FFF00
7FFF80
7FFFC0
FE0FC0
FC0FC0
FC07E0
FC07E0
FC07E0
FC07E0
FC0FC0
FE0FC0
7FFFC0
7FFF80
3FFF00
0FFE00
03F800
ENDCHAR
STARTCHAR uni0232
ENCODING 562
SWIDTH 684 0
DWIDTH 22 0
BBX 22 28 0 0
BITMAP
07FF80
07FF80
07FF80
000000
000000
FC00FC
7E01F8
7E01F8
3F03F0
3F03F0
1F87E0
1F87E0
0FCFC0
0FCFC0
07FF80
07FF80
03FF00
03FF00
01FE00
01FE00
00FC00
00FC00
00FC00
00FC00
00FC00
00FC00
00FC00
00FC00
ENDCHAR
STARTCHAR uni0233
ENCODING 563
SWIDTH 584 0
DWIDTH 19 0
BBX 19 30 0 -6
BITMAP
0FFC00
0FFC00
0FFC00
000000
000000
000000
FC07E0
FC07C0
7C0FC0
7E0FC0
7E0F80
3E0F80
3F1F00
1F1F00
1F9F00
0FBE00
0FBE00
0FFE00
07FC00
07FC00
03F800
03F800
03F800
01F000
23F000
7FE000
7FE000
FFC000
FF8000
3F0000
ENDCHAR
STARTCHAR uni0237
ENCODING 567
SWIDTH 312 0
DWIDTH 10 0
BBX 10 24 -2 -6
BITMAP
0FC0
0FC0
0FC0
0FC0
0FC0
0FC0
0FC0
0FC0
0FC0
0FC0
0FC0
0FC0
0FC0
0FC0
0FC0
0FC0
0FC0
0FC0
0FC0
7FC0
7FC0
FF80
FF00
FE00
ENDCHAR
STARTCHAR uni0259
ENCODING 601
SWIDTH 603 0
DWIDTH 19 0
BBX 18 18 1 0
BITMAP
07F000
1FFC00
3FFE00
7FFF00
3FFF80
181F80
000F80
FFFF80
FFFFC0
FFFFC0
F80F80
FC1F80
FC1F80
7FFF80
7FFF00
3FFE00
1FFC00
07F000
ENDCHAR
STARTCHAR uni02BB
ENCODING 699
SWIDTH 237 0
DWIDTH 8 0
BBX 4 7 2 16
BITMAP
F0
F0
F0
F0
F0
F0
70
ENDCHAR
STARTCHAR uni02BC
ENCODING 700
SWIDTH 209 0
DWIDTH 7 0
BBX 4 9 1 14
BITMAP
F0
F0
F0
F0
F0
F0
F0
F0
F0
ENDCHAR
STARTCHAR uni02BE
ENCODING 702
SWIDTH 226 0
DWIDTH 7 0
BBX 4 8 2 19
BITMAP
C0
E0
60
70
70
60
E0
C0
ENDCHAR
STARTCHAR uni02BF
ENCODING 703
SWIDTH 225 0
DWIDTH 7 0
BBX 4 8 1 19
BITMAP
30
70
60
E0
E0
60
70
30
ENDCHAR
STARTCHAR circumflex
ENCODING 710
SWIDTH 407 0
DWIDTH 13 0
BBX 12 5 1 20
BITMAP
1F00
3F80
7FC0
7BC0
F1F0
ENDCHAR
STARTCHAR caron
ENCODING 711
SWIDTH 441 0
DWIDTH 14 0
BBX 12 5 0 20
BITMAP
F0F0
79E0
3FC0
3FC0
1F80
ENDCHAR
STARTCHAR uni02C8
ENCODING 712
SWIDTH 158 0
DWIDTH 5 0
BBX 3 6 1 17
BITMAP
E0
E0
E0
E0
E0
E0
ENDCHAR
STARTCHAR uni02C9
ENCODING 713
SWIDTH 344 0
DWIDTH 11 0
BBX 10 3 1 21
BITMAP
FFC0
FFC0
FFC0
ENDCHAR
STARTCHAR uni02CA
ENCODING 714
SWIDTH 350 0
DWIDTH 11 0
BBX 8 5 2 20
BITMAP
1C
3F
7E
7C
F0
ENDCHAR
STARTCHAR uni02CB
ENCODING 715
SWIDTH 350 0
DWIDTH 11 0
BBX 8 5 2 20
BITMAP
38
FC
7C
3E
1F
ENDCHAR
STARTCHAR uni02CC
ENCODING 716
SWIDTH 160 0
DWIDTH 5 0
BBX 3 6 1 -7
BITMAP
E0
E0
E0
E0
E0
E0
ENDCHAR
STARTCHAR breve
ENCODING 728
SWIDTH 372 0
DWIDTH 12 0
BBX 10 6 1 20
BITMAP
E1C0
E1C0
F3C0
FF80
7F80
1E00
ENDCHAR
STARTCHAR dotaccent
ENCODING 729
SWIDTH 350 0
DWIDTH 11 0
BBX 6 6 3 20
BITMAP
70
F8
FC
FC
F8
70
ENDCHAR
STARTCHAR ring
ENCODING 730
SWIDTH 443 0
DWIDTH 14 0
BBX 8 8 1 19
BITMAP
3C
7E
77
63
E3
67
7E
3C
ENDCHAR
STARTCHAR ogonek
ENCODING 731
SWIDTH 301 0
DWIDTH 10 0
BBX 7 9 0 -8
BITMAP
1C
3E
78
78
F8
FC
FE
7E
3C
ENDCHAR
STARTCHAR tilde
ENCODING 732
SWIDTH 399 0
DWIDTH 13 0
BBX 11 5 1 20
BITMAP
78E0
FFE0
FFE0
FFE0
E3C0
ENDCHAR
STARTCHAR hungarumlaut
ENCODING 733
SWIDTH 529 0
DWIDTH 17 0
BBX 13 5 2 20
BITMAP
38E0
3EF8
7DF0
79E0
F3E0
ENDCHAR
STARTCHAR gravecomb
ENCODING 768
SWIDTH 0 0
DWIDTH 0 0
BBX 8 5 -10 20
BITMAP
18
FC
7E
3E
1F
ENDCHAR
STARTCHAR acutecomb
ENCODING 769
SWIDTH 0 0
DWIDTH 0 0
BBX 8 5 -9 20
BITMAP
1C
3F
3E
7C
F8
ENDCHAR
STARTCHAR uni0302
ENCODING 770
SWIDTH 0 0
DWIDTH 0 0
BBX 12 5 -13 20
BITMAP
0F80
1FC0
3FE0
3DE0
F8F0
ENDCHAR
STARTCHAR tildecomb
ENCODING 771
SWIDTH 0 0
DWIDTH 0 0
BBX 11 5 -12 20
BITMAP
78E0
FFE0
FFE0
FFE0
E3C0
ENDCHAR
STARTCHAR uni0304
ENCODING 772
SWIDTH 0 0
DWIDTH 0 0
BBX 10 3 -10 21
BITMAP
FFC0
FFC0
FFC0
ENDCHAR
STARTCHAR uni0306
ENCODING 774
SWIDTH 0 0
DWIDTH 0 0
BBX 10 6 -11 20
BITMAP
E1C0
E1C0
F3C0
7FC0
7F80
1E00
ENDCHAR
STARTCHAR uni0307
ENCODING 775
SWIDTH 0 0
DWIDTH 0 0
BBX 6 6 -7 20
BITMAP
78
F8
FC
FC
F8
78
ENDCHAR
STARTCHAR uni0308
ENCODING 776
SWIDTH 0 0
DWIDTH 0 0
BBX 11 5 -13 20
BITMAP
30C0
F9E0
FBE0
FBE0
71C0
ENDCHAR
STARTCHAR hookabovecomb
ENCODING 777
SWIDTH 0 0
DWIDTH 0 0
BBX 7 7 -8 20
BITMAP
7C
FE
FE
1E
1E
1C
38
ENDCHAR
STARTCHAR uni030A
ENCODING 778
SWIDTH 0 0
DWIDTH 0 0
BBX 7 8 -9 19
BITMAP
3C
7E
EE
C6
C6
EE
7E
38
ENDCHAR
STARTCHAR uni030B
ENCODING 779
SWIDTH 0 0
DWIDTH 0 0
BBX 13 5 -14 20
BITMAP
38E0
7EF8
7DF0
79E0
F3E0
ENDCHAR
STARTCHAR uni030C
ENCODING 780
SWIDTH 0 0
DWIDTH 0 0
BBX 12 5 -13 20
BITMAP
F0F0
79E0
3FC0
3FC0
1F80
ENDCHAR
STARTCHAR uni030F
ENCODING 783
SWIDTH 0 0
DWIDTH 0 0
BBX 13 5 -15 20
BITMAP
38E0
FBF0
7DF0
3CF8
3E78
ENDCHAR
STARTCHAR uni0311
ENCODING 785
SWIDTH 0 0
DWIDTH 0 0
BBX 10 5 -11 20
BITMAP
1E00
7F80
FFC0
F3C0
E1C0
ENDCHAR
STARTCHAR uni0312
ENCODING 786
SWIDTH 0 0
DWIDTH 0 0
BBX 6 6 -7 20
BITMAP
3C
3C
38
78
78
F8
ENDCHAR
STARTCHAR uni031B
ENCODING 795
SWIDTH 0 0
DWIDTH 0 0
BBX 7 8 -8 15
BITMAP
04
3C
3C
3E
3C
FC
F8
E0
ENDCHAR
STARTCHAR dotbelowcomb
ENCODING 803
SWIDTH 0 0
DWIDTH 0 0
BBX 6 6 -7 -8
BITMAP
78
F8
FC
FC
F8
78
ENDCHAR
STARTCHAR uni0324
ENCODING 804
SWIDTH 0 0
DWIDTH 0 0
BBX 12 5 -13 -7
BITMAP
30C0
79E0
F9F0
79E0
70E0
ENDCHAR
STARTCHAR uni0326
ENCODING 806
SWIDTH 0 0
DWIDTH 0 0
BBX 6 6 -7 -8
BITMAP
7C
78
F8
F0
F0
E0
ENDCHAR
STARTCHAR uni0327
ENCODING 807
SWIDTH 0 0
DWIDTH 0 0
BBX 8 8 -9 -8
BITMAP
1C
3C
3C
3F
0F
7F
7E
FC
ENDCHAR
STARTCHAR uni0328
ENCODING 808
SWIDTH 0 0
DWIDTH 0 0
BBX 7 9 -8 -8
BITMAP
3A
7C
78
F0
F0
FC
FC
FC
7E
ENDCHAR
STARTCHAR uni032E
ENCODING 814
SWIDTH 0 0
DWIDTH 0 0
BBX 10 6 -11 -7
BITMAP
E1C0
E1C0
F3C0
7FC0
7F80
1E00
ENDCHAR
STARTCHAR uni0331
ENCODING 817
SWIDTH 0 0
DWIDTH 0 0
BBX 10 3 -11 -6
BITMAP
FFC0
FFC0
FFC0
ENDCHAR
STARTCHAR uni0335
ENCODING 821
SWIDTH 0 0
DWIDTH 0 0
BBX 13 3 -13 13
BITMAP
FFF8
FFF8
FFF8
ENDCHAR
STARTCHAR uni0336
ENCODING 822
SWIDTH 0 0
DWIDTH 0 0
BBX 14 3 -17 13
BITMAP
FFFC
FFFC
FFFC
ENDCHAR
STARTCHAR uni0337
ENCODING 823
SWIDTH 0 0
DWIDTH 0 0
BBX 10 16 -10 3
BITMAP
07C0
0780
0F80
0F80
0F00
1F00
1F00
1E00
3E00
3E00
3C00
7C00
7C00
7800
F800
F800
ENDCHAR
STARTCHAR uni0338
ENCODING 824
SWIDTH 0 0
DWIDTH 0 0
BBX 13 25 -11 0
BITMAP
00F8
00F8
01F0
01F0
01E0
03E0
03E0
03C0
07C0
07C0
0780
0F80
0F80
0F00
1F00
1F00
1E00
3E00
3E00
3C00
7C00
7C00
7800
F800
F800
ENDCHAR
STARTCHAR uni0394
ENCODING 916
SWIDTH 773 0
DWIDTH 25 0
BBX 25 23 0 0
BITMAP
007F0000
007F0000
00FF8000
00FF8000
00FF8000
01FFC000
01FFC000
03F7E000
03E7E000
07E3E000
07E3F000
07C3F000
0FC1F800
0FC1F800
1F81F800
1F80FC00
1F00FC00
3F007E00
3F007E00
7FFFFE00
7FFFFF00
FFFFFF00
FFFFFF80
ENDCHAR
STARTCHAR uni03A9
ENCODING 937
SWIDTH 854 0
DWIDTH 27 0
BBX 27 23 0 0
BITMAP
007FC000
01FFF000
03FFFC00
07FFFE00
0FFFFE00
1FC07F00
1F803F80
3F001F80
3F000F80
3E000F80
3E000F80
3E000F80
3F000F80
1F001F80
1F001F00
0F803F00
0FC07E00
07E0FC00
FFF0FFE0
FFF0FFE0
FFF0FFE0
FFF0FFE0
FFF0FFE0
ENDCHAR
STARTCHAR uni03BC
ENCODING 956
SWIDTH 685 0
DWIDTH 22 0
BBX 18 24 2 -6
BITMAP
FC0FC0
FC0FC0
FC0FC0
FC0FC0
FC0FC0
FC0FC0
FC0FC0
FC0FC0
FC0FC0
FC0FC0
FC0FC0
FC1FC0
FE3FC0
FFFFC0
FFFFC0
FFFFC0
FFEFC0
FFCFC0
FC0000
FC0000
FC0000
FC0000
FC0000
FC0000
ENDCHAR
STARTCHAR pi
ENCODING 960
SWIDTH 730 0
DWIDTH 23 0
BBX 24 18 -1 0
BITMAP
0FFFFF
3FFFFF
7FFFFF
7FFFFF
7CF9F0
F8F9F0
78F1F0
78F1F0
7DF1F0
61F1F0
01F1F0
01F1F0
01F1F0
01F1F0
01F1F0
01E1F0
01E1F0
03E1F0
ENDCHAR
STARTCHAR uni1E08
ENCODING 7688
SWIDTH 692 0
DWIDTH 22 0
BBX 21 38 1 -8
BITMAP
001000
003E00
003F00
007C00
00F800
017000
000000
00FE00
03FFC0
0FFFE0
1FFFF8
3FFFF0
7F81E0
7F00E0
FE0040
FC0000
FC0000
FC0000
FC0000
FC0000
FC0000
FC0000
FE0000
7F00C0
7F81E0
3FFFF0
3FFFF8
1FFFF0
0FFFC0
03FF80
007800
007000
007800
007C00
001E00
00FE00
01FC00
00F800
ENDCHAR
STARTCHAR uni1E09
ENCODING 7689
SWIDTH 562 0
DWIDTH 18 0
BBX 17 33 1 -8
BITMAP
00E000
00FC00
01F000
03E000
07C000
000000
000000
03F000
1FFC00
3FFE00
7FFF00
7FFF00
FE1C00
FC0800
FC0000
FC0000
FC0000
FC0000
FC0800
FE0C00
7FFF00
7FFF80
3FFF00
1FFE00
0FF800
01C000
03C000
03E000
01F000
00F000
07F000
07F000
0FC000
ENDCHAR
STARTCHAR uni1E0C
ENCODING 7692
SWIDTH 766 0
DWIDTH 25 0
BBX 22 31 2 -8
BITMAP
FFFC00
FFFF00
FFFFC0
FFFFE0
FFFFF0
FC07F0
FC03F8
FC01F8
FC01F8
FC00FC
FC00FC
FC00FC
FC00FC
FC00FC
FC01F8
FC01F8
FC03F8
FC07F0
FFFFF0
FFFFE0
FFFFC0
FFFF00
FFF800
000000
000000
00E000
01F000
01F800
01F800
01F000
00E000
ENDCHAR
STARTCHAR uni1E0D
ENCODING 7693
SWIDTH 687 0
DWIDTH 22 0
BBX 19 32 1 -8
BITMAP
0007E0
0007E0
0007E0
0007E0
0007E0
0007E0
07C7E0
1FF7E0
3FFFE0
7FFFE0
7FFFE0
FE0FE0
FC0FE0
FC07E0
FC07E0
FC07E0
FC07E0
FC0FE0
FE0FE0
7FFFE0
7FFFE0
3FFFE0
1FF7E0
07C7E0
000000
000000
007000
00F800
01F800
01F800
00F800
007000
ENDCHAR
STARTCHAR uni1E0E
ENCODING 7694
SWIDTH 766 0
DWIDTH 25 0
BBX 22 29 2 -6
BITMAP
FFFC00
FFFF00
FFFFC0
FFFFE0
FFFFF0
FC07F0
FC03F8
FC01F8
FC01F8
FC00FC
FC00FC
FC00FC
FC00FC
FC00FC
FC01F8
FC01F8
FC03F8
FC07F0
FFFFF0
FFFFE0
FFFFC0
FFFF00
FFF800
000000
000000
000000
07FE00
07FE00
07FE00
ENDCHAR
STARTCHAR uni1E0F
ENCODING 7695
SWIDTH 687 0
DWIDTH 22 0
BBX 19 30 1 -6
BITMAP
0007E0
0007E0
0007E0
0007E0
0007E0
0007E0
07C7E0
1FF7E0
3FFFE0
7FFFE0
7FFFE0
FE0FE0
FC0FE0
FC07E0
FC07E0
FC07E0
FC07E0
FC0FE0
FE0FE0
7FFFE0
7FFFE0
3FFFE0
1FF7E0
07C7E0
000000
000000
000000
07FE00
07FE00
07FE00
ENDCHAR
STARTCHAR uni1E14
ENCODING 7700
SWIDTH 675 0
DWIDTH 22 0
BBX 18 35 2 0
BITMAP
010000
038000
0FE000
03F000
00F000
000000
000000
07FC00
07FC00
07FC00
000000
000000
FFFFC0
FFFFC0
FFFFC0
FFFFC0
FFFFC0
FC0000
FC0000
FC0000
FC0000
FFFF80
FFFF80
FFFF80
FFFF80
FFFF80
FC0000
FC0000
FC0000
FC0000
FFFFC0
FFFFC0
FFFFC0
FFFFC0
FFFFC0
ENDCHAR
STARTCHAR uni1E15
ENCODING 7701
SWIDTH 603 0
DWIDTH 19 0
BBX 18 30 1 0
BITMAP
020000
0F0000
3F8000
0FC000
03E000
000000
000000
1FF800
1FF800
1FF800
000000
000000
03F000
1FFC00
3FFE00
7FFF00
7FFF80
FC1F80
FC0F80
FFFF80
FFFFC0
FFFFC0
FC0000
FC0400
FE0C00
7FFE00
7FFF00
3FFF00
1FFC00
03F000
ENDCHAR
STARTCHAR uni1E16
ENCODING 7702
SWIDTH 675 0
DWIDTH 22 0
BBX 18 35 2 0
BITMAP
002000
007800
00FC00
01F000
03C000
000000
000000
0FFC00
0FFC00
0FFC00
000000
000000
FFFFC0
FFFFC0
FFFFC0
FFFFC0
FFFFC0
FC0000
FC0000
FC0000
FC0000
FFFF80
FFFF80
FFFF80
FFFF80
FFFF80
FC0000
FC0000
FC0000
FC0000
FFFFC0
FFFFC0
FFFFC0
FFFFC0
FFFFC0
ENDCHAR
STARTCHAR uni1E17
ENCODING 7703
SWIDTH 603 0
DWIDTH 19 0
BBX 18 30 1 0
BITMAP
004000
00F000
01F800
03E000
07C000
000000
000000
1FF800
1FF800
1FF800
000000
000000
03F000
1FFC00
3FFE00
7FFF00
7FFF80
FC1F80
FC0F80
FFFF80
FFFFC0
FFFFC0
FC0000
FC0400
FE0C00
7FFE00
7FFF00
3FFF00
1FFC00
03F000
ENDCHAR
STARTCHAR uni1E1C
ENCODING 7708
SWIDTH 675 0
DWIDTH 22 0
BBX 18 38 2 -8
BITMAP
1E3C00
0E3C00
0FF800
07F000
03E000
000000
000000
FFFFC0
FFFFC0
FFFFC0
FFFFC0
FFFFC0
FC0000
FC0000
FC0000
FC0000
FFFF80
FFFF80
FFFF80
FFFF80
FFFF80
FC0000
FC0000
FC0000
FC0000
FFFFC0
FFFFC0
FFFFC0
FFFFC0
FFFFC0
00E000
01E000
01F000
00F800
007800
03F800
03F800
07E000
ENDCHAR
STARTCHAR uni1E1D
ENCODING 7709
SWIDTH 603 0
DWIDTH 19 0
BBX 18 32 1 -8
BITMAP
1E3C00
0FF800
0FF800
03E000
000000
000000
03F000
1FFC00
3FFE00
7FFF00
7FFF00
FE1F80
FC0F80
F80F80
FFFF80
FFFFC0
FFFFC0
FC0000
FC0400
7E0E00
7FFF00
3FFF00
1FFE00
0FFC00
01E000
01C000
01E000
03F000
007800
03F800
07F000
07E000
ENDCHAR
STARTCHAR uni1E20
ENCODING 7712
SWIDTH 743 0
DWIDTH 24 0
BBX 21 28 1 0
BITMAP
03FF80
03FF80
03FF80
000000
000000
003E00
03FFC0
07FFF0
1FFFF8
3FFFF0
3FC3F0
7F00E0
FE0040
FE0000
FC0000
FC0FF8
FC0FF8
FC0FF8
FC0FF8
FC0FF8
FE00F8
7F00F8
7F80F8
3FFFF8
1FFFF8
0FFFF8
07FFF0
01FF80
ENDCHAR
STARTCHAR uni1E21
ENCODING 7713
SWIDTH 648 0
DWIDTH 21 0
BBX 18 30 1 -6
BITMAP
0FFC00
0FFC00
0FFC00
000000
000000
000000
0FCFC0
1FEFC0
3FFFC0
7FFFC0
FFFFC0
FC1FC0
F80FC0
F80FC0
F80FC0
F80FC0
FC1FC0
FE3FC0
7FFFC0
7FFFC0
3FFFC0
1FEFC0
038FC0
000FC0
301F80
3FFF80
7FFF00
7FFE00
3FFC00
07F000
ENDCHAR
STARTCHAR uni1E24
ENCODING 7716
SWIDTH 785 0
DWIDTH 25 0
BBX 21 31 2 -8
BITMAP
FC01F8
FC01F8
FC01F8
FC01F8
FC01F8
FC01F8
FC01F8
FC01F8
FC01F8
FFFFF8
FFFFF8
FFFFF8
FFFFF8
FFFFF8
FC01F8
FC01F8
FC01F8
FC01F8
FC01F8
FC01F8
FC01F8
FC01F8
FC01F8
000000
000000
007000
00F800
00FC00
01F800
00F800
007000
ENDCHAR
STARTCHAR uni1E25
ENCODING 7717
SWIDTH 679 0
DWIDTH 22 0
BBX 18 32 2 -8
BITMAP
FC0000
FC0000
FC0000
FC0000
FC0000
FC0000
FC7C00
FDFF00
FFFF80
FFFF80
FFFFC0
FE1FC0
FE0FC0
FC0FC0
FC0FC0
FC0FC0
FC0FC0
FC0FC0
FC0FC0
FC0FC0
FC0FC0
FC0FC0
FC0FC0
FC0FC0
000000
000000
01E000
03F000
03F000
03F000
03F000
01E000
ENDCHAR
STARTCHAR uni1E2A
ENCODING 7722
SWIDTH 785 0
DWIDTH 25 0
BBX 21 30 2 -7
BITMAP
FC01F8
FC01F8
FC01F8
FC01F8
FC01F8
FC01F8
FC01F8
FC01F8
FC01F8
FFFFF8
FFFFF8
FFFFF8
FFFFF8
FFFFF8
FC01F8
FC01F8
FC01F8
FC01F8
FC01F8
FC01F8
FC01F8
FC01F8
FC01F8
000000
078F00
078F00
03CF00
03FE00
01FC00
00F800
ENDCHAR
STARTCHAR uni1E2B
ENCODING 7723
SWIDTH 679 0
DWIDTH 22 0
BBX 18 31 2 -7
BITMAP
FC0000
FC0000
FC0000
FC0000
FC0000
FC0000
FC7C00
FDFF00
FFFF80
FFFF80
FFFFC0
FE1FC0
FE0FC0
FC0FC0
FC0FC0
FC0FC0
FC0FC0
FC0FC0
FC0FC0
FC0FC0
FC0FC0
FC0FC0
FC0FC0
FC0FC0
000000
0E1C00
0F1C00
0F3C00
07FC00
07F800
01F000
ENDCHAR
STARTCHAR uni1E2E
ENCODING 7726
SWIDTH 319 0
DWIDTH 10 0
BBX 11 36 0 0
BITMAP
0200
0780
0FC0
1F00
3E00
0000
6180
F3C0
F3E0
F3C0
E1C0
0000
0000
3F00
3F00
3F00
3F00
3F00
3F00
3F00
3F00
3F00
3F00
3F00
3F00
3F00
3F00
3F00
3F00
3F00
3F00
3F00
3F00
3F00
3F00
3F00
ENDCHAR
STARTCHAR uni1E2F
ENCODING 7727
SWIDTH 313 0
DWIDTH 10 0
BBX 12 31 -1 0
BITMAP
0100
03C0
07E0
0F80
1F00
0000
30C0
79E0
F9F0
79E0
70E0
0000
0000
1F80
1F80
1F80
1F80
1F80
1F80
1F80
1F80
1F80
1F80
1F80
1F80
1F80
1F80
1F80
1F80
1F80
1F80
ENDCHAR
STARTCHAR uni1E36
ENCODING 7734
SWIDTH 563 0
DWIDTH 18 0
BBX 16 31 2 -8
BITMAP
FC00
FC00
FC00
FC00
FC00
FC00
FC00
FC00
FC00
FC00
FC00
FC00
FC00
FC00
FC00
FC00
FC00
FC00
FFFF
FFFF
FFFF
FFFF
FFFF
0000
0000
03C0
07C0
07E0
07E0
07C0
03C0
ENDCHAR
STARTCHAR uni1E37
ENCODING 7735
SWIDTH 324 0
DWIDTH 10 0
BBX 6 32 2 -8
BITMAP
FC
FC
FC
FC
FC
FC
FC
FC
FC
FC
FC
FC
FC
FC
FC
FC
FC
FC
FC
FC
FC
FC
FC
FC
00
00
78
FC
FC
FC
FC
78
ENDCHAR
STARTCHAR uni1E3A
ENCODING 7738
SWIDTH 563 0
DWIDTH 18 0
BBX 16 29 2 -6
BITMAP
FC00
FC00
FC00
FC00
FC00
FC00
FC00
FC00
FC00
FC00
FC00
FC00
FC00
FC00
FC00
FC00
FC00
FC00
FFFF
FFFF
FFFF
FFFF
FFFF
0000
0000
0000
1FF8
1FF8
1FF8
ENDCHAR
STARTCHAR uni1E3B
ENCODING 7739
SWIDTH 324 0
DWIDTH 10 0
BBX 10 30 0 -6
BITMAP
3F00
3F00
3F00
3F00
3F00
3F00
3F00
3F00
3F00
3F00
3F00
3F00
3F00
3F00
3F00
3F00
3F00
3F00
3F00
3F00
3F00
3F00
3F00
3F00
0000
0000
0000
FFC0
FFC0
FFC0
ENDCHAR
STARTCHAR uni1E42
ENCODING 7746
SWIDTH 939 0
DWIDTH 30 0
BBX 26 31 2 -8
BITMAP
FE001FC0
FE001FC0
FF003FC0
FF003FC0
FF807FC0
FF807FC0
FFC0FFC0
FFC0FFC0
FFE1FFC0
FBE1F7C0
FBF3F7C0
F9F3E7C0
F9FBE7C0
F8FFC7C0
F8FFC7C0
F87F87C0
F87F87C0
F83F07C0
F83F07C0
F81F07C0
F81E07C0
F80007C0
F80007C0
00000000
00000000
001E0000
003F0000
003F0000
003F0000
003F0000
001E0000
ENDCHAR
STARTCHAR uni1E43
ENCODING 7747
SWIDTH 1037 0
DWIDTH 33 0
BBX 29 26 2 -8
BITMAP
FC7C0FC0
FDFF1FE0
FFFFBFF0
FFFFFFF8
FFFFFFF8
FE1FE1F8
FC0FC0F8
FC0FC0F8
FC0FC0F8
FC0FC0F8
FC0FC0F8
FC0FC0F8
FC0FC0F8
FC0FC0F8
FC0FC0F8
FC0FC0F8
FC0FC0F8
FC0FC0F8
00000000
00000000
00078000
000F8000
000FC000
000FC000
000F8000
00078000
ENDCHAR
STARTCHAR uni1E44
ENCODING 7748
SWIDTH 786 0
DWIDTH 25 0
BBX 21 31 2 0
BITMAP
007000
00F800
00FC00
00FC00
00F800
007000
000000
000000
FC01F8
FC00F8
FE00F8
FF00F8
FF80F8
FF80F8
FFC0F8
FFE0F8
FFF0F8
FFF0F8
FFF8F8
FDFCF8
FCFCF8
FC7EF8
FC7FF8
FC3FF8
FC1FF8
FC0FF8
FC0FF8
FC07F8
FC03F8
FC01F8
FC01F8
ENDCHAR
STARTCHAR uni1E45
ENCODING 7749
SWIDTH 674 0
DWIDTH 22 0
BBX 18 26 2 0
BITMAP
00E000
01F000
03F000
03F000
01F000
00E000
000000
000000
FC7C00
FDFF00
FFFF80
FFFF80
FFFFC0
FE1FC0
FC0FC0
FC0FC0
FC0FC0
FC0FC0
FC0FC0
FC0FC0
FC0FC0
FC0FC0
FC0FC0
FC0FC0
FC0FC0
FC0FC0
ENDCHAR
STARTCHAR uni1E46
ENCODING 7750
SWIDTH 786 0
DWIDTH 25 0
BBX 21 31 2 -8
BITMAP
FC01F8
FC00F8
FE00F8
FF00F8
FF80F8
FF80F8
FFC0F8
FFE0F8
FFF0F8
FFF0F8
FFF8F8
FDFCF8
FCFCF8
FC7EF8
FC7FF8
FC3FF8
FC1FF8
FC0FF8
FC0FF8
FC07F8
FC03F8
FC01F8
FC01F8
000000
000000
007000
00F800
00FC00
00FC00
00F800
007000
ENDCHAR
STARTCHAR uni1E47
ENCODING 7751
SWIDTH 674 0
DWIDTH 22 0
BBX 18 26 2 -8
BITMAP
FC7C00
FDFF00
FFFF80
FFFF80
FFFFC0
FE1FC0
FC0FC0
FC0FC0
FC0FC0
FC0FC0
FC0FC0
FC0FC0
FC0FC0
FC0FC0
FC0FC0
FC0FC0
FC0FC0
FC0FC0
000000
000000
01E000
03F000
03F000
03F000
03F000
01E000
ENDCHAR
STARTCHAR uni1E48
ENCODING 7752
SWIDTH 786 0
DWIDTH 25 0
BBX 21 29 2 -6
BITMAP
FC01F8
FC00F8
FE00F8
FF00F8
FF80F8
FF80F8
FFC0F8
FFE0F8
FFF0F8
FFF0F8
FFF8F8
FDFCF8
FCFCF8
FC7EF8
FC7FF8
FC3FF8
FC1FF8
FC0FF8
FC0FF8
FC07F8
FC03F8
FC01F8
FC01F8
000000
000000
000000
03FF00
03FF00
03FF00
ENDCHAR
STARTCHAR uni1E49
ENCODING 7753
SWIDTH 674 0
DWIDTH 22 0
BBX 18 24 2 -6
BITMAP
FC7C00
FDFF00
FFFF80
FFFF80
FFFFC0
FE1FC0
FC0FC0
FC0FC0
FC0FC0
FC0FC0
FC0FC0
FC0FC0
FC0FC0
FC0FC0
FC0FC0
FC0FC0
FC0FC0
FC0FC0
000000
000000
000000
0FFC00
0FFC00
0FFC00
ENDCHAR
STARTCHAR uni1E4C
ENCODING 7756
SWIDTH 804 0
DWIDTH 26 0
BBX 24 36 1 0
BITMAP
000400
000F00
001F80
003E00
007800
000000
00C1C0
01F9C0
03FF80
03FF80
038F00
000000
000000
00FF00
03FFC0
0FFFF0
1FFFF8
3FFFFC
7F81FC
7F00FE
FE007E
FC007F
FC003F
FC003F
FC003F
FC003F
FC003F
FC007F
FE007E
7F00FE
7F81FC
3FFFFC
1FFFF8
0FFFF0
03FFC0
00FE00
ENDCHAR
STARTCHAR uni1E4D
ENCODING 7757
SWIDTH 638 0
DWIDTH 20 0
BBX 19 31 1 0
BITMAP
002000
007800
00FC00
01F800
03E000
000000
060E00
0FCE00
0FFE00
0FFC00
1C7C00
000000
000000
03F800
0FFE00
3FFF00
7FFF80
7FFFC0
FE0FC0
FC0FC0
FC07E0
FC07E0
FC07E0
FC07E0
FC0FC0
FE0FC0
7FFFC0
7FFF80
3FFF00
0FFE00
03F800
ENDCHAR
STARTCHAR uni1E4E
ENCODING 7758
SWIDTH 804 0
DWIDTH 26 0
BBX 24 36 1 0
BITMAP
018300
03CF80
03EF80
03EF80
01C700
000000
00C380
03F380
03FF80
03FF80
030F00
000000
000000
00FF00
03FFC0
0FFFF0
1FFFF8
3FFFFC
7F81FC
7F00FE
FE007E
FC007F
FC003F
FC003F
FC003F
FC003F
FC003F
FC007F
FE007E
7F00FE
7F81FC
3FFFFC
1FFFF8
0FFFF0
03FFC0
00FE00
ENDCHAR
STARTCHAR uni1E4F
ENCODING 7759
SWIDTH 638 0
DWIDTH 20 0
BBX 19 31 1 0
BITMAP
061800
1F3C00
1F7C00
1F3C00
0E3800
000000
060C00
0F9C00
1FFC00
1FFC00
1C7800
000000
000000
03F800
0FFE00
3FFF00
7FFF80
7FFFC0
FE0FC0
FC0FC0
FC07E0
FC07E0
FC07E0
FC07E0
FC0FC0
FE0FC0
7FFFC0
7FFF80
3FFF00
0FFE00
03F800
ENDCHAR
STARTCHAR uni1E50
ENCODING 7760
SWIDTH 804 0
DWIDTH 26 0
BBX 24 35 1 0
BITMAP
002000
00F000
01F800
007C00
003E00
000000
000000
00FF80
00FF80
00FF80
000000
000000
00FF00
03FFC0
0FFFF0
1FFFF8
3FFFFC
7F81FC
7F00FE
FE007E
FC007F
FC003F
FC003F
FC003F
FC003F
FC003F
FC007F
FE007E
7F00FE
7F81FC
3FFFFC
1FFFF8
0FFFF0
03FFC0
00FE00
ENDCHAR
STARTCHAR uni1E51
ENCODING 7761
SWIDTH 638 0
DWIDTH 20 0
BBX 19 30 1 0
BITMAP
020000
0F0000
1FC000
07E000
01E000
000000
000000
0FF800
0FF800
0FF800
000000
000000
03F800
0FFE00
3FFF00
7FFF80
7FFFC0
FE0FC0
FC0FC0
FC07E0
FC07E0
FC07E0
FC07E0
FC0FC0
FE0FC0
7FFFC0
7FFF80
3FFF00
0FFE00
03F800
ENDCHAR
STARTCHAR uni1E52
ENCODING 7762
SWIDTH 804 0
DWIDTH 26 0
BBX 24 35 1 0
BITMAP
000C00
001E00
003F80
007E00
00F800
000000
000000
01FF00
01FF00
01FF00
000000
000000
00FF00
03FFC0
0FFFF0
1FFFF8
3FFFFC
7F81FC
7F00FE
FE007E
FC007F
FC003F
FC003F
FC003F
FC003F
FC003F
FC007F
FE007E
7F00FE
7F81FC
3FFFFC
1FFFF8
0FFFF0
03FFC0
00FE00
ENDCHAR
STARTCHAR uni1E53
ENCODING 7763
SWIDTH 638 0
DWIDTH 20 0
BBX 19 30 1 0
BITMAP
002000
00F000
01FC00
03F000
07C000
000000
000000
0FF800
0FF800
0FF800
000000
000000
03F800
0FFE00
3FFF00
7FFF80
7FFFC0
FE0FC0
FC0FC0
FC07E0
FC07E0
FC07E0
FC07E0
FC0FC0
FE0FC0
7FFFC0
7FFF80
3FFF00
0FFE00
03F800
ENDCHAR
STARTCHAR uni1E5A
ENCODING 7770
SWIDTH 724 0
DWIDTH 23 0
BBX 20 31 2 -8
BITMAP
FFFC00
FFFF00
FFFFC0
FFFFC0
FFFFE0
FC07E0
FC03E0
FC03F0
FC03F0
FC03F0
FC07E0
FC0FE0
FFFFE0
FFFFC0
FFFF80
FFFF00
FFFF00
FC1F80
FC1F80
FC0FC0
FC0FE0
FC07E0
FC07F0
000000
000000
00E000
01F000
03F000
03F000
01F000
00E000
ENDCHAR
STARTCHAR uni1E5B
ENCODING 7771
SWIDTH 430 0
DWIDTH 14 0
BBX 11 26 2 -8
BITMAP
FC60
FDE0
FFE0
FFE0
FFE0
FF00
FE00
FC00
FC00
FC00
FC00
FC00
FC00
FC00
FC00
FC00
FC00
FC00
0000
0000
7800
FC00
FC00
FC00
FC00
7800
ENDCHAR
STARTCHAR uni1E5E
ENCODING 7774
SWIDTH 724 0
DWIDTH 23 0
BBX 20 29 2 -6
BITMAP
FFFC00
FFFF00
FFFFC0
FFFFC0
FFFFE0
FC07E0
FC03E0
FC03F0
FC03F0
FC03F0
FC07E0
FC0FE0
FFFFE0
FFFFC0
FFFF80
FFFF00
FFFF00
FC1F80
FC1F80
FC0FC0
FC0FE0
FC07E0
FC07F0
000000
000000
000000
07FC00
07FC00
07FC00
ENDCHAR
STARTCHAR uni1E5F
ENCODING 7775
SWIDTH 430 0
DWIDTH 14 0
BBX 13 24 0 -6
BITMAP
3F18
3F78
3FF8
3FF8
3FF8
3FC0
3F80
3F00
3F00
3F00
3F00
3F00
3F00
3F00
3F00
3F00
3F00
3F00
0000
0000
0000
FFC0
FFC0
FFC0
ENDCHAR
STARTCHAR uni1E60
ENCODING 7776
SWIDTH 646 0
DWIDTH 21 0
BBX 19 31 1 0
BITMAP
00F000
01F800
01F800
01F800
01F800
00F000
000000
000000
03FC00
0FFF80
1FFFE0
3FFFC0
7FFFC0
7E0780
7E0180
7F0000
7FC000
7FF800
3FFE00
1FFF80
07FFC0
00FFC0
001FE0
400FE0
7007E0
FC0FE0
FFFFC0
FFFFC0
7FFF80
1FFF00
03FC00
ENDCHAR
STARTCHAR uni1E61
ENCODING 7777
SWIDTH 517 0
DWIDTH 17 0
BBX 15 26 1 0
BITMAP
0380
07C0
07E0
0FC0
07C0
0380
0000
0000
0FE0
3FF8
7FFE
7FFC
FFFC
FC18
FC00
7F80
3FF0
1FF8
03FC
407E
607E
FFFE
FFFC
FFFC
7FF8
0FE0
ENDCHAR
STARTCHAR uni1E62
ENCODING 7778
SWIDTH 646 0
DWIDTH 21 0
BBX 19 31 1 -8
BITMAP
03FC00
0FFF80
1FFFE0
3FFFC0
7FFFC0
7E0780
7E0180
7F0000
7FC000
7FF800
3FFE00
1FFF80
07FFC0
00FFC0
001FE0
400FE0
7007E0
FC0FE0
FFFFC0
FFFFC0
7FFF80
1FFF00
03FC00
000000
000000
00E000
01F000
01F800
01F800
01F000
00E000
ENDCHAR
STARTCHAR uni1E63
ENCODING 7779
SWIDTH 517 0
DWIDTH 17 0
BBX 15 26 1 -8
BITMAP
0FE0
3FF8
7FFE
7FFC
FFFC
FC18
FC00
7F80
3FF0
1FF8
03FC
407E
607E
FFFE
FFFC
FFFC
7FF8
0FE0
0000
0000
0780
0FC0
0FC0
0FC0
0FC0
0780
ENDCHAR
STARTCHAR uni1E64
ENCODING 7780
SWIDTH 646 0
DWIDTH 21 0
BBX 19 36 1 0
BITMAP
00F000
01F000
01F800
01F000
00F000
000000
002000
007800
00FC00
01F000
03C000
000000
000000
03FC00
0FFF80
1FFFE0
3FFFC0
7FFFC0
7E0780
7E0180
7F0000
7FC000
7FF800
3FFE00
1FFF80
07FFC0
00FFC0
001FE0
400FE0
7007E0
FC0FE0
FFFFC0
FFFFC0
7FFF80
1FFF00
03FC00
ENDCHAR
STARTCHAR uni1E65
ENCODING 7781
SWIDTH 517 0
DWIDTH 17 0
BBX 15 31 1 0
BITMAP
0380
07C0
07C0
07C0
0380
0000
0180
03C0
07F0
0FC0
1F00
0000
0000
0FE0
3FF8
7FFE
7FFC
FFFC
FC18
FC00
7F80
3FF0
1FF8
03FC
407E
607E
FFFE
FFFC
FFFC
7FF8
0FE0
ENDCHAR
STARTCHAR uni1E66
ENCODING 7782
SWIDTH 646 0
DWIDTH 21 0
BBX 19 35 1 0
BITMAP
007000
00F800
00F800
00F800
007000
000000
0F8F80
07DF00
03FE00
01FC00
000000
000000
03FC00
0FFF80
1FFFE0
3FFFC0
7FFFC0
7E0780
7E0180
7F0000
7FC000
7FF800
3FFE00
1FFF80
07FFC0
00FFC0
001FE0
400FE0
7007E0
FC0FE0
FFFFC0
FFFFC0
7FFF80
1FFF00
03FC00
ENDCHAR
STARTCHAR uni1E67
ENCODING 7783
SWIDTH 517 0
DWIDTH 17 0
BBX 15 30 1 0
BITMAP
0380
07C0
07E0
07C0
03C0
0000
7C7E
1EF8
0FF0
0FE0
0000
0000
0FE0
3FF8
7FFE
7FFC
FFFC
FC18
FC00
7F80
3FF0
1FF8
03FC
407E
607E
FFFE
FFFC
FFFC
7FF8
0FE0
ENDCHAR
STARTCHAR uni1E68
ENCODING 7784
SWIDTH 646 0
DWIDTH 21 0
BBX 19 39 1 -8
BITMAP
00E000
01F000
01F800
01F800
01F000
00E000
000000
000000
03FC00
0FFF80
1FFFE0
3FFFC0
7FFFC0
7E0780
7E0180
7F0000
7FC000
7FF800
3FFE00
1FFF80
07FFC0
00FFC0
001FE0
400FE0
7007E0
FC0FE0
FFFFC0
FFFFC0
7FFF80
1FFF00
03FC00
000000
000000
00E000
01F000
01F800
01F800
01F000
00E000
ENDCHAR
STARTCHAR uni1E69
ENCODING 7785
SWIDTH 517 0
DWIDTH 17 0
BBX 15 34 1 -8
BITMAP
0780
0FC0
0FC0
0FC0
0FC0
0780
0000
0000
0FE0
3FF8
7FFE
7FFC
FFFC
FC18
FC00
7F80
3FF0
1FF8
03FC
407E
607E
FFFE
FFFC
FFFC
7FF8
0FE0
0000
0000
0780
0FC0
0FC0
0FC0
0FC0
0780
ENDCHAR
STARTCHAR uni1E6C
ENCODING 7788
SWIDTH 614 0
DWIDTH 20 0
BBX 19 31 0 -8
BITMAP
FFFFE0
FFFFE0
FFFFE0
FFFFE0
FFFFE0
01F800
01F800
01F800
01F800
01F800
01F800
01F800
01F800
01F800
01F800
01F800
01F800
01F800
01F800
01F800
01F800
01F800
01F800
000000
000000
00F000
01F000
01F800
01F800
01F000
00F000
ENDCHAR
STARTCHAR uni1E6D
ENCODING 7789
SWIDTH 437 0
DWIDTH 14 0
BBX 12 30 1 -8
BITMAP
3F00
3F00
3F00
3F00
3F00
FFF0
FFF0
FFF0
FFF0
3F00
3F00
3F00
3F00
3F00
3F00
3F00
3F00
3FF0
3FF0
1FF0
0FF0
07E0
0000
0000
0380
07C0
07E0
07E0
07C0
0380
ENDCHAR
STARTCHAR uni1E6E
ENCODING 7790
SWIDTH 614 0
DWIDTH 20 0
BBX 19 29 0 -6
BITMAP
FFFFE0
FFFFE0
FFFFE0
FFFFE0
FFFFE0
01F800
01F800
01F800
01F800
01F800
01F800
01F800
01F800
01F800
01F800
01F800
01F800
01F800
01F800
01F800
01F800
01F800
01F800
000000
000000
000000
07FE00
07FE00
07FE00
ENDCHAR
STARTCHAR uni1E6F
ENCODING 7791
SWIDTH 437 0
DWIDTH 14 0
BBX 13 28 1 -6
BITMAP
3F00
3F00
3F00
3F00
3F00
FFF0
FFF0
FFF0
FFF0
3F00
3F00
3F00
3F00
3F00
3F00
3F00
3F00
3FF0
3FF0
1FF0
0FF0
07E0
0000
0000
0000
1FF8
1FF8
1FF8
ENDCHAR
STARTCHAR uni1E78
ENCODING 7800
SWIDTH 749 0
DWIDTH 24 0
BBX 20 36 2 0
BITMAP
001000
003C00
007E00
00F800
01F000
000000
018700
07E700
07FE00
0FFE00
0E3C00
000000
000000
FC03F0
FC03F0
FC03F0
FC03F0
FC03F0
FC03F0
FC03F0
FC03F0
FC03F0
FC03F0
FC03F0
FC03F0
FC03F0
FC03F0
FC03F0
FC03F0
FC07F0
7E07E0
7FFFE0
3FFFC0
1FFF80
0FFF00
03FC00
ENDCHAR
STARTCHAR uni1E79
ENCODING 7801
SWIDTH 664 0
DWIDTH 21 0
BBX 17 31 2 0
BITMAP
002000
00F000
01FC00
03F000
07C000
000000
060C00
0F9C00
1FFC00
1FFC00
1C7800
000000
000000
F81F80
F81F80
F81F80
F81F80
F81F80
F81F80
F81F80
F81F80
F81F80
F81F80
F81F80
FC1F80
FC3F80
FFFF80
FFFF80
7FFF80
3FDF80
1F9F80
ENDCHAR
STARTCHAR uni1E7A
ENCODING 7802
SWIDTH 749 0
DWIDTH 24 0
BBX 20 35 2 0
BITMAP
061800
0F3C00
1F3E00
0F3C00
0E1C00
000000
000000
0FFC00
0FFC00
0FFC00
000000
000000
FC03F0
FC03F0
FC03F0
FC03F0
FC03F0
FC03F0
FC03F0
FC03F0
FC03F0
FC03F0
FC03F0
FC03F0
FC03F0
FC03F0
FC03F0
FC03F0
FC07F0
7E07E0
7FFFE0
3FFFC0
1FFF80
0FFF00
03FC00
ENDCHAR
STARTCHAR uni1E7B
ENCODING 7803
SWIDTH 664 0
DWIDTH 21 0
BBX 17 30 2 0
BITMAP
183000
3EF800
3EF800
3EF800
1C7000
000000
000000
1FF000
1FF000
1FF000
000000
000000
F81F80
F81F80
F81F80
F81F80
F81F80
F81F80
F81F80
F81F80
F81F80
F81F80
F81F80
FC1F80
FC3F80
FFFF80
FFFF80
7FFF80
3FDF80
1F9F80
ENDCHAR
STARTCHAR Wgrave
ENCODING 7808
SWIDTH 1113 0
DWIDTH 36 0
BBX 36 30 0 0
BITMAP
0001C00000
000FC00000
0007E00000
0001F00000
0000F00000
0000000000
0000000000
FC01F803F0
FE01F807E0
7E03F807E0
7E03FC07E0
7E03FC0FC0
3F03FC0FC0
3F07FE0FC0
3F07FE0F80
1F07FE1F80
1F87BE1F80
1F8F9F1F00
0F8F9F1F00
0FCF1F3F00
0FCF1F3E00
07DF0FBE00
07DF0FBE00
07FE0FFC00
03FE07FC00
03FE07FC00
03FC07F800
01FC07F800
01FC03F800
01FC03F000
ENDCHAR
STARTCHAR wgrave
ENCODING 7809
SWIDTH 941 0
DWIDTH 30 0
BBX 30 25 0 0
BITMAP
000E0000
003F0000
001F0000
000F8000
0007C000
00000000
00000000
FC0FC07C
FC0FC0FC
7C0FE0FC
7E1FE0F8
7E1FE0F8
3E1FE1F0
3E1FF1F0
3F3FF1F0
1F3EF3E0
1F3CFBE0
0FBCFBE0
0FFCFBC0
0FF87FC0
07F87FC0
07F87F80
07F83F80
03F03F80
03F03F00
ENDCHAR
STARTCHAR Wacute
ENCODING 7810
SWIDTH 1113 0
DWIDTH 36 0
BBX 36 30 0 0
BITMAP
0000380000
00007E0000
00007C0000
0000F80000
0001F00000
0000000000
0000000000
FC01F803F0
FE01F807E0
7E03F807E0
7E03FC07E0
7E03FC0FC0
3F03FC0FC0
3F07FE0FC0
3F07FE0F80
1F07FE1F80
1F87BE1F80
1F8F9F1F00
0F8F9F1F00
0FCF1F3F00
0FCF1F3E00
07DF0FBE00
07DF0FBE00
07FE0FFC00
03FE07FC00
03FE07FC00
03FC07F800
01FC07F800
01FC03F800
01FC03F000
ENDCHAR
STARTCHAR wacute
ENCODING 7811
SWIDTH 941 0
DWIDTH 30 0
BBX 30 25 0 0
BITMAP
0001C000
0001F800
0003F000
0007C000
000F8000
00000000
00000000
FC0FC07C
FC0FC0FC
7C0FE0FC
7E1FE0F8
7E1FE0F8
3E1FE1F0
3E1FF1F0
3F3FF1F0
1F3EF3E0
1F3CFBE0
0FBCFBE0
0FFCFBC0
0FF87FC0
07F87FC0
07F87F80
07F83F80
03F03F80
03F03F00
ENDCHAR
STARTCHAR Wdieresis
ENCODING 7812
SWIDTH 1113 0
DWIDTH 36 0
BBX 36 30 0 0
BITMAP
00030C0000
00079E0000
000FBE0000
000F9E0000
00071C0000
0000000000
0000000000
FC01F803F0
FE01F807E0
7E03F807E0
7E03FC07E0
7E03FC0FC0
3F03FC0FC0
3F07FE0FC0
3F07FE0F80
1F07FE1F80
1F87BE1F80
1F8F9F1F00
0F8F9F1F00
0FCF1F3F00
0FCF1F3E00
07DF0FBE00
07DF0FBE00
07FE0FFC00
03FE07FC00
03FE07FC00
03FC07F800
01FC07F800
01FC03F800
01FC03F000
ENDCHAR
STARTCHAR wdieresis
ENCODING 7813
SWIDTH 941 0
DWIDTH 30 0
BBX 30 25 0 0
BITMAP
00186000
003CF000
003EF800
003CF800
003C7000
00000000
00000000
FC0FC07C
FC0FC0FC
7C0FE0FC
7E1FE0F8
7E1FE0F8
3E1FE1F0
3E1FF1F0
3F3FF1F0
1F3EF3E0
1F3CFBE0
0FBCFBE0
0FFCFBC0
0FF87FC0
07F87FC0
07F87F80
07F83F80
03F03F80
03F03F00
ENDCHAR
STARTCHAR uni1E8E
ENCODING 7822
SWIDTH 684 0
DWIDTH 22 0
BBX 22 31 0 0
BITMAP
007800
00FC00
00FC00
00FC00
00FC00
007800
000000
000000
FC00FC
7E01F8
7E01F8
3F03F0
3F03F0
1F87E0
1F87E0
0FCFC0
0FCFC0
07FF80
07FF80
03FF00
03FF00
01FE00
01FE00
00FC00
00FC00
00FC00
00FC00
00FC00
00FC00
00FC00
00FC00
ENDCHAR
STARTCHAR uni1E8F
ENCODING 7823
SWIDTH 584 0
DWIDTH 19 0
BBX 19 32 0 -6
BITMAP
00E000
01F000
03F000
03F000
01F000
00E000
000000
000000
FC07E0
FC07C0
7C0FC0
7E0FC0
7E0F80
3E0F80
3F1F00
1F1F00
1F9F00
0FBE00
0FBE00
0FFE00
07FC00
07FC00
03F800
03F800
03F800
01F000
23F000
7FE000
7FE000
FFC000
FF8000
3F0000
ENDCHAR
STARTCHAR uni1E92
ENCODING 7826
SWIDTH 676 0
DWIDTH 22 0
BBX 20 31 1 -8
BITMAP
FFFFF0
FFFFF0
FFFFF0
FFFFF0
FFFFE0
001FC0
003F80
007F80
007F00
00FE00
01FC00
03F800
07F000
07F000
0FE000
1FC000
3F8000
7F0000
FFFFF0
FFFFF0
FFFFF0
FFFFF0
FFFFF0
000000
000000
00E000
01F000
01F800
01F800
01F000
00F000
ENDCHAR
STARTCHAR uni1E93
ENCODING 7827
SWIDTH 555 0
DWIDTH 18 0
BBX 16 26 1 -8
BITMAP
FFFF
FFFF
FFFF
FFFF
FFFE
00FC
01F8
03F0
07E0
0FE0
1FC0
1F80
3F00
7FFF
FFFF
FFFF
FFFF
FFFF
0000
0000
03C0
07E0
07E0
07E0
07E0
03C0
ENDCHAR
STARTCHAR uni1E97
ENCODING 7831
SWIDTH 437 0
DWIDTH 14 0
BBX 13 29 0 0
BITMAP
30C0
79E0
FBE0
F9E0
71C0
0000
0000
1F80
1F80
1F80
1F80
1F80
7FF8
7FF8
7FF8
7FF8
1F80
1F80
1F80
1F80
1F80
1F80
1F80
1F80
1FF8
1FF8
0FF8
07F8
03F0
ENDCHAR
STARTCHAR uni1E9E
ENCODING 7838
SWIDTH 711 0
DWIDTH 23 0
BBX 20 23 2 0
BITMAP
03FC00
0FFF80
1FFFC0
3FFFC0
7FFFC0
7F07C0
FE0FC0
FC1F80
FC1F80
FC3F00
F83F80
F83FC0
F83FE0
F80FE0
F803F0
F803F0
F803F0
F807F0
F87FF0
F87FE0
F87FC0
F87F80
F87E00
ENDCHAR
STARTCHAR uni1EA0
ENCODING 7840
SWIDTH 773 0
DWIDTH 25 0
BBX 25 31 0 -8
BITMAP
007F0000
007F0000
00FF8000
00FF8000
00FF8000
01FFC000
01FFC000
03F7E000
03E7E000
07E3E000
07E3F000
07C3F000
0FC1F800
0FC1F800
1FFFF800
1FFFFC00
1FFFFC00
3FFFFE00
3FFFFE00
7E007E00
7E003F00
FC003F00
FC003F80
00000000
00000000
003C0000
007E0000
007E0000
007E0000
007E0000
003C0000
ENDCHAR
STARTCHAR uni1EA1
ENCODING 7841
SWIDTH 601 0
DWIDTH 19 0
BBX 17 26 1 -8
BITMAP
07F000
3FFC00
7FFE00
3FFF00
3FFF00
203F00
001F80
1FFF80
7FFF80
7FFF80
FC1F80
F81F80
F81F80
FC7F80
FFFF80
7FFF80
7FDF80
1F9F80
000000
000000
03C000
07E000
07E000
07E000
07E000
03C000
ENDCHAR
STARTCHAR uni1EA2
ENCODING 7842
SWIDTH 773 0
DWIDTH 25 0
BBX 25 32 0 0
BITMAP
003E0000
007F0000
003F0000
000F0000
000F0000
000E0000
001E0000
00000000
00000000
007F0000
007F0000
00FF8000
00FF8000
00FF8000
01FFC000
01FFC000
03F7E000
03E7E000
07E3E000
07E3F000
07C3F000
0FC1F800
0FC1F800
1FFFF800
1FFFFC00
1FFFFC00
3FFFFE00
3FFFFE00
7E007E00
7E003F00
FC003F00
FC003F80
ENDCHAR
STARTCHAR uni1EA3
ENCODING 7843
SWIDTH 601 0
DWIDTH 19 0
BBX 17 27 1 0
BITMAP
03E000
07F000
03F000
00F000
00F000
00F000
01E000
000000
000000
07F000
3FFC00
7FFE00
3FFF00
3FFF00
203F00
001F80
1FFF80
7FFF80
7FFF80
FC1F80
F81F80
F81F80
FC7F80
FFFF80
7FFF80
7FDF80
1F9F80
ENDCHAR
STARTCHAR uni1EA4
ENCODING 7844
SWIDTH 773 0
DWIDTH 25 0
BBX 25 35 0 0
BITMAP
00060000
000F0000
001FC000
003F0000
007C0000
00000000
007F0000
00FF8000
01F7C000
03E3E000
00000000
00000000
007F0000
007F0000
00FF8000
00FF8000
00FF8000
01FFC000
01FFC000
03F7E000
03E7E000
07E3E000
07E3F000
07C3F000
0FC1F800
0FC1F800
1FFFF800
1FFFFC00
1FFFFC00
3FFFFE00
3FFFFE00
7E007E00
7E003F00
FC003F00
FC003F80
ENDCHAR
STARTCHAR uni1EA5
ENCODING 7845
SWIDTH 601 0
DWIDTH 19 0
BBX 17 30 1 0
BITMAP
006000
00F000
01FC00
03F000
07C000
000000
07F000
0FF800
1F7C00
3E3E00
000000
000000
07F000
3FFC00
7FFE00
3FFF00
3FFF00
203F00
001F80
1FFF80
7FFF80
7FFF80
FC1F80
F81F80
F81F80
FC7F80
FFFF80
7FFF80
7FDF80
1F9F80
ENDCHAR
STARTCHAR uni1EA6
ENCODING 7846
SWIDTH 773 0
DWIDTH 25 0
BBX 25 35 0 0
BITMAP
00200000
00F00000
01F80000
007C0000
003E0000
00000000
007F0000
00FF8000
01F7C000
03E3E000
00000000
00000000
007F0000
007F0000
00FF8000
00FF8000
00FF8000
01FFC000
01FFC000
03F7E000
03E7E000
07E3E000
07E3F000
07C3F000
0FC1F800
0FC1F800
1FFFF800
1FFFFC00
1FFFFC00
3FFFFE00
3FFFFE00
7E007E00
7E003F00
FC003F00
FC003F80
ENDCHAR
STARTCHAR uni1EA7
ENCODING 7847
SWIDTH 601 0
DWIDTH 19 0
BBX 17 30 1 0
BITMAP
020000
0F0000
1F8000
07E000
01E000
000000
07F000
0FF800
1F7C00
3E3E00
000000
000000
07F000
3FFC00
7FFE00
3FFF00
3FFF00
203F00
001F80
1FFF80
7FFF80
7FFF80
FC1F80
F81F80
F81F80
FC7F80
FFFF80
7FFF80
7FDF80
1F9F80
ENDCHAR
STARTCHAR uni1EA8
ENCODING 7848
SWIDTH 773 0
DWIDTH 25 0
BBX 25 35 0 0
BITMAP
007E0000
003F0000
002F0000
000E0000
001C0000
00000000
007F0000
00FF8000
00F7C000
03E3E000
00000000
00000000
007F0000
007F0000
00FF8000
00FF8000
00FF8000
01FFC000
01FFC000
03F7E000
03E7E000
07E3E000
07E3F000
07C3F000
0FC1F800
0FC1F800
1FFFF800
1FFFFC00
1FFFFC00
3FFFFE00
3FFFFE00
7E007E00
7E003F00
FC003F00
FC003F80
ENDCHAR
STARTCHAR uni1EA9
ENCODING 7849
SWIDTH 601 0
DWIDTH 19 0
BBX 17 30 1 0
BITMAP
07E000
03F000
02E000
00E000
01C000
000000
07F000
0FF800
1F7C00
3E3E00
000000
000000
07F000
3FFC00
7FFE00
3FFF00
3FFF00
203F00
001F80
1FFF80
7FFF80
7FFF80
FC1F80
F81F80
F81F80
FC7F80
FFFF80
7FFF80
7FDF80
1F9F80
ENDCHAR
STARTCHAR uni1EAA
ENCODING 7850
SWIDTH 773 0
DWIDTH 25 0
BBX 25 35 0 0
BITMAP
0041C000
01F9C000
01FFC000
03FF8000
038F0000
00000000
007F0000
00FF8000
01F78000
03E3E000
00000000
00000000
007F0000
007F0000
00FF8000
00FF8000
00FF8000
01FFC000
01FFC000
03F7E000
03E7E000
07E3E000
07E3F000
07C3F000
0FC1F800
0FC1F800
1FFFF800
1FFFFC00
1FFFFC00
3FFFFE00
3FFFFE00
7E007E00
7E003F00
FC003F00
FC003F80
ENDCHAR
STARTCHAR uni1EAB
ENCODING 7851
SWIDTH 601 0
DWIDTH 19 0
BBX 17 30 1 0
BITMAP
060C00
0F9C00
1FFC00
1FFC00
1C7800
000000
07F000
0FF800
1F7C00
3E3E00
000000
000000
07F000
3FFC00
7FFE00
3FFF00
3FFF00
203F00
001F80
1FFF80
7FFF80
7FFF80
FC1F80
F81F80
F81F80
FC7F80
FFFF80
7FFF80
7FDF80
1F9F80
ENDCHAR
STARTCHAR uni1EAC
ENCODING 7852
SWIDTH 773 0
DWIDTH 25 0
BBX 25 38 0 -8
BITMAP
003E0000
007F0000
00FF0000
01F78000
03E3C000
00000000
00000000
007F0000
007F0000
00FF8000
00FF8000
00FF8000
01FFC000
01FFC000
03F7E000
03E7E000
07E3E000
07E3F000
07C3F000
0FC1F800
0FC1F800
1FFFF800
1FFFFC00
1FFFFC00
3FFFFE00
3FFFFE00
7E007E00
7E003F00
FC003F00
FC003F80
00000000
00000000
003C0000
007E0000
007E0000
007E0000
007E0000
003C0000
ENDCHAR
STARTCHAR uni1EAD
ENCODING 7853
SWIDTH 601 0
DWIDTH 19 0
BBX 17 33 1 -8
BITMAP
07E000
07E000
0FF000
1F7800
3E3C00
000000
000000
07F000
3FFC00
7FFE00
3FFF00
3FFF00
203F00
001F80
1FFF80
7FFF80
7FFF80
FC1F80
F81F80
F81F80
FC7F80
FFFF80
7FFF80
7FDF80
1F9F80
000000
000000
03C000
07E000
07E000
07E000
07E000
03C000
ENDCHAR
STARTCHAR uni1EAE
ENCODING 7854
SWIDTH 773 0
DWIDTH 25 0
BBX 25 34 0 0
BITMAP
00060000
000F0000
001FC000
003F0000
01FFC000
01E3C000
00FF8000
00FF0000
003E0000
00000000
00000000
007F0000
007F0000
00FF8000
00FF8000
00FF8000
01FFC000
01FFC000
03F7E000
03E7E000
07E3E000
07E3F000
07C3F000
0FC1F800
0FC1F800
1FFFF800
1FFFFC00
1FFFFC00
3FFFFE00
3FFFFE00
7E007E00
7E003F00
FC003F00
FC003F80
ENDCHAR
STARTCHAR uni1EAF
ENCODING 7855
SWIDTH 601 0
DWIDTH 19 0
BBX 17 30 1 0
BITMAP
002000
00F000
01FC00
03F000
07C000
1E1C00
1E3C00
0FF800
07F800
03E000
000000
000000
07F000
3FFC00
7FFE00
3FFF00
3FFF00
203F00
001F80
1FFF80
7FFF80
7FFF80
FC1F80
F81F80
F81F80
FC7F80
FFFF80
7FFF80
7FDF80
1F9F80
ENDCHAR
STARTCHAR uni1EB0
ENCODING 7856
SWIDTH 773 0
DWIDTH 25 0
BBX 25 34 0 0
BITMAP
00200000
00F00000
01F80000
007C0000
01FFC000
01E3C000
00FF8000
00FF8000
003E0000
00000000
00000000
007F0000
007F0000
00FF8000
00FF8000
00FF8000
01FFC000
01FFC000
03F7E000
03E7E000
07E3E000
07E3F000
07C3F000
0FC1F800
0FC1F800
1FFFF800
1FFFFC00
1FFFFC00
3FFFFE00
3FFFFE00
7E007E00
7E003F00
FC003F00
FC003F80
ENDCHAR
STARTCHAR uni1EB1
ENCODING 7857
SWIDTH 601 0
DWIDTH 19 0
BBX 17 30 1 0
BITMAP
020000
0F0000
1FC000
07E000
01E000
1E1C00
1E3C00
0FF800
07F800
03E000
000000
000000
07F000
3FFC00
7FFE00
3FFF00
3FFF00
203F00
001F80
1FFF80
7FFF80
7FFF80
FC1F80
F81F80
F81F80
FC7F80
FFFF80
7FFF80
7FDF80
1F9F80
ENDCHAR
STARTCHAR uni1EB2
ENCODING 7858
SWIDTH 773 0
DWIDTH 25 0
BBX 25 34 0 0
BITMAP
007E0000
007E0000
002E0000
000E0000
01DFC000
01E3C000
00FF8000
00FF0000
003E0000
00000000
00000000
007F0000
007F0000
00FF8000
00FF8000
00FF8000
01FFC000
01FFC000
03F7E000
03E7E000
07E3E000
07E3F000
07C3F000
0FC1F800
0FC1F800
1FFFF800
1FFFFC00
1FFFFC00
3FFFFE00
3FFFFE00
7E007E00
7E003F00
FC003F00
FC003F80
ENDCHAR
STARTCHAR uni1EB3
ENCODING 7859
SWIDTH 601 0
DWIDTH 19 0
BBX 17 30 1 0
BITMAP
07E000
03F000
02E000
00E000
01C000
1E1C00
1E3C00
0FF800
07F800
03E000
000000
000000
07F000
3FFC00
7FFE00
3FFF00
3FFF00
203F00
001F80
1FFF80
7FFF80
7FFF80
FC1F80
F81F80
F81F80
FC7F80
FFFF80
7FFF80
7FDF80
1F9F80
ENDCHAR
STARTCHAR uni1EB4
ENCODING 7860
SWIDTH 773 0
DWIDTH 25 0
BBX 25 35 0 0
BITMAP
0060C000
00F9C000
01FFC000
01FFC000
01C78000
01C3C000
01E3C000
00FF8000
00FF0000
003E0000
00000000
00000000
007F0000
007F0000
00FF8000
00FF8000
00FF8000
01FFC000
01FFC000
03F7E000
03E7E000
07E3E000
07E3F000
07C3F000
0FC1F800
0FC1F800
1FFFF800
1FFFFC00
1FFFFC00
3FFFFE00
3FFFFE00
7E007E00
7E003F00
FC003F00
FC003F80
ENDCHAR
STARTCHAR uni1EB5
ENCODING 7861
SWIDTH 601 0
DWIDTH 19 0
BBX 17 31 1 0
BITMAP
060C00
0F9C00
1FFC00
1FFC00
1C7800
000000
1E3C00
1E3C00
0FF800
0FF800
03E000
000000
000000
07F000
3FFC00
7FFE00
3FFF00
3FFF00
203F00
001F80
1FFF80
7FFF80
7FFF80
FC1F80
F81F80
F81F80
FC7F80
FFFF80
7FFF80
7FDF80
1F9F80
ENDCHAR
STARTCHAR uni1EB6
ENCODING 7862
SWIDTH 773 0
DWIDTH 25 0
BBX 25 39 0 -8
BITMAP
01C38000
01E38000
01E78000
00FF8000
00FF0000
003C0000
00000000
00000000
007F0000
007F0000
00FF8000
00FF8000
00FF8000
01FFC000
01FFC000
03F7E000
03E7E000
07E3E000
07E3F000
07C3F000
0FC1F800
0FC1F800
1FFFF800
1FFFFC00
1FFFFC00
3FFFFE00
3FFFFE00
7E007E00
7E003F00
FC003F00
FC003F80
00000000
00000000
003C0000
007E0000
007E0000
007E0000
007E0000
003C0000
ENDCHAR
STARTCHAR uni1EB7
ENCODING 7863
SWIDTH 601 0
DWIDTH 19 0
BBX 17 34 1 -8
BITMAP
1C3800
1E3800
1E7800
0FF800
0FF000
03E000
000000
000000
07F000
3FFC00
7FFE00
3FFF00
3FFF00
203F00
001F80
1FFF80
7FFF80
7FFF80
FC1F80
F81F80
F81F80
FC7F80
FFFF80
7FFF80
7FDF80
1F9F80
000000
000000
03C000
07E000
07E000
07E000
07E000
03C000
ENDCHAR
STARTCHAR uni1EB8
ENCODING 7864
SWIDTH 675 0
DWIDTH 22 0
BBX 18 31 2 -8
BITMAP
FFFFC0
FFFFC0
FFFFC0
FFFFC0
FFFFC0
FC0000
FC0000
FC0000
FC0000
FFFF80
FFFF80
FFFF80
FFFF80
FFFF80
FC0000
FC0000
FC0000
FC0000
FFFFC0
FFFFC0
FFFFC0
FFFFC0
FFFFC0
000000
000000
01E000
03F000
03F000
03F000
03F000
01E000
ENDCHAR
STARTCHAR uni1EB9
ENCODING 7865
SWIDTH 603 0
DWIDTH 19 0
BBX 18 26 1 -8
BITMAP
03F000
1FFC00
3FFE00
7FFF00
7FFF80
FC1F80
FC0F80
FFFF80
FFFFC0
FFFFC0
FC0000
FC0400
FE0C00
7FFE00
7FFF00
3FFF00
1FFC00
03F000
000000
000000
01C000
03E000
03F000
03F000
03E000
01C000
ENDCHAR
STARTCHAR uni1EBA
ENCODING 7866
SWIDTH 675 0
DWIDTH 22 0
BBX 18 32 2 0
BITMAP
01F000
03F800
03F800
007800
007800
00F000
00E000
000000
000000
FFFFC0
FFFFC0
FFFFC0
FFFFC0
FFFFC0
FC0000
FC0000
FC0000
FC0000
FFFF80
FFFF80
FFFF80
FFFF80
FFFF80
FC0000
FC0000
FC0000
FC0000
FFFFC0
FFFFC0
FFFFC0
FFFFC0
FFFFC0
ENDCHAR
STARTCHAR uni1EBB
ENCODING 7867
SWIDTH 603 0
DWIDTH 19 0
BBX 18 27 1 0
BITMAP
03E000
07F000
03F000
00F000
00F000
00F000
01E000
000000
000000
03F000
1FFC00
3FFE00
7FFF00
7FFF80
FC1F80
FC0F80
FFFF80
FFFFC0
FFFFC0
FC0000
FC0400
FE0C00
7FFE00
7FFF00
3FFF00
1FFC00
03F000
ENDCHAR
STARTCHAR uni1EBC
ENCODING 7868
SWIDTH 675 0
DWIDTH 22 0
BBX 18 30 2 0
BITMAP
078E00
0FFE00
0FFE00
0FFC00
0E3C00
000000
000000
FFFFC0
FFFFC0
FFFFC0
FFFFC0
FFFFC0
FC0000
FC0000
FC0000
FC0000
FFFF80
FFFF80
FFFF80
FFFF80
FFFF80
FC0000
FC0000
FC0000
FC0000
FFFFC0
FFFFC0
FFFFC0
FFFFC0
FFFFC0
ENDCHAR
STARTCHAR uni1EBD
ENCODING 7869
SWIDTH 603 0
DWIDTH 19 0
BBX 18 25 1 0
BITMAP
0F1E00
0FFC00
1FFC00
1FFC00
1C7800
000000
000000
03F000
1FFC00
3FFE00
7FFF00
7FFF80
FC1F80
FC0F80
FFFF80
FFFFC0
FFFFC0
FC0000
FC0400
FE0C00
7FFE00
7FFF00
3FFF00
1FFC00
03F000
ENDCHAR
STARTCHAR uni1EBE
ENCODING 7870
SWIDTH 675 0
DWIDTH 22 0
BBX 18 35 2 0
BITMAP
002000
007800
00FC00
01F000
03E000
000000
03F800
07F800
0FBC00
3F1F00
000000
000000
FFFFC0
FFFFC0
FFFFC0
FFFFC0
FFFFC0
FC0000
FC0000
FC0000
FC0000
FFFF80
FFFF80
FFFF80
FFFF80
FFFF80
FC0000
FC0000
FC0000
FC0000
FFFFC0
FFFFC0
FFFFC0
FFFFC0
FFFFC0
ENDCHAR
STARTCHAR uni1EBF
ENCODING 7871
SWIDTH 603 0
DWIDTH 19 0
BBX 18 30 1 0
BITMAP
002000
00F000
01FC00
03F000
07C000
000000
07F000
0FF800
1F7C00
3E3E00
000000
000000
03F000
1FFC00
3FFE00
7FFF00
7FFF80
FC1F80
FC0F80
FFFF80
FFFFC0
FFFFC0
FC0000
FC0400
FE0C00
7FFE00
7FFF00
3FFF00
1FFC00
03F000
ENDCHAR
STARTCHAR uni1EC0
ENCODING 7872
SWIDTH 675 0
DWIDTH 22 0
BBX 18 35 2 0
BITMAP
010000
078000
0FC000
07E000
01F000
000000
03F800
07F800
0FBC00
1F1F00
200000
000000
FFFFC0
FFFFC0
FFFFC0
FFFFC0
FFFFC0
FC0000
FC0000
FC0000
FC0000
FFFF80
FFFF80
FFFF80
FFFF80
FFFF80
FC0000
FC0000
FC0000
FC0000
FFFFC0
FFFFC0
FFFFC0
FFFFC0
FFFFC0
ENDCHAR
STARTCHAR uni1EC1
ENCODING 7873
SWIDTH 603 0
DWIDTH 19 0
BBX 18 30 1 0
BITMAP
020000
0F0000
1FC000
07E000
01E000
000000
07F000
0FF800
1F7C00
3E3E00
000000
000000
03F000
1FFC00
3FFE00
7FFF00
7FFF80
FC1F80
FC0F80
FFFF80
FFFFC0
FFFFC0
FC0000
FC0400
FE0C00
7FFE00
7FFF00
3FFF00
1FFC00
03F000
ENDCHAR
STARTCHAR uni1EC2
ENCODING 7874
SWIDTH 675 0
DWIDTH 22 0
BBX 18 35 2 0
BITMAP
03F000
01F800
017000
007000
00E000
000000
03F800
07FC00
0FBE00
1F1F00
000000
000000
FFFFC0
FFFFC0
FFFFC0
FFFFC0
FFFFC0
FC0000
FC0000
FC0000
FC0000
FFFF80
FFFF80
FFFF80
FFFF80
FFFF80
FC0000
FC0000
FC0000
FC0000
FFFFC0
FFFFC0
FFFFC0
FFFFC0
FFFFC0
ENDCHAR
STARTCHAR uni1EC3
ENCODING 7875
SWIDTH 603 0
DWIDTH 19 0
BBX 18 30 1 0
BITMAP
07E000
03F000
02F000
00E000
01C000
000000
07F000
0FF800
1F7C00
3E3E00
000000
000000
03F000
1FFC00
3FFE00
7FFF00
7FFF80
FC1F80
FC0F80
FFFF80
FFFFC0
FFFFC0
FC0000
FC0400
FE0C00
7FFE00
7FFF00
3FFF00
1FFC00
03F000
ENDCHAR
STARTCHAR uni1EC4
ENCODING 7876
SWIDTH 675 0
DWIDTH 22 0
BBX 18 35 2 0
BITMAP
070E00
0FCE00
1FFC00
1FFC00
1C7800
000000
03F000
07F800
0F7C00
3E3F00
000000
000000
FFFFC0
FFFFC0
FFFFC0
FFFFC0
FFFFC0
FC0000
FC0000
FC0000
FC0000
FFFF80
FFFF80
FFFF80
FFFF80
FFFF80
FC0000
FC0000
FC0000
FC0000
FFFFC0
FFFFC0
FFFFC0
FFFFC0
FFFFC0
ENDCHAR
STARTCHAR uni1EC5
ENCODING 7877
SWIDTH 603 0
DWIDTH 19 0
BBX 18 30 1 0
BITMAP
060C00
0F9C00
1FFC00
1FFC00
1C7800
000000
07F000
0FF800
1F7C00
3E3E00
000000
000000
03F000
1FFC00
3FFE00
7FFF00
7FFF80
FC1F80
FC0F80
FFFF80
FFFFC0
FFFFC0
FC0000
FC0400
FE0C00
7FFE00
7FFF00
3FFF00
1FFC00
03F000
ENDCHAR
STARTCHAR uni1EC6
ENCODING 7878
SWIDTH 675 0
DWIDTH 22 0
BBX 18 38 2 -8
BITMAP
01F000
03F800
07F800
0FBC00
1F1E00
000000
000000
FFFFC0
FFFFC0
FFFFC0
FFFFC0
FFFFC0
FC0000
FC0000
FC0000
FC0000
FFFF80
FFFF80
FFFF80
FFFF80
FFFF80
FC0000
FC0000
FC0000
FC0000
FFFFC0
FFFFC0
FFFFC0
FFFFC0
FFFFC0
000000
000000
01E000
03F000
03F000
03F000
03F000
01E000
ENDCHAR
STARTCHAR uni1EC7
ENCODING 7879
SWIDTH 603 0
DWIDTH 19 0
BBX 18 33 1 -8
BITMAP
03E000
07F000
07F800
0F7C00
1E3E00
000000
000000
03F000
1FFC00
3FFE00
7FFF00
7FFF80
FC1F80
FC0F80
FFFF80
FFFFC0
FFFFC0
FC0000
FC0400
FE0C00
7FFE00
7FFF00
3FFF00
1FFC00
03F000
000000
000000
01C000
03E000
03F000
03F000
03E000
01C000
ENDCHAR
STARTCHAR uni1EC8
ENCODING 7880
SWIDTH 319 0
DWIDTH 10 0
BBX 8 32 1 0
BITMAP
3C
FF
7F
0F
0F
1E
1C
00
00
7E
7E
7E
7E
7E
7E
7E
7E
7E
7E
7E
7E
7E
7E
7E
7E
7E
7E
7E
7E
7E
7E
7E
ENDCHAR
STARTCHAR uni1EC9
ENCODING 7881
SWIDTH 313 0
DWIDTH 10 0
BBX 8 27 1 0
BITMAP
3C
FE
7F
0F
0F
1E
1C
00
00
7E
7E
7E
7E
7E
7E
7E
7E
7E
7E
7E
7E
7E
7E
7E
7E
7E
7E
ENDCHAR
STARTCHAR uni1ECA
ENCODING 7882
SWIDTH 319 0
DWIDTH 10 0
BBX 6 31 2 -8
BITMAP
FC
FC
FC
FC
FC
FC
FC
FC
FC
FC
FC
FC
FC
FC
FC
FC
FC
FC
FC
FC
FC
FC
FC
00
00
78
FC
FC
FC
FC
78
ENDCHAR
STARTCHAR uni1ECB
ENCODING 7883
SWIDTH 313 0
DWIDTH 10 0
BBX 6 34 2 -8
BITMAP
78
FC
FC
FC
FC
78
00
00
FC
FC
FC
FC
FC
FC
FC
FC
FC
FC
FC
FC
FC
FC
FC
FC
FC
FC
00
00
78
FC
FC
FC
FC
78
ENDCHAR
STARTCHAR uni1ECC
ENCODING 7884
SWIDTH 804 0
DWIDTH 26 0
BBX 24 31 1 -8
BITMAP
00FF00
03FFC0
0FFFF0
1FFFF8
3FFFFC
7F81FC
7F00FE
FE007E
FC007F
FC003F
FC003F
FC003F
FC003F
FC003F
FC007F
FE007E
7F00FE
7F81FC
3FFFFC
1FFFF8
0FFFF0
03FFC0
00FE00
000000
000000
003C00
007C00
007E00
007E00
007C00
003C00
ENDCHAR
STARTCHAR uni1ECD
ENCODING 7885
SWIDTH 638 0
DWIDTH 20 0
BBX 19 26 1 -8
BITMAP
03F800
0FFE00
3FFF00
7FFF80
7FFFC0
FE0FC0
FC0FC0
FC07E0
FC07E0
FC07E0
FC07E0
FC0FC0
FE0FC0
7FFFC0
7FFF80
3FFF00
0FFE00
03F800
000000
000000
01E000
03F000
03F000
03F000
03F000
01E000
ENDCHAR
STARTCHAR uni1ECE
ENCODING 7886
SWIDTH 804 0
DWIDTH 26 0
BBX 24 32 1 0
BITMAP
003C00
00FE00
007F00
000F00
000E00
001E00
003C00
000000
000000
00FF00
03FFC0
0FFFF0
1FFFF8
3FFFFC
7F81FC
7F00FE
FE007E
FC007F
FC003F
FC003F
FC003F
FC003F
FC003F
FC007F
FE007E
7F00FE
7F81FC
3FFFFC
1FFFF8
0FFFF0
03FFC0
00FE00
ENDCHAR
STARTCHAR uni1ECF
ENCODING 7887
SWIDTH 638 0
DWIDTH 20 0
BBX 19 27 1 0
BITMAP
01F000
03F800
03F800
007800
007800
00F000
00E000
000000
000000
03F800
0FFE00
3FFF00
7FFF80
7FFFC0
FE0FC0
FC0FC0
FC07E0
FC07E0
FC07E0
FC07E0
FC0FC0
FE0FC0
7FFFC0
7FFF80
3FFF00
0FFE00
03F800
ENDCHAR
STARTCHAR uni1ED0
ENCODING 7888
SWIDTH 804 0
DWIDTH 26 0
BBX 24 35 1 0
BITMAP
000400
000F00
001F80
007E00
007800
000000
00FE00
01FF00
01EF80
07C7C0
000000
000000
00FF00
03FFC0
0FFFF0
1FFFF8
3FFFFC
7F81FC
7F00FE
FE007E
FC007F
FC003F
FC003F
FC003F
FC003F
FC003F
FC007F
FE007E
7F00FE
7F81FC
3FFFFC
1FFFF8
0FFFF0
03FFC0
00FE00
ENDCHAR
STARTCHAR uni1ED1
ENCODING 7889
SWIDTH 638 0
DWIDTH 20 0
BBX 19 30 1 0
BITMAP
002000
007800
00FC00
01F800
03E000
000000
03F800
07FC00
0FBC00
1F1F00
000000
000000
03F800
0FFE00
3FFF00
7FFF80
7FFFC0
FE0FC0
FC0FC0
FC07E0
FC07E0
FC07E0
FC07E0
FC0FC0
FE0FC0
7FFFC0
7FFF80
3FFF00
0FFE00
03F800
ENDCHAR
STARTCHAR uni1ED2
ENCODING 7890
SWIDTH 804 0
DWIDTH 26 0
BBX 24 35 1 0
BITMAP
006000
00F000
03F800
00FC00
003E00
000000
00FE00
00FF00
01EF80
07C7C0
000000
000000
00FF00
03FFC0
0FFFF0
1FFFF8
3FFFFC
7F81FC
7F00FE
FE007E
FC007F
FC003F
FC003F
FC003F
FC003F
FC003F
FC007F
FE007E
7F00FE
7F81FC
3FFFFC
1FFFF8
0FFFF0
03FFC0
00FE00
ENDCHAR
STARTCHAR uni1ED3
ENCODING 7891
SWIDTH 638 0
DWIDTH 20 0
BBX 19 30 1 0
BITMAP
010000
078000
0FC000
07E000
01F000
000000
03F800
07FC00
0FBC00
1F1F00
000000
000000
03F800
0FFE00
3FFF00
7FFF80
7FFFC0
FE0FC0
FC0FC0
FC07E0
FC07E0
FC07E0
FC07E0
FC0FC0
FE0FC0
7FFFC0
7FFF80
3FFF00
0FFE00
03F800
ENDCHAR
STARTCHAR uni1ED4
ENCODING 7892
SWIDTH 804 0
DWIDTH 26 0
BBX 24 35 1 0
BITMAP
007E00
007E00
002E00
001E00
001C00
000000
007F00
00FF80
01F7C0
03E3E0
000000
000000
00FF00
03FFC0
0FFFF0
1FFFF8
3FFFFC
7F81FC
7F00FE
FE007E
FC007F
FC003F
FC003F
FC003F
FC003F
FC003F
FC007F
FE007E
7F00FE
7F81FC
3FFFFC
1FFFF8
0FFFF0
03FFC0
00FE00
ENDCHAR
STARTCHAR uni1ED5
ENCODING 7893
SWIDTH 638 0
DWIDTH 20 0
BBX 19 30 1 0
BITMAP
03F000
03F000
01F000
00F000
01E000
000000
03F800
07FC00
0FBC00
1F1F00
000000
000000
03F800
0FFE00
3FFF00
7FFF80
7FFFC0
FE0FC0
FC0FC0
FC07E0
FC07E0
FC07E0
FC07E0
FC0FC0
FE0FC0
7FFFC0
7FFF80
3FFF00
0FFE00
03F800
ENDCHAR
STARTCHAR uni1ED6
ENCODING 7894
SWIDTH 804 0
DWIDTH 26 0
BBX 24 35 1 0
BITMAP
00C180
01F380
03FF80
03FF80
038F00
000000
00FE00
01FF00
03EF80
07C7C0
000000
000000
00FF00
03FFC0
0FFFF0
1FFFF8
3FFFFC
7F81FC
7F00FE
FE007E
FC007F
FC003F
FC003F
FC003F
FC003F
FC003F
FC007F
FE007E
7F00FE
7F81FC
3FFFFC
1FFFF8
0FFFF0
03FFC0
00FE00
ENDCHAR
STARTCHAR uni1ED7
ENCODING 7895
SWIDTH 638 0
DWIDTH 20 0
BBX 19 30 1 0
BITMAP
060E00
0FCE00
0FFE00
0FFC00
1C7800
000000
03F800
07FC00
0FBC00
1F1F00
000000
000000
03F800
0FFE00
3FFF00
7FFF80
7FFFC0
FE0FC0
FC0FC0
FC07E0
FC07E0
FC07E0
FC07E0
FC0FC0
FE0FC0
7FFFC0
7FFF80
3FFF00
0FFE00
03F800
ENDCHAR
STARTCHAR uni1ED8
ENCODING 7896
SWIDTH 804 0
DWIDTH 26 0
BBX 24 38 1 -8
BITMAP
007E00
00FE00
00FF00
01EF80
03C780
000000
000000
00FF00
03FFC0
0FFFF0
1FFFF8
3FFFFC
7F81FC
7F00FE
FE007E
FC007F
FC003F
FC003F
FC003F
FC003F
FC003F
FC007F
FE007E
7F00FE
7F81FC
3FFFFC
1FFFF8
0FFFF0
03FFC0
00FE00
000000
000000
003C00
007C00
007E00
007E00
007C00
003C00
ENDCHAR
STARTCHAR uni1ED9
ENCODING 7897
SWIDTH 638 0
DWIDTH 20 0
BBX 19 33 1 -8
BITMAP
01F000
03F800
07F800
0FBC00
1F1E00
000000
000000
03F800
0FFE00
3FFF00
7FFF80
7FFFC0
FE0FC0
FC0FC0
FC07E0
FC07E0
FC07E0
FC07E0
FC0FC0
FE0FC0
7FFFC0
7FFF80
3FFF00
0FFE00
03F800
000000
000000
01E000
03F000
03F000
03F000
03F000
01E000
ENDCHAR
STARTCHAR uni1EDA
ENCODING 7898
SWIDTH 833 0
DWIDTH 27 0
BBX 25 30 1 0
BITMAP
000E0000
000FC000
001F0100
003E0700
007C1F00
00000F80
00000F80
00FF0F00
03FFFF00
0FFFFE00
1FFFFC00
3FFFFC00
7F81FC00
7F00FE00
FE007E00
FC007F00
FC003F00
FC003F00
FC003F00
FC003F00
FC003F00
FC007F00
FE007E00
7F00FE00
7F81FC00
3FFFFC00
1FFFF800
0FFFF000
03FFC000
00FE0000
ENDCHAR
STARTCHAR uni1EDB
ENCODING 7899
SWIDTH 679 0
DWIDTH 22 0
BBX 21 25 1 0
BITMAP
003000
007E00
00FC08
01F078
03E0F8
000078
000078
03F8F8
0FFFF8
3FFFF0
7FFFE0
7FFFC0
FE0FC0
FC0FC0
FC07E0
FC07E0
FC07E0
FC07E0
FC0FC0
FE0FC0
7FFFC0
7FFF80
3FFF00
0FFE00
03F800
ENDCHAR
STARTCHAR uni1EDC
ENCODING 7900
SWIDTH 833 0
DWIDTH 27 0
BBX 25 30 1 0
BITMAP
00700000
03F00000
01F80100
007C0700
003C1F00
00000F80
00000F80
00FF0F00
03FFFF00
0FFFFE00
1FFFFC00
3FFFFC00
7F81FC00
7F00FE00
FE007E00
FC007F00
FC003F00
FC003F00
FC003F00
FC003F00
FC003F00
FC007F00
FE007E00
7F00FE00
7F81FC00
3FFFFC00
1FFFF800
0FFFF000
03FFC000
00FE0000
ENDCHAR
STARTCHAR uni1EDD
ENCODING 7901
SWIDTH 679 0
DWIDTH 22 0
BBX 21 25 1 0
BITMAP
038000
0FC000
07C008
03E078
01F0F8
000078
000078
03F8F8
0FFFF8
3FFFF0
7FFFE0
7FFFC0
FE0FC0
FC0FC0
FC07E0
FC07E0
FC07E0
FC07E0
FC0FC0
FE0FC0
7FFFC0
7FFF80
3FFF00
0FFE00
03F800
ENDCHAR
STARTCHAR uni1EDE
ENCODING 7902
SWIDTH 833 0
DWIDTH 27 0
BBX 25 32 1 0
BITMAP
003C0000
00FE0000
007F0000
000F0000
000E0100
001E0700
003C1F00
00000F80
00000F80
00FF0F00
03FFFF00
0FFFFE00
1FFFFC00
3FFFFC00
7F81FC00
7F00FE00
FE007E00
FC007F00
FC003F00
FC003F00
FC003F00
FC003F00
FC003F00
FC007F00
FE007E00
7F00FE00
7F81FC00
3FFFFC00
1FFFF800
0FFFF000
03FFC000
00FE0000
ENDCHAR
STARTCHAR uni1EDF
ENCODING 7903
SWIDTH 679 0
DWIDTH 22 0
BBX 21 27 1 0
BITMAP
01F000
03F800
03F800
007800
007808
00F078
00E0F8
000078
000078
03F8F8
0FFFF8
3FFFF0
7FFFE0
7FFFC0
FE0FC0
FC0FC0
FC07E0
FC07E0
FC07E0
FC07E0
FC0FC0
FE0FC0
7FFFC0
7FFF80
3FFF00
0FFE00
03F800
ENDCHAR
STARTCHAR uni1EE0
ENCODING 7904
SWIDTH 833 0
DWIDTH 27 0
BBX 25 30 1 0
BITMAP
00E3C000
01FFC000
03FF8100
03FF8700
03C71F00
00000F80
00000F80
00FF0F00
03FFFF00
0FFFFE00
1FFFFC00
3FFFFC00
7F81FC00
7F00FE00
FE007E00
FC007F00
FC003F00
FC003F00
FC003F00
FC003F00
FC003F00
FC007F00
FE007E00
7F00FE00
7F81FC00
3FFFFC00
1FFFF800
0FFFF000
03FFC000
00FE0000
ENDCHAR
STARTCHAR uni1EE1
ENCODING 7905
SWIDTH 679 0
DWIDTH 22 0
BBX 21 25 1 0
BITMAP
078E00
0FFE00
0FFE08
0FFC78
0E3CF8
000078
000078
03F8F8
0FFFF8
3FFFF0
7FFFE0
7FFFC0
FE0FC0
FC0FC0
FC07E0
FC07E0
FC07E0
FC07E0
FC0FC0
FE0FC0
7FFFC0
7FFF80
3FFF00
0FFE00
03F800
ENDCHAR
STARTCHAR uni1EE2
ENCODING 7906
SWIDTH 832 0
DWIDTH 27 0
BBX 25 36 1 -8
BITMAP
00000100
00000700
00001F00
00000F80
00000F80
00FF0F00
03FFFF00
0FFFFE00
1FFFFC00
3FFFFC00
7F81FC00
7F00FE00
FE007E00
FC007F00
FC003F00
FC003F00
FC003F00
FC003F00
FC003F00
FC007F00
FE007E00
7F00FE00
7F81FC00
3FFFFC00
1FFFF800
0FFFF000
03FFC000
00FE0000
00000000
00000000
003C0000
007C0000
007E0000
007E0000
007C0000
003C0000
ENDCHAR
STARTCHAR uni1EE3
ENCODING 7907
SWIDTH 680 0
DWIDTH 22 0
BBX 21 31 1 -8
BITMAP
000008
000078
0000F8
000078
000078
03F8F8
0FFFF8
3FFFF0
7FFFE0
7FFFC0
FE0FC0
FC0FC0
FC07E0
FC07E0
FC07E0
FC07E0
FC0FC0
FE0FC0
7FFFC0
7FFF80
3FFF00
0FFE00
03F800
000000
000000
01E000
03F000
03F000
03F000
01F000
01E000
ENDCHAR
STARTCHAR uni1EE4
ENCODING 7908
SWIDTH 749 0
DWIDTH 24 0
BBX 20 31 2 -8
BITMAP
FC03F0
FC03F0
FC03F0
FC03F0
FC03F0
FC03F0
FC03F0
FC03F0
FC03F0
FC03F0
FC03F0
FC03F0
FC03F0
FC03F0
FC03F0
FC03F0
FC07F0
7E07E0
7FFFE0
3FFFC0
1FFF80
0FFF00
03FC00
000000
000000
00F000
01F800
01F800
01F800
01F800
00F000
ENDCHAR
STARTCHAR uni1EE5
ENCODING 7909
SWIDTH 664 0
DWIDTH 21 0
BBX 17 26 2 -8
BITMAP
F81F80
F81F80
F81F80
F81F80
F81F80
F81F80
F81F80
F81F80
F81F80
F81F80
F81F80
FC1F80
FC3F80
FFFF80
FFFF80
7FFF80
3FDF80
1F9F80
000000
000000
01C000
03E000
03F000
03F000
03E000
01C000
ENDCHAR
STARTCHAR uni1EE6
ENCODING 7910
SWIDTH 749 0
DWIDTH 24 0
BBX 20 32 2 0
BITMAP
00F000
03F800
01FC00
003C00
003800
007800
00F000
000000
000000
FC03F0
FC03F0
FC03F0
FC03F0
FC03F0
FC03F0
FC03F0
FC03F0
FC03F0
FC03F0
FC03F0
FC03F0
FC03F0
FC03F0
FC03F0
FC03F0
FC07F0
7E07E0
7FFFE0
3FFFC0
1FFF80
0FFF00
03FC00
ENDCHAR
STARTCHAR uni1EE7
ENCODING 7911
SWIDTH 664 0
DWIDTH 21 0
BBX 17 27 2 0
BITMAP
03E000
07F000
03F000
00F000
00F000
00F000
01E000
000000
000000
F81F80
F81F80
F81F80
F81F80
F81F80
F81F80
F81F80
F81F80
F81F80
F81F80
F81F80
FC1F80
FC3F80
FFFF80
FFFF80
7FFF80
3FDF80
1F9F80
ENDCHAR
STARTCHAR uni1EE8
ENCODING 7912
SWIDTH 797 0
DWIDTH 26 0
BBX 24 30 2 0
BITMAP
003800
003F00
007C03
00F81F
01F00F
00000F
00000F
FC03FF
FC03FE
FC03FC
FC03F0
FC03F0
FC03F0
FC03F0
FC03F0
FC03F0
FC03F0
FC03F0
FC03F0
FC03F0
FC03F0
FC03F0
FC03F0
FC07F0
7E07E0
7FFFE0
3FFFC0
1FFF80
0FFF00
03FC00
ENDCHAR
STARTCHAR uni1EE9
ENCODING 7913
SWIDTH 687 0
DWIDTH 22 0
BBX 21 25 2 0
BITMAP
007000
00FC00
00F810
01F0F8
03E0F8
000078
0000F8
F81FF0
F81FF0
F81FC0
F81F80
F81F80
F81F80
F81F80
F81F80
F81F80
F81F80
F81F80
FC1F80
FC3F80
FFFF80
FFFF80
7FFF80
3FDF80
1F9F80
ENDCHAR
STARTCHAR uni1EEA
ENCODING 7914
SWIDTH 797 0
DWIDTH 26 0
BBX 24 30 2 0
BITMAP
01C000
0FC000
03E003
01F01F
00F80F
00000F
00000F
FC03FF
FC03FE
FC03FC
FC03F0
FC03F0
FC03F0
FC03F0
FC03F0
FC03F0
FC03F0
FC03F0
FC03F0
FC03F0
FC03F0
FC03F0
FC03F0
FC07F0
7E07E0
7FFFE0
3FFFC0
1FFF80
0FFF00
03FC00
ENDCHAR
STARTCHAR uni1EEB
ENCODING 7915
SWIDTH 687 0
DWIDTH 22 0
BBX 21 25 2 0
BITMAP
030000
1F8000
0FC010
07C0F8
03E0F8
000078
0000F8
F81FF0
F81FF0
F81FC0
F81F80
F81F80
F81F80
F81F80
F81F80
F81F80
F81F80
F81F80
FC1F80
FC3F80
FFFF80
FFFF80
7FFF80
3FDF80
1F9F80
ENDCHAR
STARTCHAR uni1EEC
ENCODING 7916
SWIDTH 797 0
DWIDTH 26 0
BBX 24 32 2 0
BITMAP
00F000
03F800
01FC00
003C00
003803
00781F
00F00F
00000F
00000F
FC03FF
FC03FE
FC03FC
FC03F0
FC03F0
FC03F0
FC03F0
FC03F0
FC03F0
FC03F0
FC03F0
FC03F0
FC03F0
FC03F0
FC03F0
FC03F0
FC07F0
7E07E0
7FFFE0
3FFFC0
1FFF80
0FFF00
03FC00
ENDCHAR
STARTCHAR uni1EED
ENCODING 7917
SWIDTH 687 0
DWIDTH 22 0
BBX 21 27 2 0
BITMAP
03E000
07F000
03F000
00F000
00F010
00F0F8
01E0F8
000078
0000F8
F81FF0
F81FF0
F81FC0
F81F80
F81F80
F81F80
F81F80
F81F80
F81F80
F81F80
F81F80
FC1F80
FC3F80
FFFF80
FFFF80
7FFF80
3FDF80
1F9F80
ENDCHAR
STARTCHAR uni1EEE
ENCODING 7918
SWIDTH 797 0
DWIDTH 26 0
BBX 24 30 2 0
BITMAP
03C700
07FF00
07FF03
0FFE1F
0F1C0F
00000F
00000F
FC03FF
FC03FE
FC03FC
FC03F0
FC03F0
FC03F0
FC03F0
FC03F0
FC03F0
FC03F0
FC03F0
FC03F0
FC03F0
FC03F0
FC03F0
FC03F0
FC07F0
7E07E0
7FFFE0
3FFFC0
1FFF80
0FFF00
03FC00
ENDCHAR
STARTCHAR uni1EEF
ENCODING 7919
SWIDTH 687 0
DWIDTH 22 0
BBX 21 25 2 0
BITMAP
0F1E00
0FFC00
1FFC10
1FFCF8
1C78F8
000078
0000F8
F81FF0
F81FF0
F81FC0
F81F80
F81F80
F81F80
F81F80
F81F80
F81F80
F81F80
F81F80
FC1F80
FC3F80
FFFF80
FFFF80
7FFF80
3FDF80
1F9F80
ENDCHAR
STARTCHAR uni1EF0
ENCODING 7920
SWIDTH 796 0
DWIDTH 25 0
BBX 24 36 2 -8
BITMAP
000003
00001F
00000F
00000F
00000F
FC03FF
FC03FE
FC03FC
FC03F0
FC03F0
FC03F0
FC03F0
FC03F0
FC03F0
FC03F0
FC03F0
FC03F0
FC03F0
FC03F0
FC03F0
FC03F0
FC07F0
7E07E0
7FFFE0
3FFFC0
1FFF80
0FFF00
03FC00
000000
000000
00F000
01F800
01F800
01F800
01F800
00F000
ENDCHAR
STARTCHAR uni1EF1
ENCODING 7921
SWIDTH 687 0
DWIDTH 22 0
BBX 21 31 2 -8
BITMAP
000010
0000F8
0000F8
000078
0000F8
F81FF0
F81FF0
F81FC0
F81F80
F81F80
F81F80
F81F80
F81F80
F81F80
F81F80
F81F80
FC1F80
FC3F80
FFFF80
FFFF80
7FFF80
3FDF80
1F9F80
000000
000000
01C000
03E000
03F000
03F000
03E000
01C000
ENDCHAR
STARTCHAR Ygrave
ENCODING 7922
SWIDTH 684 0
DWIDTH 22 0
BBX 22 30 0 0
BITMAP
00E000
07E000
01F000
00F800
007C00
000000
000000
FC00FC
7E01F8
7E01F8
3F03F0
3F03F0
1F87E0
1F87E0
0FCFC0
0FCFC0
07FF80
07FF80
03FF00
03FF00
01FE00
01FE00
00FC00
00FC00
00FC00
00FC00
00FC00
00FC00
00FC00
00FC00
ENDCHAR
STARTCHAR ygrave
ENCODING 7923
SWIDTH 584 0
DWIDTH 19 0
BBX 19 31 0 -6
BITMAP
038000
0FC000
07C000
03E000
01F000
000000
000000
FC07E0
FC07C0
7C0FC0
7E0FC0
7E0F80
3E0F80
3F1F00
1F1F00
1F9F00
0FBE00
0FBE00
0FFE00
07FC00
07FC00
03F800
03F800
03F800
01F000
23F000
7FE000
7FE000
FFC000
FF8000
3F0000
ENDCHAR
STARTCHAR uni1EF4
ENCODING 7924
SWIDTH 684 0
DWIDTH 22 0
BBX 22 31 0 -8
BITMAP
FC00FC
7E01F8
7E01F8
3F03F0
3F03F0
1F87E0
1F87E0
0FCFC0
0FCFC0
07FF80
07FF80
03FF00
03FF00
01FE00
01FE00
00FC00
00FC00
00FC00
00FC00
00FC00
00FC00
00FC00
00FC00
000000
000000
007800
00FC00
00FC00
00FC00
00FC00
007800
ENDCHAR
STARTCHAR uni1EF5
ENCODING 7925
SWIDTH 584 0
DWIDTH 19 0
BBX 19 26 0 -8
BITMAP
FC07E0
FC07C0
7C0FC0
7E0FC0
7E0F80
3E0F80
3F1F00
1F1F00
1F9F00
0FBE00
0FBE00
0FFE00
07FC00
07FC00
03F800
03F800
03F800
01F000
23F000
7FE000
7FE380
FFC7C0
FF8FC0
3F0FC0
0007C0
000380
ENDCHAR
STARTCHAR uni1EF6
ENCODING 7926
SWIDTH 684 0
DWIDTH 22 0
BBX 22 32 0 0
BITMAP
007800
01FC00
00FE00
001E00
001C00
003C00
007800
000000
000000
FC00FC
7E01F8
7E01F8
3F03F0
3F03F0
1F87E0
1F87E0
0FCFC0
0FCFC0
07FF80
07FF80
03FF00
03FF00
01FE00
01FE00
00FC00
00FC00
00FC00
00FC00
00FC00
00FC00
00FC00
00FC00
ENDCHAR
STARTCHAR uni1EF7
ENCODING 7927
SWIDTH 584 0
DWIDTH 19 0
BBX 19 33 0 -6
BITMAP
01F000
03F800
01F800
007800
007800
007000
00E000
000000
000000
FC07E0
FC07C0
7C0FC0
7E0FC0
7E0F80
3E0F80
3F1F00
1F1F00
1F9F00
0FBE00
0FBE00
0FFE00
07FC00
07FC00
03F800
03F800
03F800
01F000
23F000
7FE000
7FE000
FFC000
FF8000
3F0000
ENDCHAR
STARTCHAR uni1EF8
ENCODING 7928
SWIDTH 684 0
DWIDTH 22 0
BBX 22 30 0 0
BITMAP
01E380
03FF80
03FF80
07FF00
078E00
000000
000000
FC00FC
7E01F8
7E01F8
3F03F0
3F03F0
1F87E0
1F87E0
0FCFC0
0FCFC0
07FF80
07FF80
03FF00
03FF00
01FE00
01FE00
00FC00
00FC00
00FC00
00FC00
00FC00
00FC00
00FC00
00FC00
ENDCHAR
STARTCHAR uni1EF9
ENCODING 7929
SWIDTH 584 0
DWIDTH 19 0
BBX 19 31 0 -6
BITMAP
078E00
0FFE00
0FFE00
0FFE00
0E3C00
000000
000000
FC07E0
FC07C0
7C0FC0
7E0FC0
7E0F80
3E0F80
3F1F00
1F1F00
1F9F00
0FBE00
0FBE00
0FFE00
07FC00
07FC00
03F800
03F800
03F800
01F000
23F000
7FE000
7FE000
FFC000
FF8000
3F0000
ENDCHAR
STARTCHAR uni2007
ENCODING 8199
SWIDTH 700 0
DWIDTH 22 0
BBX 1 1 0 0
BITMAP
00
ENDCHAR
STARTCHAR uni2008
ENCODING 8200
SWIDTH 245 0
DWIDTH 8 0
BBX 1 1 0 0
BITMAP
00
ENDCHAR
STARTCHAR uni2009
ENCODING 8201
SWIDTH 200 0
DWIDTH 6 0
BBX 1 1 0 0
BITMAP
00
ENDCHAR
STARTCHAR uni200A
ENCODING 8202
SWIDTH 100 0
DWIDTH 3 0
BBX 1 1 0 0
BITMAP
00
ENDCHAR
STARTCHAR uni200B
ENCODING 8203
SWIDTH 0 0
DWIDTH 0 0
BBX 1 1 0 0
BITMAP
00
ENDCHAR
STARTCHAR uni2010
ENCODING 8208
SWIDTH 375 0
DWIDTH 12 0
BBX 8 4 2 8
BITMAP
FF
FF
FF
FF
ENDCHAR
STARTCHAR figuredash
ENCODING 8210
SWIDTH 617 0
DWIDTH 20 0
BBX 20 4 0 8
BITMAP
FFFFF0
FFFFF0
FFFFF0
FFFFF0
ENDCHAR
STARTCHAR endash
ENCODING 8211
SWIDTH 408 0
DWIDTH 13 0
BBX 13 4 0 8
BITMAP
FFF8
FFF8
FFF8
FFF8
ENDCHAR
STARTCHAR emdash
ENCODING 8212
SWIDTH 645 0
DWIDTH 21 0
BBX 21 4 0 8
BITMAP
FFFFF8
FFFFF8
FFFFF8
FFFFF8
ENDCHAR
STARTCHAR uni2015
ENCODING 8213
SWIDTH 645 0
DWIDTH 21 0
BBX 21 4 0 8
BITMAP
FFFFF8
FFFFF8
FFFFF8
FFFFF8
ENDCHAR
STARTCHAR quoteleft
ENCODING 8216
SWIDTH 243 0
DWIDTH 8 0
BBX 6 9 1 15
BITMAP
1C
38
78
70
F0
F8
F8
F8
70
ENDCHAR
STARTCHAR quoteright
ENCODING 8217
SWIDTH 243 0
DWIDTH 8 0
BBX 6 9 1 15
BITMAP
78
F8
FC
FC
78
78
70
E0
E0
ENDCHAR
STARTCHAR quotesinglbase
ENCODING 8218
SWIDTH 243 0
DWIDTH 8 0
BBX 6 9 1 -4
BITMAP
78
F8
FC
FC
78
78
70
E0
E0
ENDCHAR
STARTCHAR quotedblleft
ENCODING 8220
SWIDTH 432 0
DWIDTH 14 0
BBX 12 9 1 15
BITMAP
1C70
38E0
79E0
71C0
F3C0
FBE0
FBE0
FBE0
71C0
ENDCHAR
STARTCHAR quotedblright
ENCODING 8221
SWIDTH 432 0
DWIDTH 14 0
BBX 12 9 1 15
BITMAP
79E0
FBE0
FFF0
FFF0
79E0
79E0
71C0
E380
E380
ENDCHAR
STARTCHAR quotedblbase
ENCODING 8222
SWIDTH 432 0
DWIDTH 14 0
BBX 12 9 1 -4
BITMAP
79E0
FBE0
FFF0
FFF0
79E0
79E0
71C0
E380
E380
ENDCHAR
STARTCHAR dagger
ENCODING 8224
SWIDTH 577 0
DWIDTH 18 0
BBX 17 29 1 -6
BITMAP
07E000
07E000
07E000
07E000
07E000
07E000
FFFF80
FFFF80
FFFF80
FFFF80
FFFF80
07E000
07E000
07E000
07E000
07E000
07E000
07E000
07E000
07E000
07E000
07E000
07E000
07E000
07E000
07E000
07E000
07E000
07E000
ENDCHAR
STARTCHAR daggerdbl
ENCODING 8225
SWIDTH 577 0
DWIDTH 18 0
BBX 17 29 1 -6
BITMAP
07E000
07E000
07E000
07E000
07E000
07E000
FFFF80
FFFF80
FFFF80
FFFF80
FFFF80
07E000
07E000
07E000
07E000
07E000
07E000
FFFF80
FFFF80
FFFF80
FFFF80
FFFF80
07E000
07E000
07E000
07E000
07E000
07E000
07E000
ENDCHAR
STARTCHAR bullet
ENCODING 8226
SWIDTH 331 0
DWIDTH 11 0
BBX 8 9 1 5
BITMAP
3C
7E
7F
FF
FF
FF
7F
7E
3C
ENDCHAR
STARTCHAR ellipsis
ENCODING 8230
SWIDTH 686 0
DWIDTH 22 0
BBX 20 6 1 0
BITMAP
70F1E0
F8F1E0
FDFBF0
FDFBF0
F8F1E0
70F1E0
ENDCHAR
STARTCHAR perthousand
ENCODING 8240
SWIDTH 1431 0
DWIDTH 46 0
BBX 44 23 1 0
BITMAP
1F800F800000
3FC00F000000
7FE01E000000
F9F03C000000
F0F03C000000
F0F078000000
E070F0000000
E070F0000000
E0F1E0000000
F0F3C7C01F00
F9F3CFF03FC0
7FE79FF87FE0
3FCF3C78F1E0
1F9E3C3CF0F0
001E383CE0F0
003C383CE0F0
0078383CE0F0
0078383CE0F0
00F03C3CF0F0
01E03C78F1E0
01E01FF87FE0
03C00FF03FC0
078007E01F00
ENDCHAR
STARTCHAR minute
ENCODING 8242
SWIDTH 234 0
DWIDTH 7 0
BBX 5 8 1 15
BITMAP
78
78
78
70
70
F0
F0
F0
ENDCHAR
STARTCHAR second
ENCODING 8243
SWIDTH 416 0
DWIDTH 13 0
BBX 11 8 1 15
BITMAP
79E0
79E0
7BC0
73C0
73C0
F3C0
F3C0
F3C0
ENDCHAR
STARTCHAR guilsinglleft
ENCODING 8249
SWIDTH 281 0
DWIDTH 9 0
BBX 8 12 0 3
BITMAP
0F
1F
3E
3E
7C
F8
F8
7C
3C
3E
1F
0F
ENDCHAR
STARTCHAR guilsinglright
ENCODING 8250
SWIDTH 281 0
DWIDTH 9 0
BBX 8 12 1 3
BITMAP
F0
F8
7C
7C
3E
1F
1F
3E
3C
7C
F8
F0
ENDCHAR
STARTCHAR fraction
ENCODING 8260
SWIDTH 120 0
DWIDTH 4 0
BBX 20 23 -8 0
BITMAP
0000F0
0001E0
0003C0
000780
000780
000F00
001E00
001E00
003C00
007800
007800
00F000
01E000
03C000
03C000
078000
0F0000
0F0000
1E0000
3C0000
3C0000
780000
F00000
ENDCHAR
STARTCHAR uni2070
ENCODING 8304
SWIDTH 437 0
DWIDTH 14 0
BBX 12 14 1 11
BITMAP
1F80
3FC0
7FE0
F9F0
F0F0
F0F0
E070
E070
E0F0
F0F0
F9F0
7FE0
3FC0
1F80
ENDCHAR
STARTCHAR uni2074
ENCODING 8308
SWIDTH 388 0
DWIDTH 12 0
BBX 12 14 0 12
BITMAP
0F00
0F00
1E00
1E00
3C00
3DE0
79E0
79E0
FFF0
FFF0
FFF0
01E0
01E0
01E0
ENDCHAR
STARTCHAR uni2075
ENCODING 8309
SWIDTH 398 0
DWIDTH 13 0
BBX 11 14 1 12
BITMAP
7FC0
7FC0
7FC0
7800
7800
7F00
7FC0
7FE0
03E0
01E0
43E0
FFC0
FF80
3F00
ENDCHAR
STARTCHAR uni2076
ENCODING 8310
SWIDTH 407 0
DWIDTH 13 0
BBX 11 14 1 12
BITMAP
0F80
3FE0
7FC0
F840
F000
FF80
FFC0
FFE0
F1E0
F1E0
F1E0
7FE0
3FC0
1F00
ENDCHAR
STARTCHAR uni2077
ENCODING 8311
SWIDTH 352 0
DWIDTH 11 0
BBX 11 14 0 12
BITMAP
FFE0
FFE0
FFE0
F1E0
F3E0
03C0
07C0
0780
0780
0F00
0F00
1E00
1E00
3E00
ENDCHAR
STARTCHAR uni2078
ENCODING 8312
SWIDTH 411 0
DWIDTH 13 0
BBX 11 14 1 12
BITMAP
1F00
7FC0
7FC0
F1E0
71E0
7FC0
3F80
7FE0
F1E0
F0E0
F1E0
FFE0
7FC0
3F80
ENDCHAR
STARTCHAR uni2079
ENCODING 8313
SWIDTH 407 0
DWIDTH 13 0
BBX 11 14 1 12
BITMAP
3F00
7F80
FFC0
F1E0
F1E0
F1E0
FFE0
7FE0
3FE0
01E0
43E0
7FC0
FF80
7E00
ENDCHAR
STARTCHAR uni2080
ENCODING 8320
SWIDTH 437 0
DWIDTH 14 0
BBX 12 14 1 -3
BITMAP
1F80
3FC0
7FE0
F9F0
F0F0
F0F0
E070
E070
E0F0
F0F0
F9F0
7FE0
3FC0
1F80
ENDCHAR
STARTCHAR uni2081
ENCODING 8321
SWIDTH 261 0
DWIDTH 8 0
BBX 7 14 0 -3
BITMAP
FE
FE
FE
1E
1E
1E
1E
1E
1E
1E
1E
1E
1E
1E
ENDCHAR
STARTCHAR uni2082
ENCODING 8322
SWIDTH 380 0
DWIDTH 12 0
BBX 11 14 0 -3
BITMAP
1F80
7FC0
FFE0
71E0
41E0
03E0
07C0
0F80
1F00
1E00
3C00
7FE0
7FE0
7FE0
ENDCHAR
STARTCHAR uni2083
ENCODING 8323
SWIDTH 370 0
DWIDTH 12 0
BBX 11 14 0 -3
BITMAP
7FE0
7FE0
7FC0
0780
0F00
1E00
1FC0
1FE0
01E0
41E0
61E0
7FE0
FFC0
1F00
ENDCHAR
STARTCHAR uni2084
ENCODING 8324
SWIDTH 388 0
DWIDTH 12 0
BBX 12 14 0 -3
BITMAP
0F00
0F00
1E00
1E00
3C00
3DE0
79E0
79E0
FFF0
FFF0
FFF0
01E0
01E0
01E0
ENDCHAR
STARTCHAR uni2085
ENCODING 8325
SWIDTH 398 0
DWIDTH 13 0
BBX 11 14 1 -3
BITMAP
7FC0
7FC0
7FC0
7800
7800
7F00
7FC0
7FE0
03E0
01E0
43E0
FFC0
FF80
3F00
ENDCHAR
STARTCHAR uni2086
ENCODING 8326
SWIDTH 407 0
DWIDTH 13 0
BBX 11 14 1 -3
BITMAP
0F80
3FE0
7FC0
F840
F000
FF80
FFC0
FFE0
F1E0
F1E0
F1E0
7FE0
3FC0
1F00
ENDCHAR
STARTCHAR uni2087
ENCODING 8327
SWIDTH 352 0
DWIDTH 11 0
BBX 11 14 0 -3
BITMAP
FFE0
FFE0
FFE0
F1E0
F3E0
03C0
07C0
0780
0780
0F00
0F00
1E00
1E00
3E00
ENDCHAR
STARTCHAR uni2088
ENCODING 8328
SWIDTH 411 0
DWIDTH 13 0
BBX 11 14 1 -3
BITMAP
1F00
7FC0
7FC0
F1E0
71E0
7FC0
3F80
7FE0
F1E0
F0E0
F1E0
FFE0
7FC0
3F80
ENDCHAR
STARTCHAR uni2089
ENCODING 8329
SWIDTH 407 0
DWIDTH 13 0
BBX 11 14 1 -3
BITMAP
3F00
7F80
FFC0
F1E0
F1E0
F1E0
FFE0
7FE0
3FE0
01E0
43E0
7FC0
FF80
7E00
ENDCHAR
STARTCHAR colonmonetary
ENCODING 8353
SWIDTH 692 0
DWIDTH 22 0
BBX 21 33 1 -4
BITMAP
00F380
00F380
00E780
01E780
01E780
01E780
03FF00
0FFFC0
1FFFE0
3FFFF8
3FFFF0
7F81E0
7F00E0
FE0040
FC0000
FC0000
FC0000
FC0000
FC0000
FC0000
FC0000
FE0040
7F00C0
7F83E0
3FFFF0
1FFFF8
0FFFE0
07FFC0
03FF00
03CE00
039E00
079E00
079E00
ENDCHAR
STARTCHAR franc
ENCODING 8355
SWIDTH 632 0
DWIDTH 20 0
BBX 19 23 1 0
BITMAP
3FFFE0
3FFFE0
3FFFE0
3FFFE0
3FFFE0
3F0000
3F0000
3F0000
3F0000
3F0000
3FFFC0
3FFFC0
3FFFC0
3FFFC0
3FFFC0
3F0000
3F0000
3F0000
FFFE00
FFFE00
3F0000
3F0000
3F0000
ENDCHAR
STARTCHAR lira
ENCODING 8356
SWIDTH 564 0
DWIDTH 18 0
BBX 17 23 1 0
BITMAP
01F800
07FE00
0FFF80
1FFF00
1FFF00
3F8600
3F0200
3F0000
3F0000
FFFC00
FFFC00
3F0000
3F0000
FFFC00
FFFC00
3F0000
3F0000
3F0000
FFFF00
FFFF00
FFFF00
FFFF00
FFFF00
ENDCHAR
STARTCHAR uni20A6
ENCODING 8358
SWIDTH 794 0
DWIDTH 25 0
BBX 24 23 1 0
BITMAP
3E00F8
3F00F8
3F80F8
3F80F8
3FC0F8
3FE0F8
3FF0F8
3FF0F8
3FF8F8
FFFCFF
FEFCFF
3E7EF8
FE7FFF
FE3FFF
3E1FF8
3E1FF8
3E0FF8
3E07F8
3E07F8
3E03F8
3E01F8
3E01F8
3E00F8
ENDCHAR
STARTCHAR peseta
ENCODING 8359
SWIDTH 1555 0
DWIDTH 50 0
BBX 47 23 2 0
BITMAP
FFF000000000
FFFC03E00000
FFFF03E00000
FFFF03E00000
FFFF83E00000
F81F83E007F0
F80F9FFE1FFC
F807DFFE3FFE
F807DFFE3FFC
F80FDFFE3E1C
F80F83E03C00
F81F83E03E00
FFFF83E03FC0
FFFF03E01FF0
FFFE03E00FFC
FFFC03E001FC
FFE003E0007E
F80003E0003E
F80003FE383E
F80003FE7FFE
F80003FE7FFC
F80001FF3FF8
F800007C0FE0
ENDCHAR
STARTCHAR uni20A9
ENCODING 8361
SWIDTH 1056 0
DWIDTH 34 0
BBX 32 23 1 0
BITMAP
FC07E03F
FC07E03F
FC07F03F
7E0FF03E
7E0FF03E
7E0FF07E
7E0FF87E
3F0FF87C
3F1FF87C
FF1FF8FF
FF1E7CFF
1F1E7CF8
FFBE7CFF
FFBE7DFF
0FBC3DF0
0FBC3FF0
07FC3FF0
07FC3FE0
07F81FE0
07F81FE0
03F81FC0
03F81FC0
03F80FC0
ENDCHAR
STARTCHAR dong
ENCODING 8363
SWIDTH 688 0
DWIDTH 22 0
BBX 21 28 1 -4
BITMAP
0007E0
0007E0
007FF8
007FF8
0007E0
0007E0
07C7E0
1FF7E0
3FFFE0
7FFFE0
7FFFE0
FE0FE0
FC0FE0
FC07E0
FC07E0
FC07E0
FC07E0
FC0FE0
FE0FE0
7FFFE0
7FFFE0
3FFFE0
1FF7E0
07C7E0
000000
000000
3FFF80
3FFF80
ENDCHAR
STARTCHAR Euro
ENCODING 8364
SWIDTH 775 0
DWIDTH 25 0
BBX 23 23 1 0
BITMAP
001FC0
00FFF8
03FFFC
07FFFE
0FFFFE
0FE03C
1FC018
1F8000
FFFF00
FFFF00
3F0000
3F0000
FFFF00
FFFF00
1F8000
1FC008
0FE038
0FF07C
07FFFE
03FFFE
01FFFC
00FFF0
001F80
ENDCHAR
STARTCHAR uni20AD
ENCODING 8365
SWIDTH 732 0
DWIDTH 23 0
BBX 23 23 0 0
BITMAP
3F00FE
3F01F8
3F03F8
3F07F0
3F0FE0
3F1FC0
3F1F80
3F3F00
3F7F00
3FFE00
FFFFF8
FFFFF8
3FFE00
3F7F00
3F3F00
3F3F80
3F1FC0
3F0FE0
3F07F0
3F07F0
3F03F8
3F01FC
3F00FE
ENDCHAR
STARTCHAR uni20B1
ENCODING 8369
SWIDTH 781 0
DWIDTH 25 0
BBX 23 23 1 0
BITMAP
3FFF00
3FFFC0
3FFFE0
3FFFF0
3FFFF0
FF03FE
FF01FE
3F01F8
3F01F8
FF01FE
FF01FE
3F03F0
3FFFF0
3FFFE0
3FFFC0
3FFF80
3FF800
3F0000
3F0000
3F0000
3F0000
3F0000
3F0000
ENDCHAR
STARTCHAR uni20B2
ENCODING 8370
SWIDTH 732 0
DWIDTH 23 0
BBX 21 33 1 -5
BITMAP
003C00
003C00
003C00
003C00
003C00
00FF80
07FFE0
0FFFF0
1FFFF8
3FFFF0
7FC1F0
7F0060
FE0020
FC0000
FC0000
FC0000
FC00F8
FC00F8
FC00F8
FC00F8
FE00F8
7F00F8
7FC1F8
3FFFF8
1FFFF8
0FFFF8
07FFE0
01FF00
003C00
003C00
003C00
003C00
003C00
ENDCHAR
STARTCHAR uni20B5
ENCODING 8373
SWIDTH 692 0
DWIDTH 22 0
BBX 21 33 1 -5
BITMAP
007C00
007C00
007C00
007C00
007C00
01FF00
07FFC0
0FFFE0
1FFFF8
3FFFF0
7F83E0
7F00E0
FE0040
FC0000
FC0000
FC0000
FC0000
FC0000
FC0000
FC0000
FE0040
7F00C0
7F83E0
3FFFF0
1FFFF8
0FFFE0
07FFC0
01FF00
007C00
007C00
007C00
007C00
007C00
ENDCHAR
STARTCHAR uni20B9
ENCODING 8377
SWIDTH 619 0
DWIDTH 20 0
BBX 18 23 1 0
BITMAP
FFFFC0
FFFFC0
FFFFC0
FFFFC0
01FC00
007E00
003E00
FFFFC0
FFFFC0
003F00
003E00
007E00
FFFE00
FFFC00
FFF800
FFF800
FFF800
01FC00
00FE00
007E00
003F00
003F80
001FC0
ENDCHAR
STARTCHAR uni20BA
ENCODING 8378
SWIDTH 728 0
DWIDTH 23 0
BBX 22 23 1 0
BITMAP
3F0000
3F0100
3F0700
3F7F00
3FFC00
3FE000
FF0100
FF0F00
BFFF00
3FF800
3FC000
FF00FC
FF01F8
BF01F8
3F01F8
3F01F8
3F03F0
3F07F0
3FFFE0
3FFFC0
3FFF80
3FFF00
3FF800
ENDCHAR
STARTCHAR uni20BC
ENCODING 8380
SWIDTH 775 0
DWIDTH 25 0
BBX 23 23 1 0
BITMAP
007C00
007C00
007C00
007C00
03FF80
0FFFE0
1FFFF0
3FFFF8
7FFFF8
7F7DFC
7E7CFC
FC7C7E
FC7C7E
FC7C7E
FC7C7E
FC7C7E
FC7C7E
FC7C7E
FC7C7E
FC7C7E
FC7C7E
FC7C7E
FC7C7E
ENDCHAR
STARTCHAR uni20BD
ENCODING 8381
SWIDTH 706 0
DWIDTH 23 0
BBX 21 23 1 0
BITMAP
3FFF00
3FFFC0
3FFFE0
3FFFF0
3FFFF0
3F03F8
3F01F8
3F01F8
3F01F8
3F01F8
3F03F8
3FFFF0
3FFFF0
3FFFE0
3FFFC0
3FFF00
3F0000
3F0000
FFFE00
FFFE00
3F0000
3F0000
3F0000
ENDCHAR
STARTCHAR uni2113
ENCODING 8467
SWIDTH 473 0
DWIDTH 15 0
BBX 14 23 0 0
BITMAP
00F8
03FC
03FC
079C
079C
0F1C
0F1C
0F3C
0F38
0F78
0FF0
1FE0
1FC0
1F80
1F00
3E00
7E00
FE08
5E3C
1FF8
1FF8
1FF0
0FC0
ENDCHAR
STARTCHAR uni2116
ENCODING 8470
SWIDTH 1233 0
DWIDTH 39 0
BBX 35 24 2 0
BITMAP
0000001F00
FC01F87FC0
FC00F8FFE0
FE00F8F1E0
FF00F9E1E0
FF80F9E1E0
FF80F9E1E0
FFC0F8F1E0
FFE0F8FFE0
FFF0F87FC0
FFF0F81F00
FFF8F80000
FDFCF80000
FCFCF80000
FC7EF87FC0
FC7FF87FC0
FC3FF87FC0
FC1FF87FC0
FC0FF80000
FC0FF80000
FC07F80000
FC03F80000
FC01F80000
FC01F80000
ENDCHAR
STARTCHAR trademark
ENCODING 8482
SWIDTH 906 0
DWIDTH 29 0
BBX 28 14 0 9
BITMAP
FFEF81F0
FFEF83F0
FFEFC3F0
1E0FC3F0
1E0FE7F0
1E0FE7F0
1E0FFFF0
1E0F7EF0
1E0F7EF0
1E0F7EF0
1E0F3CF0
1E0F3CF0
1E0F00F0
1E0F00F0
ENDCHAR
STARTCHAR uni2126
ENCODING 8486
SWIDTH 854 0
DWIDTH 27 0
BBX 27 23 0 0
BITMAP
007FC000
01FFF000
03FFFC00
07FFFE00
0FFFFE00
1FC07F00
1F803F80
3F001F80
3F000F80
3E000F80
3E000F80
3E000F80
3F000F80
1F001F80
1F001F00
0F803F00
0FC07E00
07E0FC00
FFF0FFE0
FFF0FFE0
FFF0FFE0
FFF0FFE0
FFF0FFE0
ENDCHAR
STARTCHAR estimated
ENCODING 8494
SWIDTH 809 0
DWIDTH 26 0
BBX 22 19 2 1
BITMAP
03FF00
040080
180060
300030
300030
700038
700038
F00038
F0003C
FFFFFC
F00000
F00000
700000
700000
300000
300000
180060
040080
03FF00
ENDCHAR
STARTCHAR uni2153
ENCODING 8531
SWIDTH 928 0
DWIDTH 30 0
BBX 28 23 0 0
BITMAP
FE003C00
FE007800
FE007800
1E00F000
1E01E000
1E01E000
1E03C000
1E078000
1E0F0000
1E0F3FE0
1E1E3FE0
1E3C3FE0
1E3C03C0
00780780
00F00F00
00F00FC0
01E00FE0
03C000F0
03C020F0
078030F0
0F007FE0
1E007FE0
3E001F80
ENDCHAR
STARTCHAR uni2154
ENCODING 8532
SWIDTH 1028 0
DWIDTH 33 0
BBX 32 23 0 0
BITMAP
1F8003E0
7FC00380
FFE00780
71E00F00
41E01E00
03E01E00
07C03C00
0F807800
1F007800
1E00F3FE
3C01E3FE
7FE1E3FE
7FE3C03C
7FE78078
000F00F0
000F00FE
001E00FF
003C000F
003C020F
0078030F
00F003FF
00F007FE
01E000F8
ENDCHAR
STARTCHAR oneeighth
ENCODING 8539
SWIDTH 880 0
DWIDTH 28 0
BBX 27 23 0 0
BITMAP
FE003C00
FE007800
FE007800
1E00F000
1E01E000
1E01E000
1E03C000
1E078000
1E0F0000
1E0F1F00
1E1E7FC0
1E3C7FC0
1E3CF1E0
007871E0
00F07FC0
00F03F80
01E07FE0
03C0F1E0
03C0F0E0
0780F1E0
0F00FFE0
1E007FC0
3E003F80
ENDCHAR
STARTCHAR threeeighths
ENCODING 8540
SWIDTH 958 0
DWIDTH 31 0
BBX 30 23 0 0
BITMAP
7FE00780
7FE00F00
7FC01E00
07803C00
0F003C00
1E007800
1FC0F000
1FE0F000
01E1E000
41E3C7E0
61E3CFF0
7FE79FF8
FFCF1C38
1F0F1C38
001E0FF8
003C07F0
00781FF8
00783C3C
00F03C3C
01E03C3C
01E01FFC
03C01FF8
078007E0
ENDCHAR
STARTCHAR fiveeighths
ENCODING 8541
SWIDTH 979 0
DWIDTH 31 0
BBX 30 23 1 0
BITMAP
7FC00F80
7FC00E00
7FC01E00
78003C00
78007800
7F007800
7FC0F000
7FE1E000
03E1E000
01E3C7E0
63E79FF0
FFC79FF8
FF8F1C78
3F1E1C78
003C1FF0
003C0FE0
00781FF8
00F03C78
00F03C3C
01E03C7C
03C03FF8
03C01FF8
078007E0
ENDCHAR
STARTCHAR seveneighths
ENCODING 8542
SWIDTH 903 0
DWIDTH 29 0
BBX 28 23 0 0
BITMAP
FFE01E00
FFE03C00
FFE07800
F1E07800
F3C0F000
03C1E000
0781E000
0783C000
0F878000
0F079F80
1F0F3FE0
1E1E7FE0
3E3C78E0
003C78E0
00783FE0
00F01FC0
00F07FE0
01E078F0
03C0F0F0
03C0F8F0
07807FF0
0F003FE0
1F001F80
ENDCHAR
STARTCHAR arrowleft
ENCODING 8592
SWIDTH 600 0
DWIDTH 19 0
BBX 16 15 2 2
BITMAP
07C0
0F80
0F80
1F00
3F00
3E00
7FFF
FFFF
7FFF
7FFF
3E00
1F00
1F00
0F80
07C0
ENDCHAR
STARTCHAR arrowup
ENCODING 8593
SWIDTH 600 0
DWIDTH 19 0
BBX 15 16 2 1
BITMAP
0180
07C0
0FF0
3FF8
7FFC
FFFE
FFFE
E7CE
C7C2
07C0
07C0
07C0
07C0
07C0
07C0
07C0
ENDCHAR
STARTCHAR arrowright
ENCODING 8594
SWIDTH 600 0
DWIDTH 19 0
BBX 15 16 2 1
BITMAP
07C0
03E0
03E0
01F0
00F8
00F8
FFFC
FFFE
FFFC
FFFC
00F8
01F8
01F0
03E0
03E0
07C0
ENDCHAR
STARTCHAR arrowdown
ENCODING 8595
SWIDTH 600 0
DWIDTH 19 0
BBX 14 16 3 1
BITMAP
0780
0780
0780
0780
0780
0780
8784
8784
E79C
FFFC
FFFC
7FFC
3FF0
1FE0
0780
0300
ENDCHAR
STARTCHAR arrowboth
ENCODING 8596
SWIDTH 851 0
DWIDTH 27 0
BBX 24 15 2 2
BITMAP
0F83E0
0F81F0
1F01F0
3E00F8
3E00FC
7C007C
FFFFFE
FFFFFF
FFFFFE
7FFFFE
7C007C
3E00F8
1F00F8
1F01F0
0F83E0
ENDCHAR
STARTCHAR arrowupdn
ENCODING 8597
SWIDTH 600 0
DWIDTH 19 0
BBX 15 22 2 1
BITMAP
0100
07C0
0FE0
1FF8
7FFC
FFFE
FFFE
F7CE
C7C6
87C2
07C0
07C0
07C0
87C2
E7CE
FFDE
FFFE
FFFE
3FF8
1FF0
07C0
0380
ENDCHAR
STARTCHAR uni2196
ENCODING 8598
SWIDTH 600 0
DWIDTH 19 0
BBX 14 15 3 2
BITMAP
0040
0FE0
7FF0
7FF8
7F80
7F00
7F80
FFC0
F7E0
F3F0
F1F8
E0FC
6078
2070
0020
ENDCHAR
STARTCHAR uni2197
ENCODING 8599
SWIDTH 600 0
DWIDTH 19 0
BBX 14 15 3 2
BITMAP
1000
1F80
3FF0
FFF0
0FF8
03F8
07F8
0FF8
1FF8
3F3C
7E3C
FC3C
F838
7010
2000
ENDCHAR
STARTCHAR uni2198
ENCODING 8600
SWIDTH 600 0
DWIDTH 19 0
BBX 14 14 3 2
BITMAP
3020
7810
FC38
FE3C
7F3C
3FBC
1FF8
0FF8
07F8
03F8
1FF8
FFF0
3FF0
1E00
ENDCHAR
STARTCHAR uni2199
ENCODING 8601
SWIDTH 600 0
DWIDTH 19 0
BBX 14 15 3 2
BITMAP
0020
2030
6078
E0FC
F1F8
F3F0
F7E0
FFC0
FF80
7F00
7F00
7FF0
7FF8
1FF0
00E0
ENDCHAR
STARTCHAR partialdiff
ENCODING 8706
SWIDTH 627 0
DWIDTH 20 0
BBX 18 23 1 0
BITMAP
1FF000
7FFC00
FFFE00
7FFF00
3EFF00
301F80
000F80
000F80
0FCFC0
3FFFC0
7FFFC0
7FFFC0
FE3FC0
FC1FC0
F80FC0
F80FC0
F80F80
FC1F80
FFFF00
7FFF00
3FFE00
1FFC00
0FF000
ENDCHAR
STARTCHAR emptyset
ENCODING 8709
SWIDTH 542 0
DWIDTH 17 0
BBX 17 17 0 2
BITMAP
008100
07FB80
0FFF00
1FFE00
3F3E00
3C3F00
787F00
78E700
79C700
7B8F00
3F0F00
3E1F00
3FFE00
3FFC00
7FF800
E3F000
400000
ENDCHAR
STARTCHAR uni2206
ENCODING 8710
SWIDTH 719 0
DWIDTH 23 0
BBX 23 23 0 0
BITMAP
00FE00
00FE00
01FF00
01FF00
01FF80
03FF80
03EF80
07EFC0
07CFC0
0FC7E0
0FC7E0
1F83F0
1F83F0
1F01F0
3F01F8
3E01F8
7E00FC
7E00FC
FFFFFE
FFFFFE
FFFFFE
FFFFFE
FFFFFE
ENDCHAR
STARTCHAR product
ENCODING 8719
SWIDTH 741 0
DWIDTH 24 0
BBX 20 30 2 -6
BITMAP
FFFFF0
FFFFF0
FFFFF0
FFFFF0
FC03F0
FC03F0
FC03F0
FC03F0
FC03F0
FC03F0
FC03F0
FC03F0
FC03F0
FC03F0
FC03F0
FC03F0
FC03F0
FC03F0
FC03F0
FC03F0
FC03F0
FC03F0
FC03F0
FC03F0
FC03F0
FC03F0
FC03F0
FC03F0
FC03F0
FC03F0
ENDCHAR
STARTCHAR summation
ENCODING 8721
SWIDTH 617 0
DWIDTH 20 0
BBX 19 29 1 -5
BITMAP
FFFFC0
FFFFC0
FFFFC0
FFFFC0
7FFFC0
7F0000
3F0000
1F8000
0FC000
07E000
07F000
03F000
01F800
00FC00
00FC00
01F800
03F000
07F000
07E000
0FC000
1F8000
3F0000
7F0000
7FFFE0
FFFFE0
FFFFE0
FFFFE0
FFFFE0
FFFFE0
ENDCHAR
STARTCHAR minus
ENCODING 8722
SWIDTH 511 0
DWIDTH 16 0
BBX 14 4 1 9
BITMAP
FFFC
FFFC
FFFC
FFFC
ENDCHAR
STARTCHAR uni2215
ENCODING 8725
SWIDTH 355 0
DWIDTH 11 0
BBX 15 31 -1 -4
BITMAP
003E
003E
007C
007C
007C
00F8
00F8
00F8
01F0
01F0
01F0
03E0
03E0
03E0
07C0
07C0
07C0
0F80
0F80
0F80
1F00
1F00
1E00
3E00
3E00
3C00
7C00
7C00
7800
F800
F800
ENDCHAR
STARTCHAR uni2219
ENCODING 8729
SWIDTH 331 0
DWIDTH 11 0
BBX 8 8 1 5
BITMAP
3E
7F
FF
FF
FF
FF
7F
3E
ENDCHAR
STARTCHAR radical
ENCODING 8730
SWIDTH 710 0
DWIDTH 23 0
BBX 23 30 0 -5
BITMAP
00003E
00007E
00007E
00007C
00007C
0000FC
0000F8
0000F8
0000F8
0001F8
0001F0
0001F0
FF01F0
FF83E0
FF83E0
FF83E0
0F83E0
0FC7C0
07C7C0
07C7C0
07CF80
03EF80
03EF80
03EF00
01FF00
01FF00
01FF00
00FE00
00FE00
00FE00
ENDCHAR
STARTCHAR infinity
ENCODING 8734
SWIDTH 852 0
DWIDTH 27 0
BBX 26 14 1 3
BITMAP
0F80F800
3FC1FE00
7FE3FF00
7FF7FF80
F8FF8F80
F03F0780
F03E03C0
F01E03C0
F03E0780
F87F0780
FFF7FF80
7FF3FF00
3FE3FE00
1FC0FC00
ENDCHAR
STARTCHAR integral
ENCODING 8747
SWIDTH 395 0
DWIDTH 13 0
BBX 14 33 -1 -5
BITMAP
00FC
01FC
03FC
07FC
07C0
0780
0780
0780
0780
0780
0780
0780
0780
0780
0780
07C0
07C0
07C0
07C0
03C0
03C0
03C0
03C0
03C0
03C0
03C0
03C0
07C0
7F80
7F80
7F80
FF00
1800
ENDCHAR
STARTCHAR approxequal
ENCODING 8776
SWIDTH 511 0
DWIDTH 16 0
BBX 13 13 2 4
BITMAP
7C78
FFF0
FFF0
FFF0
F3E0
0000
0000
3878
7EF8
FFF0
FFF0
F7F0
F1E0
ENDCHAR
STARTCHAR notequal
ENCODING 8800
SWIDTH 511 0
DWIDTH 16 0
BBX 14 20 1 1
BITMAP
00F0
00F0
01F0
01E0
01E0
FFFC
FFFC
FFFC
FFFC
0780
0780
0F80
FFFC
FFFC
FFFC
FFFC
1E00
1E00
3E00
3C00
ENDCHAR
STARTCHAR lessequal
ENCODING 8804
SWIDTH 511 0
DWIDTH 16 0
BBX 14 21 1 0
BITMAP
000C
003C
01FC
07FC
1FF0
FFC0
FE00
F800
F800
FF00
7FE0
1FF8
03FC
00FC
003C
0004
0000
FFFC
FFFC
FFFC
FFFC
ENDCHAR
STARTCHAR greaterequal
ENCODING 8805
SWIDTH 511 0
DWIDTH 16 0
BBX 14 22 1 0
BITMAP
8000
E000
F800
FE00
FFC0
1FF0
07FC
00FC
003C
00FC
03FC
1FF8
7FC0
FF00
FC00
E000
8000
0000
FFFC
FFFC
FFFC
FFFC
ENDCHAR
STARTCHAR filledbox
ENCODING 9632
SWIDTH 600 0
DWIDTH 19 0
BBX 13 13 3 2
BITMAP
FFF8
FFF8
FFF8
FFF8
FFF8
FFF8
FFF8
FFF8
FFF8
FFF8
FFF8
FFF8
FFF8
ENDCHAR
STARTCHAR uni25A1
ENCODING 9633
SWIDTH 600 0
DWIDTH 19 0
BBX 13 13 3 2
BITMAP
FFF8
FFF8
FFF8
E038
E038
E038
E038
E038
E038
FFF8
FFF8
FFF8
FFF8
ENDCHAR
STARTCHAR triagup
ENCODING 9650
SWIDTH 600 0
DWIDTH 19 0
BBX 13 14 3 2
BITMAP
0200
0200
0300
0700
0780
0F80
0FC0
1FC0
1FE0
3FE0
3FF0
7FF0
7FF8
FFF8
ENDCHAR
STARTCHAR uni25B3
ENCODING 9651
SWIDTH 600 0
DWIDTH 19 0
BBX 13 14 3 2
BITMAP
0200
0200
0300
0700
0780
0F80
0DC0
1DC0
18E0
38E0
3870
7070
7FF8
FFF8
ENDCHAR
STARTCHAR uni25B6
ENCODING 9654
SWIDTH 600 0
DWIDTH 19 0
BBX 13 14 4 2
BITMAP
8000
C000
F000
FC00
FF00
FFC0
FFF0
FFF8
FFE0
FF80
FE00
F800
E000
8000
ENDCHAR
STARTCHAR uni25B7
ENCODING 9655
SWIDTH 600 0
DWIDTH 19 0
BBX 13 14 4 2
BITMAP
8000
C000
F000
FC00
FF00
CFC0
C3F0
C1F8
C7E0
DF80
FE00
F800
E000
8000
ENDCHAR
STARTCHAR triagdn
ENCODING 9660
SWIDTH 600 0
DWIDTH 19 0
BBX 13 14 3 2
BITMAP
FFF8
FFF8
7FF0
7FF0
3FE0
3FE0
1FC0
1FC0
0F80
0F80
0700
0700
0200
0200
ENDCHAR
STARTCHAR uni25BD
ENCODING 9661
SWIDTH 600 0
DWIDTH 19 0
BBX 13 14 3 2
BITMAP
FFF8
FFF8
7FF0
7070
38E0
38E0
1DC0
1DC0
0F80
0F80
0700
0700
0200
0200
ENDCHAR
STARTCHAR uni25C0
ENCODING 9664
SWIDTH 600 0
DWIDTH 19 0
BBX 13 14 2 2
BITMAP
0008
0018
0078
01F8
07F8
1FF8
7FF8
FFF8
3FF8
0FF8
03F8
00F8
0038
0008
ENDCHAR
STARTCHAR uni25C1
ENCODING 9665
SWIDTH 600 0
DWIDTH 19 0
BBX 13 14 2 2
BITMAP
0008
0018
0078
01F8
07F8
1F98
7E18
FC18
3F18
0FD8
03F8
00F8
0038
0008
ENDCHAR
STARTCHAR uni25C6
ENCODING 9670
SWIDTH 600 0
DWIDTH 19 0
BBX 17 18 1 0
BITMAP
008000
01C000
03E000
07F000
0FF800
1FFC00
3FFE00
3FFF00
7FFF80
FFFF80
7FFF00
3FFE00
1FFC00
0FF800
07F000
03E000
01C000
008000
ENDCHAR
STARTCHAR uni25C7
ENCODING 9671
SWIDTH 600 0
DWIDTH 19 0
BBX 17 18 1 0
BITMAP
008000
01C000
03E000
07F000
0FF800
1F7C00
3E3E00
3C1F00
780F80
F00780
780F00
3C1E00
1E3C00
0F7800
07F000
03E000
01C000
008000
ENDCHAR
STARTCHAR lozenge
ENCODING 9674
SWIDTH 505 0
DWIDTH 16 0
BBX 14 22 1 0
BITMAP
0100
0300
0780
0780
0FC0
1FE0
1FE0
3CF0
7C78
7878
F03C
F03C
787C
7878
3CF0
1FF0
1FE0
0FC0
07C0
0780
0300
0300
ENDCHAR
STARTCHAR uniA78B
ENCODING 42891
SWIDTH 310 0
DWIDTH 10 0
BBX 6 13 2 10
BITMAP
FC
FC
FC
FC
FC
FC
FC
F8
F8
F8
F8
F8
F8
ENDCHAR
STARTCHAR uniA78C
ENCODING 42892
SWIDTH 304 0
DWIDTH 10 0
BBX 6 13 2 10
BITMAP
FC
FC
FC
FC
F8
F8
F8
F8
F8
F8
F8
F8
F8
ENDCHAR
STARTCHAR fi
ENCODING 64257
SWIDTH 709 0
DWIDTH 23 0
BBX 20 26 1 0
BITMAP
0001C0
00E3E0
07F3F0
1FF3F0
1FF3E0
3FF1C0
3F0000
3F0000
3F03F0
FFF3F0
FFF3F0
FFF3F0
FFF3F0
3F03F0
3F03F0
3F03F0
3F03F0
3F03F0
3F03F0
3F03F0
3F03F0
3F03F0
3F03F0
3F03F0
3F03F0
3F03F0
ENDCHAR
STARTCHAR fl
ENCODING 64258
SWIDTH 742 0
DWIDTH 24 0
BBX 20 25 1 0
BITMAP
00E000
07F1F0
1FF1F0
1FF1F0
3FF1F0
3F01F0
3F01F0
3F01F0
FFF1F0
FFF1F0
FFF1F0
FFF1F0
3F01F0
3F01F0
3F01F0
3F01F0
3F01F0
3F01F0
3F01F0
3F01F0
3F01F0
3F01F0
3F01F0
3F01F0
3F01F0
ENDCHAR
STARTCHAR .notdef
ENCODING -1
SWIDTH 587 0
DWIDTH 19 0
BBX 17 23 1 0
BITMAP
FFFF80
FFFF80
E00380
E00380
E00380
E00380
E00380
E00380
E00380
E00380
E00380
E00380
E00380
E00380
E00380
E00380
E00380
E00380
E00380
E00380
E00380
FFFF80
FFFF80
ENDCHAR
STARTCHAR .null
ENCODING -1
SWIDTH 0 0
DWIDTH 0 0
BBX 1 1 0 0
BITMAP
00
ENDCHAR
STARTCHAR A.ss01
ENCODING -1
SWIDTH 753 0
DWIDTH 24 0
BBX 20 23 2 0
BITMAP
03FC00
0FFF00
1FFF80
3FFFC0
7FFFE0
7E07E0
FC03F0
FC03F0
FC03F0
FC03F0
FC03F0
FC03F0
FC03F0
FFFFF0
FFFFF0
FFFFF0
FFFFF0
FFFFF0
FC03F0
FC03F0
FC03F0
FC03F0
FC03F0
ENDCHAR
STARTCHAR Aacute.ss01
ENCODING -1
SWIDTH 753 0
DWIDTH 24 0
BBX 20 30 2 0
BITMAP
003800
003F00
007E00
00F800
01F000
000000
000000
03FC00
0FFF00
1FFF80
3FFFC0
7FFFE0
7E07E0
FC03F0
FC03F0
FC03F0
FC03F0
FC03F0
FC03F0
FC03F0
FFFFF0
FFFFF0
FFFFF0
FFFFF0
FFFFF0
FC03F0
FC03F0
FC03F0
FC03F0
FC03F0
ENDCHAR
STARTCHAR Abreve.ss01
ENCODING -1
SWIDTH 753 0
DWIDTH 24 0
BBX 20 31 2 0
BITMAP
070E00
070E00
079E00
03FE00
03FC00
00F000
000000
000000
03FC00
0FFF00
1FFF80
3FFFC0
7FFFE0
7E07E0
FC03F0
FC03F0
FC03F0
FC03F0
FC03F0
FC03F0
FC03F0
FFFFF0
FFFFF0
FFFFF0
FFFFF0
FFFFF0
FC03F0
FC03F0
FC03F0
FC03F0
FC03F0
ENDCHAR
STARTCHAR uni1EAE.ss01
ENCODING -1
SWIDTH 753 0
DWIDTH 24 0
BBX 20 34 2 0
BITMAP
001000
003C00
007E00
00F800
07FE00
079E00
07FE00
03FC00
01F800
000000
000000
03FC00
0FFF00
1FFF80
3FFFC0
7FFFE0
7E07E0
FC03F0
FC03F0
FC03F0
FC03F0
FC03F0
FC03F0
FC03F0
FFFFF0
FFFFF0
FFFFF0
FFFFF0
FFFFF0
FC03F0
FC03F0
FC03F0
FC03F0
FC03F0
ENDCHAR
STARTCHAR uni1EB6.ss01
ENCODING -1
SWIDTH 753 0
DWIDTH 24 0
BBX 20 39 2 -8
BITMAP
070E00
070E00
079E00
03FE00
03FC00
00F000
000000
000000
03FC00
0FFF00
1FFF80
3FFFC0
7FFFE0
7E07E0
FC03F0
FC03F0
FC03F0
FC03F0
FC03F0
FC03F0
FC03F0
FFFFF0
FFFFF0
FFFFF0
FFFFF0
FFFFF0
FC03F0
FC03F0
FC03F0
FC03F0
FC03F0
000000
000000
00F000
01F800
01F800
01F800
01F800
00F000
ENDCHAR
STARTCHAR uni1EB0.ss01
ENCODING -1
SWIDTH 753 0
DWIDTH 24 0
BBX 20 34 2 0
BITMAP
008000
03C000
07E000
03F000
07FE00
078E00
07FE00
03FC00
01F800
000000
000000
03FC00
0FFF00
1FFF80
3FFFC0
7FFFE0
7E07E0
FC03F0
FC03F0
FC03F0
FC03F0
FC03F0
FC03F0
FC03F0
FFFFF0
FFFFF0
FFFFF0
FFFFF0
FFFFF0
FC03F0
FC03F0
FC03F0
FC03F0
FC03F0
ENDCHAR
STARTCHAR uni1EB2.ss01
ENCODING -1
SWIDTH 753 0
DWIDTH 24 0
BBX 20 34 2 0
BITMAP
03F000
01F800
00F800
007800
07FE00
079E00
07FE00
03FC00
01F800
000000
000000
03FC00
0FFF00
1FFF80
3FFFC0
7FFFE0
7E07E0
FC03F0
FC03F0
FC03F0
FC03F0
FC03F0
FC03F0
FC03F0
FFFFF0
FFFFF0
FFFFF0
FFFFF0
FFFFF0
FC03F0
FC03F0
FC03F0
FC03F0
FC03F0
ENDCHAR
STARTCHAR uni1EB4.ss01
ENCODING -1
SWIDTH 753 0
DWIDTH 24 0
BBX 20 35 2 0
BITMAP
010700
07E700
07FF00
07FE00
0E3E00
070E00
079E00
07FE00
03FC00
01F800
000000
000000
03FC00
0FFF00
1FFF80
3FFFC0
7FFFE0
7E07E0
FC03F0
FC03F0
FC03F0
FC03F0
FC03F0
FC03F0
FC03F0
FFFFF0
FFFFF0
FFFFF0
FFFFF0
FFFFF0
FC03F0
FC03F0
FC03F0
FC03F0
FC03F0
ENDCHAR
STARTCHAR Acircumflex.ss01
ENCODING -1
SWIDTH 753 0
DWIDTH 24 0
BBX 20 30 2 0
BITMAP
01F800
01F800
03FC00
07DE00
0F8F00
000000
000000
03FC00
0FFF00
1FFF80
3FFFC0
7FFFE0
7E07E0
FC03F0
FC03F0
FC03F0
FC03F0
FC03F0
FC03F0
FC03F0
FFFFF0
FFFFF0
FFFFF0
FFFFF0
FFFFF0
FC03F0
FC03F0
FC03F0
FC03F0
FC03F0
ENDCHAR
STARTCHAR uni1EA4.ss01
ENCODING -1
SWIDTH 753 0
DWIDTH 24 0
BBX 20 35 2 0
BITMAP
001000
003C00
007E00
00F800
01F000
000000
01F800
03FC00
07DE00
1F0F80
000000
000000
03FC00
0FFF00
1FFF80
3FFFC0
7FFFE0
7E07E0
FC03F0
FC03F0
FC03F0
FC03F0
FC03F0
FC03F0
FC03F0
FFFFF0
FFFFF0
FFFFF0
FFFFF0
FFFFF0
FC03F0
FC03F0
FC03F0
FC03F0
FC03F0
ENDCHAR
STARTCHAR uni1EAC.ss01
ENCODING -1
SWIDTH 753 0
DWIDTH 24 0
BBX 20 38 2 -8
BITMAP
01F800
01F800
03FC00
07DE00
0F8F00
000000
000000
03FC00
0FFF00
1FFF80
3FFFC0
7FFFE0
7E07E0
FC03F0
FC03F0
FC03F0
FC03F0
FC03F0
FC03F0
FC03F0
FFFFF0
FFFFF0
FFFFF0
FFFFF0
FFFFF0
FC03F0
FC03F0
FC03F0
FC03F0
FC03F0
000000
000000
00F000
01F800
01F800
01F800
01F800
00F000
ENDCHAR
STARTCHAR uni1EA6.ss01
ENCODING -1
SWIDTH 753 0
DWIDTH 24 0
BBX 20 35 2 0
BITMAP
008000
03C000
0FE000
03F000
00F800
000000
01F800
03FC00
07DE00
1F0F80
000000
000000
03FC00
0FFF00
1FFF80
3FFFC0
7FFFE0
7E07E0
FC03F0
FC03F0
FC03F0
FC03F0
FC03F0
FC03F0
FC03F0
FFFFF0
FFFFF0
FFFFF0
FFFFF0
FFFFF0
FC03F0
FC03F0
FC03F0
FC03F0
FC03F0
ENDCHAR
STARTCHAR uni1EA8.ss01
ENCODING -1
SWIDTH 753 0
DWIDTH 24 0
BBX 20 35 2 0
BITMAP
01F800
00F800
00B800
003800
007000
000000
01FC00
03FE00
07DF00
0F8F80
000000
000000
03FC00
0FFF00
1FFF80
3FFFC0
7FFFE0
7E07E0
FC03F0
FC03F0
FC03F0
FC03F0
FC03F0
FC03F0
FC03F0
FFFFF0
FFFFF0
FFFFF0
FFFFF0
FFFFF0
FC03F0
FC03F0
FC03F0
FC03F0
FC03F0
ENDCHAR
STARTCHAR uni1EAA.ss01
ENCODING -1
SWIDTH 753 0
DWIDTH 24 0
BBX 20 35 2 0
BITMAP
030700
07E600
0FFE00
0FFE00
0E3C00
000000
03F800
03FC00
07BE00
1F1F00
000000
000000
03FC00
0FFF00
1FFF80
3FFFC0
7FFFE0
7E07E0
FC03F0
FC03F0
FC03F0
FC03F0
FC03F0
FC03F0
FC03F0
FFFFF0
FFFFF0
FFFFF0
FFFFF0
FFFFF0
FC03F0
FC03F0
FC03F0
FC03F0
FC03F0
ENDCHAR
STARTCHAR uni0200.ss01
ENCODING -1
SWIDTH 753 0
DWIDTH 24 0
BBX 20 30 2 0
BITMAP
061C00
1F7C00
1F3E00
0FBE00
079F00
000000
000000
03FC00
0FFF00
1FFF80
3FFFC0
7FFFE0
7E07E0
FC03F0
FC03F0
FC03F0
FC03F0
FC03F0
FC03F0
FC03F0
FFFFF0
FFFFF0
FFFFF0
FFFFF0
FFFFF0
FC03F0
FC03F0
FC03F0
FC03F0
FC03F0
ENDCHAR
STARTCHAR Adieresis.alt
ENCODING -1
SWIDTH 773 0
DWIDTH 25 0
BBX 25 23 0 0
BITMAP
1C7F1C00
1E7F3C00
1EFFBC00
1CFF9C00
00FF8000
01FFC000
01FFC000
03F7E000
03E7E000
07E3E000
07E3F000
07C3F000
0FC1F800
0FC1F800
1FFFF800
1FFFFC00
1FFFFC00
3FFFFE00
3FFFFE00
7E007E00
7E003F00
FC003F00
FC003F80
ENDCHAR
STARTCHAR Adieresis.ss01
ENCODING -1
SWIDTH 753 0
DWIDTH 24 0
BBX 20 30 2 0
BITMAP
030C00
079E00
079F00
079E00
078E00
000000
000000
03FC00
0FFF00
1FFF80
3FFFC0
7FFFE0
7E07E0
FC03F0
FC03F0
FC03F0
FC03F0
FC03F0
FC03F0
FC03F0
FFFFF0
FFFFF0
FFFFF0
FFFFF0
FFFFF0
FC03F0
FC03F0
FC03F0
FC03F0
FC03F0
ENDCHAR
STARTCHAR uni1EA0.ss01
ENCODING -1
SWIDTH 753 0
DWIDTH 24 0
BBX 20 31 2 -8
BITMAP
03FC00
0FFF00
1FFF80
3FFFC0
7FFFE0
7E07E0
FC03F0
FC03F0
FC03F0
FC03F0
FC03F0
FC03F0
FC03F0
FFFFF0
FFFFF0
FFFFF0
FFFFF0
FFFFF0
FC03F0
FC03F0
FC03F0
FC03F0
FC03F0
000000
000000
00F000
01F800
01F800
01F800
01F800
00F000
ENDCHAR
STARTCHAR Agrave.ss01
ENCODING -1
SWIDTH 753 0
DWIDTH 24 0
BBX 20 30 2 0
BITMAP
01C000
07C000
03E000
01F000
00F800
000000
000000
03FC00
0FFF00
1FFF80
3FFFC0
7FFFE0
7E07E0
FC03F0
FC03F0
FC03F0
FC03F0
FC03F0
FC03F0
FC03F0
FFFFF0
FFFFF0
FFFFF0
FFFFF0
FFFFF0
FC03F0
FC03F0
FC03F0
FC03F0
FC03F0
ENDCHAR
STARTCHAR uni1EA2.ss01
ENCODING -1
SWIDTH 753 0
DWIDTH 24 0
BBX 20 32 2 0
BITMAP
00F000
03F800
01FC00
003C00
003C00
007800
007000
000000
000000
03FC00
0FFF00
1FFF80
3FFFC0
7FFFE0
7E07E0
FC03F0
FC03F0
FC03F0
FC03F0
FC03F0
FC03F0
FC03F0
FFFFF0
FFFFF0
FFFFF0
FFFFF0
FFFFF0
FC03F0
FC03F0
FC03F0
FC03F0
FC03F0
ENDCHAR
STARTCHAR uni0202.ss01
ENCODING -1
SWIDTH 753 0
DWIDTH 24 0
BBX 20 30 2 0
BITMAP
00F000
03FC00
07FE00
079E00
070E00
000000
000000
03FC00
0FFF00
1FFF80
3FFFC0
7FFFE0
7E07E0
FC03F0
FC03F0
FC03F0
FC03F0
FC03F0
FC03F0
FC03F0
FFFFF0
FFFFF0
FFFFF0
FFFFF0
FFFFF0
FC03F0
FC03F0
FC03F0
FC03F0
FC03F0
ENDCHAR
STARTCHAR Amacron.ss01
ENCODING -1
SWIDTH 753 0
DWIDTH 24 0
BBX 20 28 2 0
BITMAP
0FFF00
0FFF00
0FFF00
000000
000000
03FC00
0FFF00
1FFF80
3FFFC0
7FFFE0
7E07E0
FC03F0
FC03F0
FC03F0
FC03F0
FC03F0
FC03F0
FC03F0
FFFFF0
FFFFF0
FFFFF0
FFFFF0
FFFFF0
FC03F0
FC03F0
FC03F0
FC03F0
FC03F0
ENDCHAR
STARTCHAR Aogonek.ss01
ENCODING -1
SWIDTH 753 0
DWIDTH 24 0
BBX 20 31 2 -8
BITMAP
03FC00
0FFF00
1FFF80
3FFFC0
7FFFE0
7E07E0
FC03F0
FC03F0
FC03F0
FC03F0
FC03F0
FC03F0
FC03F0
FFFFF0
FFFFF0
FFFFF0
FFFFF0
FFFFF0
FC03F0
FC03F0
FC03F0
FC03F0
FC03F0
0003C0
000780
000780
000F80
000FC0
0007E0
0007E0
0003E0
ENDCHAR
STARTCHAR Aring.ss01
ENCODING -1
SWIDTH 753 0
DWIDTH 24 0
BBX 20 32 2 0
BITMAP
00F000
01F800
019C00
039C00
039C00
019C00
01F800
00F000
000000
03FC00
0FFF00
1FFF80
3FFFC0
7FFFE0
7E07E0
FC03F0
FC03F0
FC03F0
FC03F0
FC03F0
FC03F0
FC03F0
FFFFF0
FFFFF0
FFFFF0
FFFFF0
FFFFF0
FC03F0
FC03F0
FC03F0
FC03F0
FC03F0
ENDCHAR
STARTCHAR Aringacute.ss01
ENCODING -1
SWIDTH 753 0
DWIDTH 24 0
BBX 20 38 2 0
BITMAP
001000
003C00
007E00
00F800
01F000
000000
00F000
01F800
019C00
039C00
039C00
019C00
01F800
00F000
000000
03FC00
0FFF00
1FFF80
3FFFC0
7FFFE0
7E07E0
FC03F0
FC03F0
FC03F0
FC03F0
FC03F0
FC03F0
FC03F0
FFFFF0
FFFFF0
FFFFF0
FFFFF0
FFFFF0
FC03F0
FC03F0
FC03F0
FC03F0
FC03F0
ENDCHAR
STARTCHAR Atilde.ss01
ENCODING -1
SWIDTH 753 0
DWIDTH 24 0
BBX 20 30 2 0
BITMAP
03C700
07FF00
07FF00
07FE00
0F1C00
000000
000000
03FC00
0FFF00
1FFF80
3FFFC0
7FFFE0
7E07E0
FC03F0
FC03F0
FC03F0
FC03F0
FC03F0
FC03F0
FC03F0
FFFFF0
FFFFF0
FFFFF0
FFFFF0
FFFFF0
FC03F0
FC03F0
FC03F0
FC03F0
FC03F0
ENDCHAR
STARTCHAR uni01C4.ss01
ENCODING -1
SWIDTH 1442 0
DWIDTH 46 0
BBX 43 30 2 0
BITMAP
0000001E1E00
0000000F3C00
00000007F800
00000007F800
00000003F000
000000000000
000000000000
FFFC00FFFFE0
FFFF00FFFFE0
FFFFC0FFFFE0
FFFFE0FFFFE0
FFFFF0FFFFE0
FC07F0001FC0
FC03F8003F80
FC01F8007F00
FC01F800FE00
FC00FC7FFE00
FC00FC7FFF80
FC00FC7FFF80
FC00FC7FFF80
FC00FC0FFF80
FC01F81FE000
FC01F83FC000
FC03F83F8000
FC07F07F0000
FFFFF0FFFFE0
FFFFE1FFFFE0
FFFFC1FFFFE0
FFFF01FFFFE0
FFF801FFFFE0
ENDCHAR
STARTCHAR uni01C5.ss01
ENCODING -1
SWIDTH 1321 0
DWIDTH 42 0
BBX 39 25 2 0
BITMAP
0000003C7C
0000003EF8
FFFC001FF0
FFFF000FE0
FFFFC007C0
FFFFE00000
FFFFF00000
FC07F0FFFE
FC03F8FFFE
FC01F8FFFE
FC01F8FFFE
FC00FCFFFC
FC00FC01FC
FC00FC03F8
FC00FC7FF0
FC00FC7FFC
FC01F87FFC
FC01F81FFC
FC03F83F80
FC07F07F00
FFFFF0FFFE
FFFFE0FFFE
FFFFC0FFFE
FFFF00FFFE
FFF800FFFE
ENDCHAR
STARTCHAR E.ss01
ENCODING -1
SWIDTH 641 0
DWIDTH 21 0
BBX 19 23 1 0
BITMAP
03FE00
0FFFC0
3FFFC0
3FFF80
7FFF80
7E0080
7E0000
3E0000
3FFE00
1FFE00
0FFE00
3FFE00
7FFE00
7E0000
FC0000
FC0000
FC0080
FE01C0
FFFFC0
7FFFE0
3FFFE0
1FFFC0
07FE00
ENDCHAR
STARTCHAR Eacute.ss01
ENCODING -1
SWIDTH 641 0
DWIDTH 21 0
BBX 19 30 1 0
BITMAP
001800
003F00
007E00
00F800
01F000
000000
000000
03FE00
0FFFC0
3FFFC0
3FFF80
7FFF80
7E0080
7E0000
3E0000
3FFE00
1FFE00
0FFE00
3FFE00
7FFE00
7E0000
FC0000
FC0000
FC0080
FE01C0
FFFFC0
7FFFE0
3FFFE0
1FFFC0
07FE00
ENDCHAR
STARTCHAR Ebreve.ss01
ENCODING -1
SWIDTH 641 0
DWIDTH 21 0
BBX 19 31 1 0
BITMAP
070E00
078E00
079E00
03FE00
03FC00
00F800
000000
000000
03FE00
0FFFC0
3FFFC0
3FFF80
7FFF80
7E0080
7E0000
3E0000
3FFE00
1FFE00
0FFE00
3FFE00
7FFE00
7E0000
FC0000
FC0000
FC0080
FE01C0
FFFFC0
7FFFE0
3FFFE0
1FFFC0
07FE00
ENDCHAR
STARTCHAR Ecaron.ss01
ENCODING -1
SWIDTH 641 0
DWIDTH 21 0
BBX 19 30 1 0
BITMAP
0F0F00
079E00
07FC00
03F800
01F800
000000
000000
03FE00
0FFFC0
3FFFC0
3FFF80
7FFF80
7E0080
7E0000
3E0000
3FFE00
1FFE00
0FFE00
3FFE00
7FFE00
7E0000
FC0000
FC0000
FC0080
FE01C0
FFFFC0
7FFFE0
3FFFE0
1FFFC0
07FE00
ENDCHAR
STARTCHAR uni1E1C.ss01
ENCODING -1
SWIDTH 641 0
DWIDTH 21 0
BBX 19 38 1 -7
BITMAP
0F1E00
0F1E00
0F3C00
07FC00
03F800
01F000
000000
000000
03FE00
0FFFC0
3FFFC0
3FFF80
7FFF80
7E0080
7E0000
3E0000
3FFE00
1FFE00
0FFE00
3FFE00
7FFE00
7E0000
FC0000
FC0000
FC0080
FF03C0
FFFFC0
7FFFE0
7FFFE0
1FFFC0
07FE00
00F000
00E000
00F800
003C00
01FC00
01F800
03F000
ENDCHAR
STARTCHAR Ecircumflex.ss01
ENCODING -1
SWIDTH 641 0
DWIDTH 21 0
BBX 19 30 1 0
BITMAP
00F800
01FC00
03FC00
07DE00
0F8F00
000000
000000
03FE00
0FFFC0
3FFFC0
3FFF80
7FFF80
7E0080
7E0000
3E0000
3FFE00
1FFE00
0FFE00
3FFE00
7FFE00
7E0000
FC0000
FC0000
FC0080
FE01C0
FFFFC0
7FFFE0
3FFFE0
1FFFC0
07FE00
ENDCHAR
STARTCHAR uni1EBE.ss01
ENCODING -1
SWIDTH 641 0
DWIDTH 21 0
BBX 19 35 1 0
BITMAP
001000
003C00
007E00
00F800
01F000
000000
01FC00
03FC00
07DE00
0F8F80
100000
000000
03FE00
0FFFC0
3FFFC0
3FFF80
7FFF80
7E0080
7E0000
3E0000
3FFE00
1FFE00
0FFE00
3FFE00
7FFE00
7E0000
FC0000
FC0000
FC0080
FE01C0
FFFFC0
7FFFE0
3FFFE0
1FFFC0
07FE00
ENDCHAR
STARTCHAR uni1EC6.ss01
ENCODING -1
SWIDTH 641 0
DWIDTH 21 0
BBX 19 38 1 -8
BITMAP
01F800
01F800
03FC00
07DE00
0F9F00
000000
000000
03FE00
0FFFC0
3FFFC0
3FFF80
7FFF80
7E0080
7E0000
3E0000
3FFE00
1FFE00
0FFE00
3FFE00
7FFE00
7E0000
FC0000
FC0000
FC0080
FE01C0
FFFFC0
7FFFE0
3FFFE0
1FFFC0
07FE00
000000
000000
00F000
01F800
01F800
01F800
01F800
00F000
ENDCHAR
STARTCHAR uni1EC0.ss01
ENCODING -1
SWIDTH 641 0
DWIDTH 21 0
BBX 19 35 1 0
BITMAP
008000
03C000
07E000
03F000
00F800
000000
01FC00
03FE00
07DE00
0F8F80
000000
000000
03FE00
0FFFC0
3FFFC0
3FFF80
7FFF80
7E0080
7E0000
3E0000
3FFE00
1FFE00
0FFE00
3FFE00
7FFE00
7E0000
FC0000
FC0000
FC0080
FE01C0
FFFFC0
7FFFE0
3FFFE0
1FFFC0
07FE00
ENDCHAR
STARTCHAR uni1EC2.ss01
ENCODING -1
SWIDTH 641 0
DWIDTH 21 0
BBX 19 35 1 0
BITMAP
01F800
00FC00
00BC00
003800
007000
000000
01FC00
03FE00
07DF00
0F8F80
000000
000000
03FE00
0FFFC0
3FFFC0
3FFF80
7FFF80
7E0080
7E0000
3E0000
3FFE00
1FFE00
0FFE00
3FFE00
7FFE00
7E0000
FC0000
FC0000
FC0080
FE01C0
FFFFC0
7FFFE0
3FFFE0
1FFFC0
07FE00
ENDCHAR
STARTCHAR uni1EC4.ss01
ENCODING -1
SWIDTH 641 0
DWIDTH 21 0
BBX 19 35 1 0
BITMAP
018700
07E700
07FE00
0FFE00
0E3C00
000000
01F800
03FC00
07BE00
1F0F80
000000
000000
03FE00
0FFFC0
3FFFC0
3FFF80
7FFF80
7E0080
7E0000
3E0000
3FFE00
1FFE00
0FFE00
3FFE00
7FFE00
7E0000
FC0000
FC0000
FC0080
FE01C0
FFFFC0
7FFFE0
3FFFE0
1FFFC0
07FE00
ENDCHAR
STARTCHAR uni0204.ss01
ENCODING -1
SWIDTH 641 0
DWIDTH 21 0
BBX 19 30 1 0
BITMAP
061C00
1F7C00
0F3E00
0F9E00
07DF00
000000
000000
03FE00
0FFFC0
3FFFC0
3FFF80
7FFF80
7E0080
7E0000
3E0000
3FFE00
1FFE00
0FFE00
3FFE00
7FFE00
7E0000
FC0000
FC0000
FC0080
FE01C0
FFFFC0
7FFFE0
3FFFE0
1FFFC0
07FE00
ENDCHAR
STARTCHAR Edieresis.ss01
ENCODING -1
SWIDTH 641 0
DWIDTH 21 0
BBX 19 30 1 0
BITMAP
030C00
079E00
07DF00
079F00
038E00
000000
000000
03FE00
0FFFC0
3FFFC0
3FFF80
7FFF80
7E0080
7E0000
3E0000
3FFE00
1FFE00
0FFE00
3FFE00
7FFE00
7E0000
FC0000
FC0000
FC0080
FE01C0
FFFFC0
7FFFE0
3FFFE0
1FFFC0
07FE00
ENDCHAR
STARTCHAR Edotaccent.ss01
ENCODING -1
SWIDTH 641 0
DWIDTH 21 0
BBX 19 31 1 0
BITMAP
00F000
00F800
01F800
01F800
00F800
00F000
000000
000000
03FE00
0FFFC0
3FFFC0
3FFF80
7FFF80
7E0080
7E0000
3E0000
3FFE00
1FFE00
0FFE00
3FFE00
7FFE00
7E0000
FC0000
FC0000
FC0080
FE01C0
FFFFC0
7FFFE0
3FFFE0
1FFFC0
07FE00
ENDCHAR
STARTCHAR uni1EB8.ss01
ENCODING -1
SWIDTH 641 0
DWIDTH 21 0
BBX 19 31 1 -8
BITMAP
03FE00
0FFFC0
3FFFC0
3FFF80
7FFF80
7E0080
7E0000
3E0000
3FFE00
1FFE00
0FFE00
3FFE00
7FFE00
7E0000
FC0000
FC0000
FC0080
FE01C0
FFFFC0
7FFFE0
3FFFE0
1FFFC0
07FE00
000000
000000
00F000
01F800
01F800
01F800
01F800
00F000
ENDCHAR
STARTCHAR Egrave.ss01
ENCODING -1
SWIDTH 641 0
DWIDTH 21 0
BBX 19 30 1 0
BITMAP
01C000
07E000
03E000
01F000
00F800
000000
000000
03FE00
0FFFC0
3FFFC0
3FFF80
7FFF80
7E0080
7E0000
3E0000
3FFE00
1FFE00
0FFE00
3FFE00
7FFE00
7E0000
FC0000
FC0000
FC0080
FE01C0
FFFFC0
7FFFE0
3FFFE0
1FFFC0
07FE00
ENDCHAR
STARTCHAR uni1EBA.ss01
ENCODING -1
SWIDTH 641 0
DWIDTH 21 0
BBX 19 32 1 0
BITMAP
00F800
01FC00
01FC00
003C00
003C00
007800
007000
000000
000000
03FE00
0FFFC0
3FFFC0
3FFF80
7FFF80
7E0080
7E0000
3E0000
3FFE00
1FFE00
0FFE00
3FFE00
7FFE00
7E0000
FC0000
FC0000
FC0080
FE01C0
FFFFC0
7FFFE0
3FFFE0
1FFFC0
07FE00
ENDCHAR
STARTCHAR uni0206.ss01
ENCODING -1
SWIDTH 641 0
DWIDTH 21 0
BBX 19 30 1 0
BITMAP
00F800
03FC00
03FE00
079E00
078E00
000000
000000
03FE00
0FFFC0
3FFFC0
3FFF80
7FFF80
7E0080
7E0000
3E0000
3FFE00
1FFE00
0FFE00
3FFE00
7FFE00
7E0000
FC0000
FC0000
FC0080
FE01C0
FFFFC0
7FFFE0
3FFFE0
1FFFC0
07FE00
ENDCHAR
STARTCHAR Emacron.ss01
ENCODING -1
SWIDTH 641 0
DWIDTH 21 0
BBX 19 28 1 0
BITMAP
07FF00
07FF00
07FF00
000000
000000
03FE00
0FFFC0
3FFFC0
3FFF80
7FFF80
7E0080
7E0000
3E0000
3FFE00
1FFE00
0FFE00
3FFE00
7FFE00
7E0000
FC0000
FC0000
FC0080
FE01C0
FFFFC0
7FFFE0
3FFFE0
1FFFC0
07FE00
ENDCHAR
STARTCHAR uni1E16.ss01
ENCODING -1
SWIDTH 641 0
DWIDTH 21 0
BBX 19 35 1 0
BITMAP
001000
003C00
007E00
00F800
01E000
000000
000000
07FE00
07FE00
07FE00
000000
000000
03FE00
0FFFC0
3FFFC0
3FFF80
7FFF80
7E0080
7E0000
3E0000
3FFE00
1FFE00
0FFE00
3FFE00
7FFE00
7E0000
FC0000
FC0000
FC0080
FE01C0
FFFFC0
7FFFE0
3FFFE0
1FFFC0
07FE00
ENDCHAR
STARTCHAR uni1E14.ss01
ENCODING -1
SWIDTH 641 0
DWIDTH 21 0
BBX 19 35 1 0
BITMAP
008000
01E000
07F000
01F800
007C00
000000
000000
03FE00
03FE00
03FE00
000000
000000
03FE00
0FFFC0
3FFFC0
3FFF80
7FFF80
7E0080
7E0000
3E0000
3FFE00
1FFE00
0FFE00
3FFE00
7FFE00
7E0000
FC0000
FC0000
FC0080
FE01C0
FFFFC0
7FFFE0
3FFFE0
1FFFC0
07FE00
ENDCHAR
STARTCHAR Eogonek.ss01
ENCODING -1
SWIDTH 641 0
DWIDTH 21 0
BBX 19 30 1 -7
BITMAP
03FE00
0FFFC0
3FFFC0
3FFF80
7FFF80
7E0080
7E0000
3E0000
3FFE00
1FFE00
0FFE00
3FFE00
7FFE00
7E0000
FC0000
FC0000
FC0080
FE01C0
FFFFC0
7FFFE0
3FFFE0
1FFFC0
07FF80
000780
000F00
000F00
000FC0
000FC0
000FE0
0003C0
ENDCHAR
STARTCHAR uni1EBC.ss01
ENCODING -1
SWIDTH 641 0
DWIDTH 21 0
BBX 19 30 1 0
BITMAP
03C700
07FF00
07FF00
07FE00
071E00
000000
000000
03FE00
0FFFC0
3FFFC0
3FFF80
7FFF80
7E0080
7E0000
3E0000
3FFE00
1FFE00
0FFE00
3FFE00
7FFE00
7E0000
FC0000
FC0000
FC0080
FE01C0
FFFFC0
7FFFE0
3FFFE0
1FFFC0
07FE00
ENDCHAR
STARTCHAR F.ss01
ENCODING -1
SWIDTH 559 0
DWIDTH 18 0
BBX 16 23 2 0
BITMAP
07F8
1FFF
3FFF
7FFE
FFFE
FE06
FC00
FC00
FC00
FC00
FFFC
FFFC
FFFC
FFFC
FFFC
FC00
FC00
FC00
FC00
FC00
FC00
FC00
FC00
ENDCHAR
STARTCHAR G.ss01
ENCODING -1
SWIDTH 743 0
DWIDTH 24 0
BBX 21 23 1 0
BITMAP
00FF00
03FFE0
0FFFF0
1FFFF8
3FFFF0
7F81E0
7F0060
FE0000
FC0000
FC0000
FC0000
FC00F8
FC00F8
FC00F8
FC00F8
FE00F8
7F00F8
7F81F8
3FFFF8
1FFFF8
0FFFF8
07FFF8
00FC78
ENDCHAR
STARTCHAR Gbreve.ss01
ENCODING -1
SWIDTH 743 0
DWIDTH 24 0
BBX 21 31 1 0
BITMAP
03C780
03C780
01E780
01FF00
00FE00
007C00
000000
000000
00FF00
03FFE0
0FFFF0
1FFFF8
3FFFF0
7F81E0
7F0060
FE0000
FC0000
FC0000
FC0000
FC00F8
FC00F8
FC00F8
FC00F8
FE00F8
7F00F8
7F81F8
3FFFF8
1FFFF8
0FFFF8
07FFF8
00FC78
ENDCHAR
STARTCHAR Gcaron.ss01
ENCODING -1
SWIDTH 743 0
DWIDTH 24 0
BBX 21 30 1 0
BITMAP
078780
03CF00
01FF00
00FE00
00FC00
000000
000000
00FF00
03FFE0
0FFFF0
1FFFF8
3FFFF0
7F81E0
7F0060
FE0000
FC0000
FC0000
FC0000
FC00F8
FC00F8
FC00F8
FC00F8
FE00F8
7F00F8
7F81F8
3FFFF8
1FFFF8
0FFFF8
07FFF8
00FC78
ENDCHAR
STARTCHAR Gcircumflex.ss01
ENCODING -1
SWIDTH 743 0
DWIDTH 24 0
BBX 21 30 1 0
BITMAP
007C00
00FE00
01FF00
01EF00
03C7C0
000000
000000
00FF00
03FFE0
0FFFF0
1FFFF8
3FFFF0
7F81E0
7F0060
FE0000
FC0000
FC0000
FC0000
FC00F8
FC00F8
FC00F8
FC00F8
FE00F8
7F00F8
7F81F8
3FFFF8
1FFFF8
0FFFF8
07FFF8
00FC78
ENDCHAR
STARTCHAR Gcommaaccent.ss01
ENCODING -1
SWIDTH 743 0
DWIDTH 24 0
BBX 21 31 1 -8
BITMAP
00FF00
03FFE0
0FFFF0
1FFFF8
3FFFF0
7F81E0
7F0060
FE0000
FC0000
FC0000
FC0000
FC00F8
FC00F8
FC00F8
FC00F8
FE00F8
7F00F8
7F81F8
3FFFF8
1FFFF8
0FFFF8
07FFF8
00FC78
000000
000000
007C00
007800
007800
007000
00F000
00F000
ENDCHAR
STARTCHAR Gdotaccent.ss01
ENCODING -1
SWIDTH 743 0
DWIDTH 24 0
BBX 21 31 1 0
BITMAP
003800
007C00
007E00
007E00
007C00
003800
000000
000000
00FF00
03FFE0
0FFFF0
1FFFF8
3FFFF0
7F81E0
7F0060
FE0000
FC0000
FC0000
FC0000
FC00F8
FC00F8
FC00F8
FC00F8
FE00F8
7F00F8
7F81F8
3FFFF8
1FFFF8
0FFFF8
07FFF8
00FC78
ENDCHAR
STARTCHAR uni1E20.ss01
ENCODING -1
SWIDTH 743 0
DWIDTH 24 0
BBX 21 28 1 0
BITMAP
03FF80
03FF80
03FF80
000000
000000
00FF00
03FFE0
0FFFF0
1FFFF8
3FFFF0
7F81E0
7F0060
FE0000
FC0000
FC0000
FC0000
FC00F8
FC00F8
FC00F8
FC00F8
FE00F8
7F00F8
7F81F8
3FFFF8
1FFFF8
0FFFF8
07FFF8
00FC78
ENDCHAR
STARTCHAR I.ss01
ENCODING -1
SWIDTH 507 0
DWIDTH 16 0
BBX 14 23 1 0
BITMAP
FFFC
FFFC
FFFC
FFFC
FFFC
0FC0
0FC0
0FC0
0FC0
0FC0
0FC0
0FC0
0FC0
0FC0
0FC0
0FC0
0FC0
0FC0
FFFC
FFFC
FFFC
FFFC
FFFC
ENDCHAR
STARTCHAR IJ.ss01
ENCODING -1
SWIDTH 1046 0
DWIDTH 33 0
BBX 31 26 1 -3
BITMAP
FFFC7FFE
FFFC7FFE
FFFC7FFE
FFFC7FFE
FFFC7FFE
0FC0007E
0FC0007E
0FC0007E
0FC0007E
0FC0007E
0FC0007E
0FC0007E
0FC0007E
0FC0007E
0FC0007E
0FC0007E
0FC0007E
0FC0007E
FFFC007E
FFFC607E
FFFC70FC
FFFCFFFC
FFFDFFFC
0000FFF8
00007FF0
00001FC0
ENDCHAR
STARTCHAR Iacute.ss01
ENCODING -1
SWIDTH 507 0
DWIDTH 16 0
BBX 14 30 1 0
BITMAP
01C0
01F8
03F0
07C0
0F80
0000
0000
FFFC
FFFC
FFFC
FFFC
FFFC
0FC0
0FC0
0FC0
0FC0
0FC0
0FC0
0FC0
0FC0
0FC0
0FC0
0FC0
0FC0
0FC0
FFFC
FFFC
FFFC
FFFC
FFFC
ENDCHAR
STARTCHAR Iacute_J.loclNLD
ENCODING -1
SWIDTH 858 0
DWIDTH 27 0
BBX 24 30 2 0
BITMAP
1C0070
1F80FC
3F00F8
7C01F0
F803E0
000000
000000
FC3FFF
FC3FFF
FC3FFF
FC3FFF
FC3FFF
FC003F
FC003F
FC003F
FC003F
FC003F
FC003F
FC003F
FC003F
FC003F
FC003F
FC003F
FC303F
FC787E
FC7FFE
FCFFFE
FC7FFC
FC3FF8
FC0FE0
ENDCHAR
STARTCHAR Iacute_J.loclNLD.ss01
ENCODING -1
SWIDTH 1046 0
DWIDTH 33 0
BBX 31 33 1 -3
BITMAP
01C000E0
01F800FC
03F001F0
07C003E0
0F8007C0
00000000
00000000
FFFC7FFE
FFFC7FFE
FFFC7FFE
FFFC7FFE
FFFC7FFE
0FC0007E
0FC0007E
0FC0007E
0FC0007E
0FC0007E
0FC0007E
0FC0007E
0FC0007E
0FC0007E
0FC0007E
0FC0007E
0FC0007E
0FC0007E
FFFC007E
FFFC607E
FFFC70FC
FFFCFFFC
FFFDFFFC
0000FFF8
00007FF0
00001FC0
ENDCHAR
STARTCHAR Ibreve.ss01
ENCODING -1
SWIDTH 507 0
DWIDTH 16 0
BBX 14 31 1 0
BITMAP
3870
3870
3CF0
1FF0
1FE0
0780
0000
0000
FFFC
FFFC
FFFC
FFFC
FFFC
0FC0
0FC0
0FC0
0FC0
0FC0
0FC0
0FC0
0FC0
0FC0
0FC0
0FC0
0FC0
0FC0
FFFC
FFFC
FFFC
FFFC
FFFC
ENDCHAR
STARTCHAR Icircumflex.ss01
ENCODING -1
SWIDTH 507 0
DWIDTH 16 0
BBX 14 30 1 0
BITMAP
0FC0
0FE0
1FE0
3EF0
7C78
0000
0000
FFFC
FFFC
FFFC
FFFC
FFFC
0FC0
0FC0
0FC0
0FC0
0FC0
0FC0
0FC0
0FC0
0FC0
0FC0
0FC0
0FC0
0FC0
FFFC
FFFC
FFFC
FFFC
FFFC
ENDCHAR
STARTCHAR uni0208.ss01
ENCODING -1
SWIDTH 507 0
DWIDTH 16 0
BBX 14 30 1 0
BITMAP
30E0
FBE0
F9F0
7DF0
3CF8
0000
0000
FFFC
FFFC
FFFC
FFFC
FFFC
0FC0
0FC0
0FC0
0FC0
0FC0
0FC0
0FC0
0FC0
0FC0
0FC0
0FC0
0FC0
0FC0
FFFC
FFFC
FFFC
FFFC
FFFC
ENDCHAR
STARTCHAR Idieresis.ss01
ENCODING -1
SWIDTH 507 0
DWIDTH 16 0
BBX 14 30 1 0
BITMAP
1860
3CF0
3CF8
3CF0
3C70
0000
0000
FFFC
FFFC
FFFC
FFFC
FFFC
0FC0
0FC0
0FC0
0FC0
0FC0
0FC0
0FC0
0FC0
0FC0
0FC0
0FC0
0FC0
0FC0
FFFC
FFFC
FFFC
FFFC
FFFC
ENDCHAR
STARTCHAR uni1E2E.ss01
ENCODING -1
SWIDTH 507 0
DWIDTH 16 0
BBX 14 36 1 0
BITMAP
0080
01E0
03F0
07C0
0F80
0000
1860
3CF0
3CF8
3CF0
3C70
0000
0000
FFFC
FFFC
FFFC
FFFC
FFFC
0FC0
0FC0
0FC0
0FC0
0FC0
0FC0
0FC0
0FC0
0FC0
0FC0
0FC0
0FC0
0FC0
FFFC
FFFC
FFFC
FFFC
FFFC
ENDCHAR
STARTCHAR Idotaccent.ss01
ENCODING -1
SWIDTH 507 0
DWIDTH 16 0
BBX 14 31 1 0
BITMAP
0780
0FC0
0FC0
0FC0
0FC0
0780
0000
0000
FFFC
FFFC
FFFC
FFFC
FFFC
0FC0
0FC0
0FC0
0FC0
0FC0
0FC0
0FC0
0FC0
0FC0
0FC0
0FC0
0FC0
0FC0
FFFC
FFFC
FFFC
FFFC
FFFC
ENDCHAR
STARTCHAR uni1ECA.ss01
ENCODING -1
SWIDTH 507 0
DWIDTH 16 0
BBX 14 31 1 -8
BITMAP
FFFC
FFFC
FFFC
FFFC
FFFC
0FC0
0FC0
0FC0
0FC0
0FC0
0FC0
0FC0
0FC0
0FC0
0FC0
0FC0
0FC0
0FC0
FFFC
FFFC
FFFC
FFFC
FFFC
0000
0000
0780
0FC0
0FC0
0FC0
0FC0
0780
ENDCHAR
STARTCHAR Igrave.ss01
ENCODING -1
SWIDTH 507 0
DWIDTH 16 0
BBX 14 30 1 0
BITMAP
0E00
3E00
1F00
0F80
07C0
0000
0000
FFFC
FFFC
FFFC
FFFC
FFFC
0FC0
0FC0
0FC0
0FC0
0FC0
0FC0
0FC0
0FC0
0FC0
0FC0
0FC0
0FC0
0FC0
FFFC
FFFC
FFFC
FFFC
FFFC
ENDCHAR
STARTCHAR uni1EC8.ss01
ENCODING -1
SWIDTH 507 0
DWIDTH 16 0
BBX 14 32 1 0
BITMAP
0780
1FC0
0FE0
01E0
01E0
03C0
0380
0000
0000
FFFC
FFFC
FFFC
FFFC
FFFC
0FC0
0FC0
0FC0
0FC0
0FC0
0FC0
0FC0
0FC0
0FC0
0FC0
0FC0
0FC0
0FC0
FFFC
FFFC
FFFC
FFFC
FFFC
ENDCHAR
STARTCHAR uni020A.ss01
ENCODING -1
SWIDTH 507 0
DWIDTH 16 0
BBX 14 30 1 0
BITMAP
07C0
1FE0
3FF0
3CF0
3870
0000
0000
FFFC
FFFC
FFFC
FFFC
FFFC
0FC0
0FC0
0FC0
0FC0
0FC0
0FC0
0FC0
0FC0
0FC0
0FC0
0FC0
0FC0
0FC0
FFFC
FFFC
FFFC
FFFC
FFFC
ENDCHAR
STARTCHAR Imacron.ss01
ENCODING -1
SWIDTH 507 0
DWIDTH 16 0
BBX 14 28 1 0
BITMAP
3FF8
3FF8
3FF8
0000
0000
FFFC
FFFC
FFFC
FFFC
FFFC
0FC0
0FC0
0FC0
0FC0
0FC0
0FC0
0FC0
0FC0
0FC0
0FC0
0FC0
0FC0
0FC0
FFFC
FFFC
FFFC
FFFC
FFFC
ENDCHAR
STARTCHAR Iogonek.ss01
ENCODING -1
SWIDTH 507 0
DWIDTH 16 0
BBX 14 31 1 -8
BITMAP
FFFC
FFFC
FFFC
FFFC
FFFC
0FC0
0FC0
0FC0
0FC0
0FC0
0FC0
0FC0
0FC0
0FC0
0FC0
0FC0
0FC0
0FC0
FFFC
FFFC
FFFC
FFFC
FFFC
0F00
1E00
3C00
3C00
3F00
3F00
1F80
0F00
ENDCHAR
STARTCHAR Itilde.ss01
ENCODING -1
SWIDTH 507 0
DWIDTH 16 0
BBX 14 30 1 0
BITMAP
1E38
3FF8
3FF8
3FF0
78F0
0000
0000
FFFC
FFFC
FFFC
FFFC
FFFC
0FC0
0FC0
0FC0
0FC0
0FC0
0FC0
0FC0
0FC0
0FC0
0FC0
0FC0
0FC0
0FC0
FFFC
FFFC
FFFC
FFFC
FFFC
ENDCHAR
STARTCHAR J.ss01
ENCODING -1
SWIDTH 539 0
DWIDTH 17 0
BBX 15 26 0 -3
BITMAP
3FFE
3FFE
3FFE
3FFE
3FFE
003E
003E
003E
003E
003E
003E
003E
003E
003E
003E
003E
003E
003E
003E
207E
787E
7FFE
FFFE
7FFC
3FF8
0FE0
ENDCHAR
STARTCHAR Jacute
ENCODING -1
SWIDTH 539 0
DWIDTH 17 0
BBX 15 30 0 0
BITMAP
0070
00FC
01F8
01F0
03E0
0000
0000
3FFE
3FFE
3FFE
3FFE
3FFE
003E
003E
003E
003E
003E
003E
003E
003E
003E
003E
003E
207E
787E
7FFE
FFFC
7FFC
3FF8
0FE0
ENDCHAR
STARTCHAR Jacute.ss01
ENCODING -1
SWIDTH 539 0
DWIDTH 17 0
BBX 15 33 0 -3
BITMAP
0070
00FC
00F8
01F0
03E0
0000
0000
3FFE
3FFE
3FFE
3FFE
3FFE
003E
003E
003E
003E
003E
003E
003E
003E
003E
003E
003E
003E
003E
003E
207E
787E
7FFE
FFFE
7FFC
3FF8
0FE0
ENDCHAR
STARTCHAR Jcircumflex.ss01
ENCODING -1
SWIDTH 539 0
DWIDTH 17 0
BBX 15 33 0 -3
BITMAP
03E0
07F0
07F8
0F7C
1E3E
0000
0000
3FFE
3FFE
3FFE
3FFE
3FFE
003E
003E
003E
003E
003E
003E
003E
003E
003E
003E
003E
003E
003E
003E
207E
787E
7FFE
FFFE
7FFC
3FF8
0FE0
ENDCHAR
STARTCHAR uni01C7.ss01
ENCODING -1
SWIDTH 1102 0
DWIDTH 35 0
BBX 31 26 2 -3
BITMAP
FC003FFE
FC003FFE
FC003FFE
FC003FFE
FC003FFE
FC00003E
FC00003E
FC00003E
FC00003E
FC00003E
FC00003E
FC00003E
FC00003E
FC00003E
FC00003E
FC00003E
FC00003E
FC00003E
FFFF003E
FFFF207E
FFFF787E
FFFF7FFE
FFFFFFFE
00007FFC
00003FF8
00000FE0
ENDCHAR
STARTCHAR M.ss01
ENCODING -1
SWIDTH 1175 0
DWIDTH 38 0
BBX 34 23 2 0
BITMAP
FC3E00F800
FCFF83FE00
FDFFC7FF00
FFFFEFFF80
FFFFEFFF80
FFFFFFFF80
FF0FFC3FC0
FE07F81FC0
FC03F00FC0
FC03F00FC0
FC03F00FC0
FC03F00FC0
FC03F00FC0
FC03F00FC0
FC03F00FC0
FC03F00FC0
FC03F00FC0
FC03F00FC0
FC03F00FC0
FC03F00FC0
FC03F00FC0
FC03F00FC0
FC03F00FC0
ENDCHAR
ENDFONT
